<svg width="364" height="244" viewBox="0 0 364 244" fill="none" xmlns="http://www.w3.org/2000/svg">
<rect x="1" y="1" width="362" height="242" rx="17" fill="#1D1F21"/>
<rect x="1" y="1" width="362" height="242" rx="17" stroke="#8E8B88" stroke-width="2"/>
<rect width="360" height="32" transform="translate(2 2)" fill="#8E8B88" />
<circle opacity="0.25" cx="298" cy="18" r="8" fill="#FFF8F0"/>
<circle opacity="0.25" cx="322" cy="18" r="8" fill="#FFF8F0"/>
<circle cx="346" cy="18" r="8" fill="#C41B48"/>
<rect x="18" y="50" width="328" height="70" rx="16" fill="#2E2E31"/>
<path d="M47.6 76.864C47.6 76.4053 47.7067 76 47.92 75.648C48.1227 75.2853 48.4053 75.0027 48.768 74.8C49.12 74.5867 49.5253 74.48 49.984 74.48H54.592C55.0507 74.48 55.456 74.5867 55.808 74.8C56.1707 75.0027 56.4533 75.2853 56.656 75.648C56.8693 76 56.976 76.4053 56.976 76.864V76.896C56.976 77.3547 56.8693 77.7653 56.656 78.128C56.4533 78.48 56.1707 78.7627 55.808 78.976C55.456 79.1787 55.0507 79.28 54.592 79.28H49.984C49.5253 79.28 49.12 79.1787 48.768 78.976C48.4053 78.7627 48.1227 78.48 47.92 78.128C47.7067 77.7653 47.6 77.3547 47.6 76.896V76.864ZM52.1781 76.864C52.1781 76.4053 52.2848 76 52.4981 75.648C52.7008 75.2853 52.9835 75.0027 53.3461 74.8C53.6981 74.5867 54.1035 74.48 54.5621 74.48H59.1701C59.6288 74.48 60.0341 74.5867 60.3861 74.8C60.7488 75.0027 61.0315 75.2853 61.2341 75.648C61.4475 76 61.5541 76.4053 61.5541 76.864V76.896C61.5541 77.3547 61.4475 77.7653 61.2341 78.128C61.0315 78.48 60.7488 78.7627 60.3861 78.976C60.0341 79.1787 59.6288 79.28 59.1701 79.28H54.5621C54.1035 79.28 53.6981 79.1787 53.3461 78.976C52.9835 78.7627 52.7008 78.48 52.4981 78.128C52.2848 77.7653 52.1781 77.3547 52.1781 76.896V76.864ZM56.7562 76.864C56.7562 76.4053 56.8629 76 57.0762 75.648C57.2789 75.2853 57.5616 75.0027 57.9242 74.8C58.2762 74.5867 58.6816 74.48 59.1402 74.48H68.1643C68.6229 74.48 69.0283 74.5867 69.3803 74.8C69.7429 75.0027 70.0256 75.2853 70.2283 75.648C70.4416 76 70.5483 76.4053 70.5483 76.864V76.896C70.5483 77.3547 70.4416 77.7653 70.2283 78.128C70.0256 78.48 69.7429 78.7627 69.3803 78.976C69.0283 79.1787 68.6229 79.28 68.1643 79.28H59.1402C58.6816 79.28 58.2762 79.1787 57.9242 78.976C57.5616 78.7627 57.2789 78.48 57.0762 78.128C56.8629 77.7653 56.7562 77.3547 56.7562 76.896V76.864ZM65.7406 76.864C65.7406 76.4053 65.8473 76 66.0606 75.648C66.2633 75.2853 66.546 75.0027 66.9086 74.8C67.2606 74.5867 67.666 74.48 68.1246 74.48H77.1486C77.6073 74.48 78.0126 74.5867 78.3646 74.8C78.7273 75.0027 79.01 75.2853 79.2126 75.648C79.426 76 79.5326 76.4053 79.5326 76.864V76.896C79.5326 77.3547 79.426 77.7653 79.2126 78.128C79.01 78.48 78.7273 78.7627 78.3646 78.976C78.0126 79.1787 77.6073 79.28 77.1486 79.28H68.1246C67.666 79.28 67.2606 79.1787 66.9086 78.976C66.546 78.7627 66.2633 78.48 66.0606 78.128C65.8473 77.7653 65.7406 77.3547 65.7406 76.896V76.864ZM84.3187 76.864C84.3187 76.4053 84.4254 76 84.6387 75.648C84.8414 75.2853 85.1241 75.0027 85.4867 74.8C85.8387 74.5867 86.2441 74.48 86.7027 74.48H95.7268C96.1854 74.48 96.5908 74.5867 96.9428 74.8C97.3054 75.0027 97.5881 75.2853 97.7908 75.648C98.0041 76 98.1108 76.4053 98.1108 76.864V76.896C98.1108 77.3547 98.0041 77.7653 97.7908 78.128C97.5881 78.48 97.3054 78.7627 96.9428 78.976C96.5908 79.1787 96.1854 79.28 95.7268 79.28H86.7027C86.2441 79.28 85.8387 79.1787 85.4867 78.976C85.1241 78.7627 84.8414 78.48 84.6387 78.128C84.4254 77.7653 84.3187 77.3547 84.3187 76.896V76.864ZM93.3031 76.864C93.3031 76.4053 93.4098 76 93.6231 75.648C93.8258 75.2853 94.1085 75.0027 94.4711 74.8C94.8231 74.5867 95.2285 74.48 95.6871 74.48H100.295C100.754 74.48 101.159 74.5867 101.511 74.8C101.874 75.0027 102.156 75.2853 102.359 75.648C102.572 76 102.679 76.4053 102.679 76.864V76.896C102.679 77.3547 102.572 77.7653 102.359 78.128C102.156 78.48 101.874 78.7627 101.511 78.976C101.159 79.1787 100.754 79.28 100.295 79.28H95.6871C95.2285 79.28 94.8231 79.1787 94.4711 78.976C94.1085 78.7627 93.8258 78.48 93.6231 78.128C93.4098 77.7653 93.3031 77.3547 93.3031 76.896V76.864ZM97.8812 76.864C97.8812 76.4053 97.9879 76 98.2012 75.648C98.4039 75.2853 98.6866 75.0027 99.0492 74.8C99.4012 74.5867 99.8066 74.48 100.265 74.48H104.873C105.332 74.48 105.737 74.5867 106.089 74.8C106.452 75.0027 106.735 75.2853 106.937 75.648C107.151 76 107.257 76.4053 107.257 76.864V76.896C107.257 77.3547 107.151 77.7653 106.937 78.128C106.735 78.48 106.452 78.7627 106.089 78.976C105.737 79.1787 105.332 79.28 104.873 79.28H100.265C99.8066 79.28 99.4012 79.1787 99.0492 78.976C98.6866 78.7627 98.4039 78.48 98.2012 78.128C97.9879 77.7653 97.8812 77.3547 97.8812 76.896V76.864ZM102.459 76.864C102.459 76.4053 102.566 76 102.779 75.648C102.982 75.2853 103.265 75.0027 103.627 74.8C103.979 74.5867 104.385 74.48 104.843 74.48H113.867C114.326 74.48 114.731 74.5867 115.083 74.8C115.446 75.0027 115.729 75.2853 115.931 75.648C116.145 76 116.251 76.4053 116.251 76.864V76.896C116.251 77.3547 116.145 77.7653 115.931 78.128C115.729 78.48 115.446 78.7627 115.083 78.976C114.731 79.1787 114.326 79.28 113.867 79.28H104.843C104.385 79.28 103.979 79.1787 103.627 78.976C103.265 78.7627 102.982 78.48 102.779 78.128C102.566 77.7653 102.459 77.3547 102.459 76.896V76.864ZM111.444 76.864C111.444 76.4053 111.55 76 111.764 75.648C111.966 75.2853 112.249 75.0027 112.612 74.8C112.964 74.5867 113.369 74.48 113.828 74.48H122.852C123.31 74.48 123.716 74.5867 124.068 74.8C124.43 75.0027 124.713 75.2853 124.916 75.648C125.129 76 125.236 76.4053 125.236 76.864V76.896C125.236 77.3547 125.129 77.7653 124.916 78.128C124.713 78.48 124.43 78.7627 124.068 78.976C123.716 79.1787 123.31 79.28 122.852 79.28H113.828C113.369 79.28 112.964 79.1787 112.612 78.976C112.249 78.7627 111.966 78.48 111.764 78.128C111.55 77.7653 111.444 77.3547 111.444 76.896V76.864ZM120.428 76.864C120.428 76.4053 120.535 76 120.748 75.648C120.951 75.2853 121.233 75.0027 121.596 74.8C121.948 74.5867 122.353 74.48 122.812 74.48H127.42C127.879 74.48 128.284 74.5867 128.636 74.8C128.999 75.0027 129.281 75.2853 129.484 75.648C129.697 76 129.804 76.4053 129.804 76.864V76.896C129.804 77.3547 129.697 77.7653 129.484 78.128C129.281 78.48 128.999 78.7627 128.636 78.976C128.284 79.1787 127.879 79.28 127.42 79.28H122.812C122.353 79.28 121.948 79.1787 121.596 78.976C121.233 78.7627 120.951 78.48 120.748 78.128C120.535 77.7653 120.428 77.3547 120.428 76.896V76.864ZM125.006 76.864C125.006 76.4053 125.113 76 125.326 75.648C125.529 75.2853 125.812 75.0027 126.174 74.8C126.526 74.5867 126.932 74.48 127.39 74.48H136.414C136.873 74.48 137.278 74.5867 137.63 74.8C137.993 75.0027 138.276 75.2853 138.478 75.648C138.692 76 138.798 76.4053 138.798 76.864V76.896C138.798 77.3547 138.692 77.7653 138.478 78.128C138.276 78.48 137.993 78.7627 137.63 78.976C137.278 79.1787 136.873 79.28 136.414 79.28H127.39C126.932 79.28 126.526 79.1787 126.174 78.976C125.812 78.7627 125.529 78.48 125.326 78.128C125.113 77.7653 125.006 77.3547 125.006 76.896V76.864ZM133.991 76.864C133.991 76.4053 134.097 76 134.311 75.648C134.513 75.2853 134.796 75.0027 135.159 74.8C135.511 74.5867 135.916 74.48 136.375 74.48H140.983C141.441 74.48 141.847 74.5867 142.199 74.8C142.561 75.0027 142.844 75.2853 143.047 75.648C143.26 76 143.367 76.4053 143.367 76.864V76.896C143.367 77.3547 143.26 77.7653 143.047 78.128C142.844 78.48 142.561 78.7627 142.199 78.976C141.847 79.1787 141.441 79.28 140.983 79.28H136.375C135.916 79.28 135.511 79.1787 135.159 78.976C134.796 78.7627 134.513 78.48 134.311 78.128C134.097 77.7653 133.991 77.3547 133.991 76.896V76.864ZM148.162 76.864C148.162 76.4053 148.269 76 148.482 75.648C148.685 75.2853 148.968 75.0027 149.33 74.8C149.682 74.5867 150.088 74.48 150.546 74.48H159.571C160.029 74.48 160.435 74.5867 160.787 74.8C161.149 75.0027 161.432 75.2853 161.635 75.648C161.848 76 161.955 76.4053 161.955 76.864V76.896C161.955 77.3547 161.848 77.7653 161.635 78.128C161.432 78.48 161.149 78.7627 160.787 78.976C160.435 79.1787 160.029 79.28 159.571 79.28H150.546C150.088 79.28 149.682 79.1787 149.33 78.976C148.968 78.7627 148.685 78.48 148.482 78.128C148.269 77.7653 148.162 77.3547 148.162 76.896V76.864ZM166.741 76.864C166.741 76.4053 166.847 76 167.061 75.648C167.263 75.2853 167.546 75.0027 167.909 74.8C168.261 74.5867 168.666 74.48 169.125 74.48H178.149C178.607 74.48 179.013 74.5867 179.365 74.8C179.727 75.0027 180.01 75.2853 180.213 75.648C180.426 76 180.533 76.4053 180.533 76.864V76.896C180.533 77.3547 180.426 77.7653 180.213 78.128C180.01 78.48 179.727 78.7627 179.365 78.976C179.013 79.1787 178.607 79.28 178.149 79.28H169.125C168.666 79.28 168.261 79.1787 167.909 78.976C167.546 78.7627 167.263 78.48 167.061 78.128C166.847 77.7653 166.741 77.3547 166.741 76.896V76.864ZM175.725 76.864C175.725 76.4053 175.832 76 176.045 75.648C176.248 75.2853 176.53 75.0027 176.893 74.8C177.245 74.5867 177.65 74.48 178.109 74.48H187.133C187.592 74.48 187.997 74.5867 188.349 74.8C188.712 75.0027 188.994 75.2853 189.197 75.648C189.41 76 189.517 76.4053 189.517 76.864V76.896C189.517 77.3547 189.41 77.7653 189.197 78.128C188.994 78.48 188.712 78.7627 188.349 78.976C187.997 79.1787 187.592 79.28 187.133 79.28H178.109C177.65 79.28 177.245 79.1787 176.893 78.976C176.53 78.7627 176.248 78.48 176.045 78.128C175.832 77.7653 175.725 77.3547 175.725 76.896V76.864ZM184.709 76.864C184.709 76.4053 184.816 76 185.029 75.648C185.232 75.2853 185.515 75.0027 185.877 74.8C186.229 74.5867 186.635 74.48 187.093 74.48H196.117C196.576 74.48 196.981 74.5867 197.333 74.8C197.696 75.0027 197.979 75.2853 198.181 75.648C198.395 76 198.501 76.4053 198.501 76.864V76.896C198.501 77.3547 198.395 77.7653 198.181 78.128C197.979 78.48 197.696 78.7627 197.333 78.976C196.981 79.1787 196.576 79.28 196.117 79.28H187.093C186.635 79.28 186.229 79.1787 185.877 78.976C185.515 78.7627 185.232 78.48 185.029 78.128C184.816 77.7653 184.709 77.3547 184.709 76.896V76.864ZM203.287 76.864C203.287 76.4053 203.394 76 203.607 75.648C203.81 75.2853 204.093 75.0027 204.455 74.8C204.807 74.5867 205.213 74.48 205.671 74.48H214.696C215.154 74.48 215.56 74.5867 215.912 74.8C216.274 75.0027 216.557 75.2853 216.76 75.648C216.973 76 217.08 76.4053 217.08 76.864V76.896C217.08 77.3547 216.973 77.7653 216.76 78.128C216.557 78.48 216.274 78.7627 215.912 78.976C215.56 79.1787 215.154 79.28 214.696 79.28H205.671C205.213 79.28 204.807 79.1787 204.455 78.976C204.093 78.7627 203.81 78.48 203.607 78.128C203.394 77.7653 203.287 77.3547 203.287 76.896V76.864ZM212.272 76.864C212.272 76.4053 212.379 76 212.592 75.648C212.795 75.2853 213.077 75.0027 213.44 74.8C213.792 74.5867 214.197 74.48 214.656 74.48H219.264C219.723 74.48 220.128 74.5867 220.48 74.8C220.843 75.0027 221.125 75.2853 221.328 75.648C221.541 76 221.648 76.4053 221.648 76.864V76.896C221.648 77.3547 221.541 77.7653 221.328 78.128C221.125 78.48 220.843 78.7627 220.48 78.976C220.128 79.1787 219.723 79.28 219.264 79.28H214.656C214.197 79.28 213.792 79.1787 213.44 78.976C213.077 78.7627 212.795 78.48 212.592 78.128C212.379 77.7653 212.272 77.3547 212.272 76.896V76.864ZM216.85 76.864C216.85 76.4053 216.957 76 217.17 75.648C217.373 75.2853 217.655 75.0027 218.018 74.8C218.37 74.5867 218.775 74.48 219.234 74.48H228.258C228.717 74.48 229.122 74.5867 229.474 74.8C229.837 75.0027 230.119 75.2853 230.322 75.648C230.535 76 230.642 76.4053 230.642 76.864V76.896C230.642 77.3547 230.535 77.7653 230.322 78.128C230.119 78.48 229.837 78.7627 229.474 78.976C229.122 79.1787 228.717 79.28 228.258 79.28H219.234C218.775 79.28 218.37 79.1787 218.018 78.976C217.655 78.7627 217.373 78.48 217.17 78.128C216.957 77.7653 216.85 77.3547 216.85 76.896V76.864ZM225.834 76.864C225.834 76.4053 225.941 76 226.154 75.648C226.357 75.2853 226.64 75.0027 227.002 74.8C227.354 74.5867 227.76 74.48 228.218 74.48H237.242C237.701 74.48 238.106 74.5867 238.458 74.8C238.821 75.0027 239.104 75.2853 239.306 75.648C239.52 76 239.626 76.4053 239.626 76.864V76.896C239.626 77.3547 239.52 77.7653 239.306 78.128C239.104 78.48 238.821 78.7627 238.458 78.976C238.106 79.1787 237.701 79.28 237.242 79.28H228.218C227.76 79.28 227.354 79.1787 227.002 78.976C226.64 78.7627 226.357 78.48 226.154 78.128C225.941 77.7653 225.834 77.3547 225.834 76.896V76.864ZM234.819 76.864C234.819 76.4053 234.925 76 235.139 75.648C235.341 75.2853 235.624 75.0027 235.987 74.8C236.339 74.5867 236.744 74.48 237.203 74.48H241.811C242.269 74.48 242.675 74.5867 243.027 74.8C243.389 75.0027 243.672 75.2853 243.875 75.648C244.088 76 244.195 76.4053 244.195 76.864V76.896C244.195 77.3547 244.088 77.7653 243.875 78.128C243.672 78.48 243.389 78.7627 243.027 78.976C242.675 79.1787 242.269 79.28 241.811 79.28H237.203C236.744 79.28 236.339 79.1787 235.987 78.976C235.624 78.7627 235.341 78.48 235.139 78.128C234.925 77.7653 234.819 77.3547 234.819 76.896V76.864ZM47.6 95.864C47.6 95.4053 47.7067 95 47.92 94.648C48.1227 94.2853 48.4053 94.0027 48.768 93.8C49.12 93.5867 49.5253 93.48 49.984 93.48H59.008C59.4667 93.48 59.872 93.5867 60.224 93.8C60.5867 94.0027 60.8693 94.2853 61.072 94.648C61.2853 95 61.392 95.4053 61.392 95.864V95.896C61.392 96.3547 61.2853 96.7653 61.072 97.128C60.8693 97.48 60.5867 97.7627 60.224 97.976C59.872 98.1787 59.4667 98.28 59.008 98.28H49.984C49.5253 98.28 49.12 98.1787 48.768 97.976C48.4053 97.7627 48.1227 97.48 47.92 97.128C47.7067 96.7653 47.6 96.3547 47.6 95.896V95.864ZM56.5844 95.864C56.5844 95.4053 56.691 95 56.9044 94.648C57.107 94.2853 57.3897 94.0027 57.7524 93.8C58.1044 93.5867 58.5097 93.48 58.9684 93.48H63.5764C64.035 93.48 64.4404 93.5867 64.7924 93.8C65.155 94.0027 65.4377 94.2853 65.6404 94.648C65.8537 95 65.9604 95.4053 65.9604 95.864V95.896C65.9604 96.3547 65.8537 96.7653 65.6404 97.128C65.4377 97.48 65.155 97.7627 64.7924 97.976C64.4404 98.1787 64.035 98.28 63.5764 98.28H58.9684C58.5097 98.28 58.1044 98.1787 57.7524 97.976C57.3897 97.7627 57.107 97.48 56.9044 97.128C56.691 96.7653 56.5844 96.3547 56.5844 95.896V95.864ZM61.1625 95.864C61.1625 95.4053 61.2692 95 61.4825 94.648C61.6852 94.2853 61.9678 94.0027 62.3305 93.8C62.6825 93.5867 63.0878 93.48 63.5465 93.48H72.5705C73.0292 93.48 73.4345 93.5867 73.7865 93.8C74.1492 94.0027 74.4318 94.2853 74.6345 94.648C74.8478 95 74.9545 95.4053 74.9545 95.864V95.896C74.9545 96.3547 74.8478 96.7653 74.6345 97.128C74.4318 97.48 74.1492 97.7627 73.7865 97.976C73.4345 98.1787 73.0292 98.28 72.5705 98.28H63.5465C63.0878 98.28 62.6825 98.1787 62.3305 97.976C61.9678 97.7627 61.6852 97.48 61.4825 97.128C61.2692 96.7653 61.1625 96.3547 61.1625 95.896V95.864ZM70.1469 95.864C70.1469 95.4053 70.2535 95 70.4669 94.648C70.6695 94.2853 70.9522 94.0027 71.3149 93.8C71.6669 93.5867 72.0722 93.48 72.5309 93.48H81.5549C82.0135 93.48 82.4189 93.5867 82.7709 93.8C83.1335 94.0027 83.4162 94.2853 83.6189 94.648C83.8322 95 83.9389 95.4053 83.9389 95.864V95.896C83.9389 96.3547 83.8322 96.7653 83.6189 97.128C83.4162 97.48 83.1335 97.7627 82.7709 97.976C82.4189 98.1787 82.0135 98.28 81.5549 98.28H72.5309C72.0722 98.28 71.6669 98.1787 71.3149 97.976C70.9522 97.7627 70.6695 97.48 70.4669 97.128C70.2535 96.7653 70.1469 96.3547 70.1469 95.896V95.864ZM79.1312 95.864C79.1312 95.4053 79.2379 95 79.4512 94.648C79.6539 94.2853 79.9366 94.0027 80.2992 93.8C80.6512 93.5867 81.0566 93.48 81.5152 93.48H86.1233C86.5819 93.48 86.9873 93.5867 87.3393 93.8C87.7019 94.0027 87.9846 94.2853 88.1873 94.648C88.4006 95 88.5073 95.4053 88.5073 95.864V95.896C88.5073 96.3547 88.4006 96.7653 88.1873 97.128C87.9846 97.48 87.7019 97.7627 87.3393 97.976C86.9873 98.1787 86.5819 98.28 86.1233 98.28H81.5152C81.0566 98.28 80.6512 98.1787 80.2992 97.976C79.9366 97.7627 79.6539 97.48 79.4512 97.128C79.2379 96.7653 79.1312 96.3547 79.1312 95.896V95.864ZM93.3031 95.864C93.3031 95.4053 93.4098 95 93.6231 94.648C93.8258 94.2853 94.1085 94.0027 94.4711 93.8C94.8231 93.5867 95.2285 93.48 95.6871 93.48H100.295C100.754 93.48 101.159 93.5867 101.511 93.8C101.874 94.0027 102.156 94.2853 102.359 94.648C102.572 95 102.679 95.4053 102.679 95.864V95.896C102.679 96.3547 102.572 96.7653 102.359 97.128C102.156 97.48 101.874 97.7627 101.511 97.976C101.159 98.1787 100.754 98.28 100.295 98.28H95.6871C95.2285 98.28 94.8231 98.1787 94.4711 97.976C94.1085 97.7627 93.8258 97.48 93.6231 97.128C93.4098 96.7653 93.3031 96.3547 93.3031 95.896V95.864ZM97.8812 95.864C97.8812 95.4053 97.9879 95 98.2012 94.648C98.4039 94.2853 98.6866 94.0027 99.0492 93.8C99.4012 93.5867 99.8066 93.48 100.265 93.48H109.289C109.748 93.48 110.153 93.5867 110.505 93.8C110.868 94.0027 111.151 94.2853 111.353 94.648C111.567 95 111.673 95.4053 111.673 95.864V95.896C111.673 96.3547 111.567 96.7653 111.353 97.128C111.151 97.48 110.868 97.7627 110.505 97.976C110.153 98.1787 109.748 98.28 109.289 98.28H100.265C99.8066 98.28 99.4012 98.1787 99.0492 97.976C98.6866 97.7627 98.4039 97.48 98.2012 97.128C97.9879 96.7653 97.8812 96.3547 97.8812 95.896V95.864ZM106.866 95.864C106.866 95.4053 106.972 95 107.186 94.648C107.388 94.2853 107.671 94.0027 108.034 93.8C108.386 93.5867 108.791 93.48 109.25 93.48H113.858C114.316 93.48 114.722 93.5867 115.074 93.8C115.436 94.0027 115.719 94.2853 115.922 94.648C116.135 95 116.242 95.4053 116.242 95.864V95.896C116.242 96.3547 116.135 96.7653 115.922 97.128C115.719 97.48 115.436 97.7627 115.074 97.976C114.722 98.1787 114.316 98.28 113.858 98.28H109.25C108.791 98.28 108.386 98.1787 108.034 97.976C107.671 97.7627 107.388 97.48 107.186 97.128C106.972 96.7653 106.866 96.3547 106.866 95.896V95.864ZM111.444 95.864C111.444 95.4053 111.55 95 111.764 94.648C111.966 94.2853 112.249 94.0027 112.612 93.8C112.964 93.5867 113.369 93.48 113.828 93.48H122.852C123.31 93.48 123.716 93.5867 124.068 93.8C124.43 94.0027 124.713 94.2853 124.916 94.648C125.129 95 125.236 95.4053 125.236 95.864V95.896C125.236 96.3547 125.129 96.7653 124.916 97.128C124.713 97.48 124.43 97.7627 124.068 97.976C123.716 98.1787 123.31 98.28 122.852 98.28H113.828C113.369 98.28 112.964 98.1787 112.612 97.976C112.249 97.7627 111.966 97.48 111.764 97.128C111.55 96.7653 111.444 96.3547 111.444 95.896V95.864ZM120.428 95.864C120.428 95.4053 120.535 95 120.748 94.648C120.951 94.2853 121.233 94.0027 121.596 93.8C121.948 93.5867 122.353 93.48 122.812 93.48H131.836C132.295 93.48 132.7 93.5867 133.052 93.8C133.415 94.0027 133.697 94.2853 133.9 94.648C134.113 95 134.22 95.4053 134.22 95.864V95.896C134.22 96.3547 134.113 96.7653 133.9 97.128C133.697 97.48 133.415 97.7627 133.052 97.976C132.7 98.1787 132.295 98.28 131.836 98.28H122.812C122.353 98.28 121.948 98.1787 121.596 97.976C121.233 97.7627 120.951 97.48 120.748 97.128C120.535 96.7653 120.428 96.3547 120.428 95.896V95.864ZM129.412 95.864C129.412 95.4053 129.519 95 129.732 94.648C129.935 94.2853 130.218 94.0027 130.58 93.8C130.932 93.5867 131.338 93.48 131.796 93.48H140.821C141.279 93.48 141.685 93.5867 142.037 93.8C142.399 94.0027 142.682 94.2853 142.885 94.648C143.098 95 143.205 95.4053 143.205 95.864V95.896C143.205 96.3547 143.098 96.7653 142.885 97.128C142.682 97.48 142.399 97.7627 142.037 97.976C141.685 98.1787 141.279 98.28 140.821 98.28H131.796C131.338 98.28 130.932 98.1787 130.58 97.976C130.218 97.7627 129.935 97.48 129.732 97.128C129.519 96.7653 129.412 96.3547 129.412 95.896V95.864ZM147.991 95.864C147.991 95.4053 148.097 95 148.311 94.648C148.513 94.2853 148.796 94.0027 149.159 93.8C149.511 93.5867 149.916 93.48 150.375 93.48H159.399C159.857 93.48 160.263 93.5867 160.615 93.8C160.977 94.0027 161.26 94.2853 161.463 94.648C161.676 95 161.783 95.4053 161.783 95.864V95.896C161.783 96.3547 161.676 96.7653 161.463 97.128C161.26 97.48 160.977 97.7627 160.615 97.976C160.263 98.1787 159.857 98.28 159.399 98.28H150.375C149.916 98.28 149.511 98.1787 149.159 97.976C148.796 97.7627 148.513 97.48 148.311 97.128C148.097 96.7653 147.991 96.3547 147.991 95.896V95.864ZM156.975 95.864C156.975 95.4053 157.082 95 157.295 94.648C157.498 94.2853 157.78 94.0027 158.143 93.8C158.495 93.5867 158.9 93.48 159.359 93.48H168.383C168.842 93.48 169.247 93.5867 169.599 93.8C169.962 94.0027 170.244 94.2853 170.447 94.648C170.66 95 170.767 95.4053 170.767 95.864V95.896C170.767 96.3547 170.66 96.7653 170.447 97.128C170.244 97.48 169.962 97.7627 169.599 97.976C169.247 98.1787 168.842 98.28 168.383 98.28H159.359C158.9 98.28 158.495 98.1787 158.143 97.976C157.78 97.7627 157.498 97.48 157.295 97.128C157.082 96.7653 156.975 96.3547 156.975 95.896V95.864ZM175.553 95.864C175.553 95.4053 175.66 95 175.873 94.648C176.076 94.2853 176.358 94.0027 176.721 93.8C177.073 93.5867 177.478 93.48 177.937 93.48H186.961C187.42 93.48 187.825 93.5867 188.177 93.8C188.54 94.0027 188.822 94.2853 189.025 94.648C189.238 95 189.345 95.4053 189.345 95.864V95.896C189.345 96.3547 189.238 96.7653 189.025 97.128C188.822 97.48 188.54 97.7627 188.177 97.976C187.825 98.1787 187.42 98.28 186.961 98.28H177.937C177.478 98.28 177.073 98.1787 176.721 97.976C176.358 97.7627 176.076 97.48 175.873 97.128C175.66 96.7653 175.553 96.3547 175.553 95.896V95.864ZM184.537 95.864C184.537 95.4053 184.644 95 184.857 94.648C185.06 94.2853 185.343 94.0027 185.705 93.8C186.057 93.5867 186.463 93.48 186.921 93.48H195.946C196.404 93.48 196.81 93.5867 197.162 93.8C197.524 94.0027 197.807 94.2853 198.01 94.648C198.223 95 198.33 95.4053 198.33 95.864V95.896C198.33 96.3547 198.223 96.7653 198.01 97.128C197.807 97.48 197.524 97.7627 197.162 97.976C196.81 98.1787 196.404 98.28 195.946 98.28H186.921C186.463 98.28 186.057 98.1787 185.705 97.976C185.343 97.7627 185.06 97.48 184.857 97.128C184.644 96.7653 184.537 96.3547 184.537 95.896V95.864ZM193.522 95.864C193.522 95.4053 193.629 95 193.842 94.648C194.045 94.2853 194.327 94.0027 194.69 93.8C195.042 93.5867 195.447 93.48 195.906 93.48H200.514C200.973 93.48 201.378 93.5867 201.73 93.8C202.093 94.0027 202.375 94.2853 202.578 94.648C202.791 95 202.898 95.4053 202.898 95.864V95.896C202.898 96.3547 202.791 96.7653 202.578 97.128C202.375 97.48 202.093 97.7627 201.73 97.976C201.378 98.1787 200.973 98.28 200.514 98.28H195.906C195.447 98.28 195.042 98.1787 194.69 97.976C194.327 97.7627 194.045 97.48 193.842 97.128C193.629 96.7653 193.522 96.3547 193.522 95.896V95.864ZM198.1 95.864C198.1 95.4053 198.207 95 198.42 94.648C198.623 94.2853 198.905 94.0027 199.268 93.8C199.62 93.5867 200.025 93.48 200.484 93.48H205.092C205.551 93.48 205.956 93.5867 206.308 93.8C206.671 94.0027 206.953 94.2853 207.156 94.648C207.369 95 207.476 95.4053 207.476 95.864V95.896C207.476 96.3547 207.369 96.7653 207.156 97.128C206.953 97.48 206.671 97.7627 206.308 97.976C205.956 98.1787 205.551 98.28 205.092 98.28H200.484C200.025 98.28 199.62 98.1787 199.268 97.976C198.905 97.7627 198.623 97.48 198.42 97.128C198.207 96.7653 198.1 96.3547 198.1 95.896V95.864Z" fill="#FFF8F0"/>
<rect x="18" y="136" width="328" height="70" rx="16" fill="#2E2E31"/>
<path d="M47.6 162.864C47.6 162.405 47.7067 162 47.92 161.648C48.1227 161.285 48.4053 161.003 48.768 160.8C49.12 160.587 49.5253 160.48 49.984 160.48H59.008C59.4667 160.48 59.872 160.587 60.224 160.8C60.5867 161.003 60.8693 161.285 61.072 161.648C61.2853 162 61.392 162.405 61.392 162.864V162.896C61.392 163.355 61.2853 163.765 61.072 164.128C60.8693 164.48 60.5867 164.763 60.224 164.976C59.872 165.179 59.4667 165.28 59.008 165.28H49.984C49.5253 165.28 49.12 165.179 48.768 164.976C48.4053 164.763 48.1227 164.48 47.92 164.128C47.7067 163.765 47.6 163.355 47.6 162.896V162.864ZM56.5844 162.864C56.5844 162.405 56.691 162 56.9044 161.648C57.107 161.285 57.3897 161.003 57.7524 160.8C58.1044 160.587 58.5097 160.48 58.9684 160.48H67.9924C68.451 160.48 68.8564 160.587 69.2084 160.8C69.571 161.003 69.8537 161.285 70.0564 161.648C70.2697 162 70.3764 162.405 70.3764 162.864V162.896C70.3764 163.355 70.2697 163.765 70.0564 164.128C69.8537 164.48 69.571 164.763 69.2084 164.976C68.8564 165.179 68.451 165.28 67.9924 165.28H58.9684C58.5097 165.28 58.1044 165.179 57.7524 164.976C57.3897 164.763 57.107 164.48 56.9044 164.128C56.691 163.765 56.5844 163.355 56.5844 162.896V162.864ZM75.1625 162.864C75.1625 162.405 75.2692 162 75.4825 161.648C75.6852 161.285 75.9678 161.003 76.3305 160.8C76.6825 160.587 77.0878 160.48 77.5465 160.48H86.5705C87.0292 160.48 87.4345 160.587 87.7865 160.8C88.1492 161.003 88.4318 161.285 88.6345 161.648C88.8478 162 88.9545 162.405 88.9545 162.864V162.896C88.9545 163.355 88.8478 163.765 88.6345 164.128C88.4318 164.48 88.1492 164.763 87.7865 164.976C87.4345 165.179 87.0292 165.28 86.5705 165.28H77.5465C77.0878 165.28 76.6825 165.179 76.3305 164.976C75.9678 164.763 75.6852 164.48 75.4825 164.128C75.2692 163.765 75.1625 163.355 75.1625 162.896V162.864ZM84.1469 162.864C84.1469 162.405 84.2535 162 84.4669 161.648C84.6695 161.285 84.9522 161.003 85.3149 160.8C85.6669 160.587 86.0722 160.48 86.5309 160.48H95.5549C96.0135 160.48 96.4189 160.587 96.7709 160.8C97.1335 161.003 97.4162 161.285 97.6189 161.648C97.8322 162 97.9389 162.405 97.9389 162.864V162.896C97.9389 163.355 97.8322 163.765 97.6189 164.128C97.4162 164.48 97.1335 164.763 96.7709 164.976C96.4189 165.179 96.0135 165.28 95.5549 165.28H86.5309C86.0722 165.28 85.6669 165.179 85.3149 164.976C84.9522 164.763 84.6695 164.48 84.4669 164.128C84.2535 163.765 84.1469 163.355 84.1469 162.896V162.864ZM93.1312 162.864C93.1312 162.405 93.2379 162 93.4512 161.648C93.6539 161.285 93.9366 161.003 94.2992 160.8C94.6512 160.587 95.0566 160.48 95.5152 160.48H104.539C104.998 160.48 105.403 160.587 105.755 160.8C106.118 161.003 106.401 161.285 106.603 161.648C106.817 162 106.923 162.405 106.923 162.864V162.896C106.923 163.355 106.817 163.765 106.603 164.128C106.401 164.48 106.118 164.763 105.755 164.976C105.403 165.179 104.998 165.28 104.539 165.28H95.5152C95.0566 165.28 94.6512 165.179 94.2992 164.976C93.9366 164.763 93.6539 164.48 93.4512 164.128C93.2379 163.765 93.1312 163.355 93.1312 162.896V162.864ZM111.709 162.864C111.709 162.405 111.816 162 112.029 161.648C112.232 161.285 112.515 161.003 112.877 160.8C113.229 160.587 113.635 160.48 114.093 160.48H123.117C123.576 160.48 123.981 160.587 124.333 160.8C124.696 161.003 124.979 161.285 125.181 161.648C125.395 162 125.501 162.405 125.501 162.864V162.896C125.501 163.355 125.395 163.765 125.181 164.128C124.979 164.48 124.696 164.763 124.333 164.976C123.981 165.179 123.576 165.28 123.117 165.28H114.093C113.635 165.28 113.229 165.179 112.877 164.976C112.515 164.763 112.232 164.48 112.029 164.128C111.816 163.765 111.709 163.355 111.709 162.896V162.864ZM120.694 162.864C120.694 162.405 120.8 162 121.014 161.648C121.216 161.285 121.499 161.003 121.862 160.8C122.214 160.587 122.619 160.48 123.078 160.48H132.102C132.56 160.48 132.966 160.587 133.318 160.8C133.68 161.003 133.963 161.285 134.166 161.648C134.379 162 134.486 162.405 134.486 162.864V162.896C134.486 163.355 134.379 163.765 134.166 164.128C133.963 164.48 133.68 164.763 133.318 164.976C132.966 165.179 132.56 165.28 132.102 165.28H123.078C122.619 165.28 122.214 165.179 121.862 164.976C121.499 164.763 121.216 164.48 121.014 164.128C120.8 163.765 120.694 163.355 120.694 162.896V162.864ZM129.678 162.864C129.678 162.405 129.785 162 129.998 161.648C130.201 161.285 130.483 161.003 130.846 160.8C131.198 160.587 131.603 160.48 132.062 160.48H136.67C137.129 160.48 137.534 160.587 137.886 160.8C138.249 161.003 138.531 161.285 138.734 161.648C138.947 162 139.054 162.405 139.054 162.864V162.896C139.054 163.355 138.947 163.765 138.734 164.128C138.531 164.48 138.249 164.763 137.886 164.976C137.534 165.179 137.129 165.28 136.67 165.28H132.062C131.603 165.28 131.198 165.179 130.846 164.976C130.483 164.763 130.201 164.48 129.998 164.128C129.785 163.765 129.678 163.355 129.678 162.896V162.864ZM134.256 162.864C134.256 162.405 134.363 162 134.576 161.648C134.779 161.285 135.062 161.003 135.424 160.8C135.776 160.587 136.182 160.48 136.64 160.48H145.664C146.123 160.48 146.528 160.587 146.88 160.8C147.243 161.003 147.526 161.285 147.728 161.648C147.942 162 148.048 162.405 148.048 162.864V162.896C148.048 163.355 147.942 163.765 147.728 164.128C147.526 164.48 147.243 164.763 146.88 164.976C146.528 165.179 146.123 165.28 145.664 165.28H136.64C136.182 165.28 135.776 165.179 135.424 164.976C135.062 164.763 134.779 164.48 134.576 164.128C134.363 163.765 134.256 163.355 134.256 162.896V162.864ZM143.241 162.864C143.241 162.405 143.347 162 143.561 161.648C143.763 161.285 144.046 161.003 144.409 160.8C144.761 160.587 145.166 160.48 145.625 160.48H154.649C155.107 160.48 155.513 160.587 155.865 160.8C156.227 161.003 156.51 161.285 156.713 161.648C156.926 162 157.033 162.405 157.033 162.864V162.896C157.033 163.355 156.926 163.765 156.713 164.128C156.51 164.48 156.227 164.763 155.865 164.976C155.513 165.179 155.107 165.28 154.649 165.28H145.625C145.166 165.28 144.761 165.179 144.409 164.976C144.046 164.763 143.763 164.48 143.561 164.128C143.347 163.765 143.241 163.355 143.241 162.896V162.864ZM152.225 162.864C152.225 162.405 152.332 162 152.545 161.648C152.748 161.285 153.03 161.003 153.393 160.8C153.745 160.587 154.15 160.48 154.609 160.48H163.633C164.092 160.48 164.497 160.587 164.849 160.8C165.212 161.003 165.494 161.285 165.697 161.648C165.91 162 166.017 162.405 166.017 162.864V162.896C166.017 163.355 165.91 163.765 165.697 164.128C165.494 164.48 165.212 164.763 164.849 164.976C164.497 165.179 164.092 165.28 163.633 165.28H154.609C154.15 165.28 153.745 165.179 153.393 164.976C153.03 164.763 152.748 164.48 152.545 164.128C152.332 163.765 152.225 163.355 152.225 162.896V162.864ZM161.209 162.864C161.209 162.405 161.316 162 161.529 161.648C161.732 161.285 162.015 161.003 162.377 160.8C162.729 160.587 163.135 160.48 163.593 160.48H172.617C173.076 160.48 173.481 160.587 173.833 160.8C174.196 161.003 174.479 161.285 174.681 161.648C174.895 162 175.001 162.405 175.001 162.864V162.896C175.001 163.355 174.895 163.765 174.681 164.128C174.479 164.48 174.196 164.763 173.833 164.976C173.481 165.179 173.076 165.28 172.617 165.28H163.593C163.135 165.28 162.729 165.179 162.377 164.976C162.015 164.763 161.732 164.48 161.529 164.128C161.316 163.765 161.209 163.355 161.209 162.896V162.864ZM179.787 162.864C179.787 162.405 179.894 162 180.107 161.648C180.31 161.285 180.593 161.003 180.955 160.8C181.307 160.587 181.713 160.48 182.171 160.48H186.78C187.238 160.48 187.644 160.587 187.996 160.8C188.358 161.003 188.641 161.285 188.844 161.648C189.057 162 189.164 162.405 189.164 162.864V162.896C189.164 163.355 189.057 163.765 188.844 164.128C188.641 164.48 188.358 164.763 187.996 164.976C187.644 165.179 187.238 165.28 186.78 165.28H182.171C181.713 165.28 181.307 165.179 180.955 164.976C180.593 164.763 180.31 164.48 180.107 164.128C179.894 163.765 179.787 163.355 179.787 162.896V162.864ZM184.366 162.864C184.366 162.405 184.472 162 184.686 161.648C184.888 161.285 185.171 161.003 185.534 160.8C185.886 160.587 186.291 160.48 186.75 160.48H195.774C196.232 160.48 196.638 160.587 196.99 160.8C197.352 161.003 197.635 161.285 197.838 161.648C198.051 162 198.158 162.405 198.158 162.864V162.896C198.158 163.355 198.051 163.765 197.838 164.128C197.635 164.48 197.352 164.763 196.99 164.976C196.638 165.179 196.232 165.28 195.774 165.28H186.75C186.291 165.28 185.886 165.179 185.534 164.976C185.171 164.763 184.888 164.48 184.686 164.128C184.472 163.765 184.366 163.355 184.366 162.896V162.864ZM202.944 162.864C202.944 162.405 203.05 162 203.264 161.648C203.466 161.285 203.749 161.003 204.112 160.8C204.464 160.587 204.869 160.48 205.328 160.48H214.352C214.81 160.48 215.216 160.587 215.568 160.8C215.93 161.003 216.213 161.285 216.416 161.648C216.629 162 216.736 162.405 216.736 162.864V162.896C216.736 163.355 216.629 163.765 216.416 164.128C216.213 164.48 215.93 164.763 215.568 164.976C215.216 165.179 214.81 165.28 214.352 165.28H205.328C204.869 165.28 204.464 165.179 204.112 164.976C203.749 164.763 203.466 164.48 203.264 164.128C203.05 163.765 202.944 163.355 202.944 162.896V162.864ZM211.928 162.864C211.928 162.405 212.035 162 212.248 161.648C212.451 161.285 212.733 161.003 213.096 160.8C213.448 160.587 213.853 160.48 214.312 160.48H223.336C223.795 160.48 224.2 160.587 224.552 160.8C224.915 161.003 225.197 161.285 225.4 161.648C225.613 162 225.72 162.405 225.72 162.864V162.896C225.72 163.355 225.613 163.765 225.4 164.128C225.197 164.48 224.915 164.763 224.552 164.976C224.2 165.179 223.795 165.28 223.336 165.28H214.312C213.853 165.28 213.448 165.179 213.096 164.976C212.733 164.763 212.451 164.48 212.248 164.128C212.035 163.765 211.928 163.355 211.928 162.896V162.864ZM220.912 162.864C220.912 162.405 221.019 162 221.232 161.648C221.435 161.285 221.718 161.003 222.08 160.8C222.432 160.587 222.838 160.48 223.296 160.48H232.321C232.779 160.48 233.185 160.587 233.537 160.8C233.899 161.003 234.182 161.285 234.385 161.648C234.598 162 234.705 162.405 234.705 162.864V162.896C234.705 163.355 234.598 163.765 234.385 164.128C234.182 164.48 233.899 164.763 233.537 164.976C233.185 165.179 232.779 165.28 232.321 165.28H223.296C222.838 165.28 222.432 165.179 222.08 164.976C221.718 164.763 221.435 164.48 221.232 164.128C221.019 163.765 220.912 163.355 220.912 162.896V162.864ZM229.897 162.864C229.897 162.405 230.004 162 230.217 161.648C230.42 161.285 230.702 161.003 231.065 160.8C231.417 160.587 231.822 160.48 232.281 160.48H241.305C241.764 160.48 242.169 160.587 242.521 160.8C242.884 161.003 243.166 161.285 243.369 161.648C243.582 162 243.689 162.405 243.689 162.864V162.896C243.689 163.355 243.582 163.765 243.369 164.128C243.166 164.48 242.884 164.763 242.521 164.976C242.169 165.179 241.764 165.28 241.305 165.28H232.281C231.822 165.28 231.417 165.179 231.065 164.976C230.702 164.763 230.42 164.48 230.217 164.128C230.004 163.765 229.897 163.355 229.897 162.896V162.864ZM248.475 162.864C248.475 162.405 248.582 162 248.795 161.648C248.998 161.285 249.28 161.003 249.643 160.8C249.995 160.587 250.4 160.48 250.859 160.48H255.467C255.926 160.48 256.331 160.587 256.683 160.8C257.046 161.003 257.328 161.285 257.531 161.648C257.744 162 257.851 162.405 257.851 162.864V162.896C257.851 163.355 257.744 163.765 257.531 164.128C257.328 164.48 257.046 164.763 256.683 164.976C256.331 165.179 255.926 165.28 255.467 165.28H250.859C250.4 165.28 249.995 165.179 249.643 164.976C249.28 164.763 248.998 164.48 248.795 164.128C248.582 163.765 248.475 163.355 248.475 162.896V162.864ZM253.053 162.864C253.053 162.405 253.16 162 253.373 161.648C253.576 161.285 253.858 161.003 254.221 160.8C254.573 160.587 254.978 160.48 255.437 160.48H264.461C264.92 160.48 265.325 160.587 265.677 160.8C266.04 161.003 266.322 161.285 266.525 161.648C266.738 162 266.845 162.405 266.845 162.864V162.896C266.845 163.355 266.738 163.765 266.525 164.128C266.322 164.48 266.04 164.763 265.677 164.976C265.325 165.179 264.92 165.28 264.461 165.28H255.437C254.978 165.28 254.573 165.179 254.221 164.976C253.858 164.763 253.576 164.48 253.373 164.128C253.16 163.765 253.053 163.355 253.053 162.896V162.864ZM47.6 181.864C47.6 181.405 47.7067 181 47.92 180.648C48.1227 180.285 48.4053 180.003 48.768 179.8C49.12 179.587 49.5253 179.48 49.984 179.48H54.592C55.0507 179.48 55.456 179.587 55.808 179.8C56.1707 180.003 56.4533 180.285 56.656 180.648C56.8693 181 56.976 181.405 56.976 181.864V181.896C56.976 182.355 56.8693 182.765 56.656 183.128C56.4533 183.48 56.1707 183.763 55.808 183.976C55.456 184.179 55.0507 184.28 54.592 184.28H49.984C49.5253 184.28 49.12 184.179 48.768 183.976C48.4053 183.763 48.1227 183.48 47.92 183.128C47.7067 182.765 47.6 182.355 47.6 181.896V181.864ZM52.1781 181.864C52.1781 181.405 52.2848 181 52.4981 180.648C52.7008 180.285 52.9835 180.003 53.3461 179.8C53.6981 179.587 54.1035 179.48 54.5621 179.48H63.5861C64.0448 179.48 64.4501 179.587 64.8021 179.8C65.1648 180.003 65.4475 180.285 65.6501 180.648C65.8635 181 65.9701 181.405 65.9701 181.864V181.896C65.9701 182.355 65.8635 182.765 65.6501 183.128C65.4475 183.48 65.1648 183.763 64.8021 183.976C64.4501 184.179 64.0448 184.28 63.5861 184.28H54.5621C54.1035 184.28 53.6981 184.179 53.3461 183.976C52.9835 183.763 52.7008 183.48 52.4981 183.128C52.2848 182.765 52.1781 182.355 52.1781 181.896V181.864ZM61.1625 181.864C61.1625 181.405 61.2692 181 61.4825 180.648C61.6852 180.285 61.9678 180.003 62.3305 179.8C62.6825 179.587 63.0878 179.48 63.5465 179.48H68.1545C68.6132 179.48 69.0185 179.587 69.3705 179.8C69.7332 180.003 70.0158 180.285 70.2185 180.648C70.4318 181 70.5385 181.405 70.5385 181.864V181.896C70.5385 182.355 70.4318 182.765 70.2185 183.128C70.0158 183.48 69.7332 183.763 69.3705 183.976C69.0185 184.179 68.6132 184.28 68.1545 184.28H63.5465C63.0878 184.28 62.6825 184.179 62.3305 183.976C61.9678 183.763 61.6852 183.48 61.4825 183.128C61.2692 182.765 61.1625 182.355 61.1625 181.896V181.864ZM65.7406 181.864C65.7406 181.405 65.8473 181 66.0606 180.648C66.2633 180.285 66.546 180.003 66.9086 179.8C67.2606 179.587 67.666 179.48 68.1246 179.48H77.1486C77.6073 179.48 78.0126 179.587 78.3646 179.8C78.7273 180.003 79.01 180.285 79.2126 180.648C79.426 181 79.5326 181.405 79.5326 181.864V181.896C79.5326 182.355 79.426 182.765 79.2126 183.128C79.01 183.48 78.7273 183.763 78.3646 183.976C78.0126 184.179 77.6073 184.28 77.1486 184.28H68.1246C67.666 184.28 67.2606 184.179 66.9086 183.976C66.546 183.763 66.2633 183.48 66.0606 183.128C65.8473 182.765 65.7406 182.355 65.7406 181.896V181.864ZM84.3187 181.864C84.3187 181.405 84.4254 181 84.6387 180.648C84.8414 180.285 85.1241 180.003 85.4867 179.8C85.8387 179.587 86.2441 179.48 86.7027 179.48H95.7268C96.1854 179.48 96.5908 179.587 96.9428 179.8C97.3054 180.003 97.5881 180.285 97.7908 180.648C98.0041 181 98.1108 181.405 98.1108 181.864V181.896C98.1108 182.355 98.0041 182.765 97.7908 183.128C97.5881 183.48 97.3054 183.763 96.9428 183.976C96.5908 184.179 96.1854 184.28 95.7268 184.28H86.7027C86.2441 184.28 85.8387 184.179 85.4867 183.976C85.1241 183.763 84.8414 183.48 84.6387 183.128C84.4254 182.765 84.3187 182.355 84.3187 181.896V181.864ZM93.3031 181.864C93.3031 181.405 93.4098 181 93.6231 180.648C93.8258 180.285 94.1085 180.003 94.4711 179.8C94.8231 179.587 95.2285 179.48 95.6871 179.48H104.711C105.17 179.48 105.575 179.587 105.927 179.8C106.29 180.003 106.572 180.285 106.775 180.648C106.988 181 107.095 181.405 107.095 181.864V181.896C107.095 182.355 106.988 182.765 106.775 183.128C106.572 183.48 106.29 183.763 105.927 183.976C105.575 184.179 105.17 184.28 104.711 184.28H95.6871C95.2285 184.28 94.8231 184.179 94.4711 183.976C94.1085 183.763 93.8258 183.48 93.6231 183.128C93.4098 182.765 93.3031 182.355 93.3031 181.896V181.864ZM102.287 181.864C102.287 181.405 102.394 181 102.607 180.648C102.81 180.285 103.093 180.003 103.455 179.8C103.807 179.587 104.213 179.48 104.671 179.48H113.696C114.154 179.48 114.56 179.587 114.912 179.8C115.274 180.003 115.557 180.285 115.76 180.648C115.973 181 116.08 181.405 116.08 181.864V181.896C116.08 182.355 115.973 182.765 115.76 183.128C115.557 183.48 115.274 183.763 114.912 183.976C114.56 184.179 114.154 184.28 113.696 184.28H104.671C104.213 184.28 103.807 184.179 103.455 183.976C103.093 183.763 102.81 183.48 102.607 183.128C102.394 182.765 102.287 182.355 102.287 181.896V181.864ZM120.866 181.864C120.866 181.405 120.972 181 121.186 180.648C121.388 180.285 121.671 180.003 122.034 179.8C122.386 179.587 122.791 179.48 123.25 179.48H132.274C132.732 179.48 133.138 179.587 133.49 179.8C133.852 180.003 134.135 180.285 134.338 180.648C134.551 181 134.658 181.405 134.658 181.864V181.896C134.658 182.355 134.551 182.765 134.338 183.128C134.135 183.48 133.852 183.763 133.49 183.976C133.138 184.179 132.732 184.28 132.274 184.28H123.25C122.791 184.28 122.386 184.179 122.034 183.976C121.671 183.763 121.388 183.48 121.186 183.128C120.972 182.765 120.866 182.355 120.866 181.896V181.864ZM129.85 181.864C129.85 181.405 129.957 181 130.17 180.648C130.373 180.285 130.655 180.003 131.018 179.8C131.37 179.587 131.775 179.48 132.234 179.48H141.258C141.717 179.48 142.122 179.587 142.474 179.8C142.837 180.003 143.119 180.285 143.322 180.648C143.535 181 143.642 181.405 143.642 181.864V181.896C143.642 182.355 143.535 182.765 143.322 183.128C143.119 183.48 142.837 183.763 142.474 183.976C142.122 184.179 141.717 184.28 141.258 184.28H132.234C131.775 184.28 131.37 184.179 131.018 183.976C130.655 183.763 130.373 183.48 130.17 183.128C129.957 182.765 129.85 182.355 129.85 181.896V181.864ZM138.834 181.864C138.834 181.405 138.941 181 139.154 180.648C139.357 180.285 139.64 180.003 140.002 179.8C140.354 179.587 140.76 179.48 141.218 179.48H145.826C146.285 179.48 146.69 179.587 147.042 179.8C147.405 180.003 147.688 180.285 147.89 180.648C148.104 181 148.21 181.405 148.21 181.864V181.896C148.21 182.355 148.104 182.765 147.89 183.128C147.688 183.48 147.405 183.763 147.042 183.976C146.69 184.179 146.285 184.28 145.826 184.28H141.218C140.76 184.28 140.354 184.179 140.002 183.976C139.64 183.763 139.357 183.48 139.154 183.128C138.941 182.765 138.834 182.355 138.834 181.896V181.864ZM143.412 181.864C143.412 181.405 143.519 181 143.732 180.648C143.935 180.285 144.218 180.003 144.58 179.8C144.932 179.587 145.338 179.48 145.796 179.48H150.405C150.863 179.48 151.269 179.587 151.621 179.8C151.983 180.003 152.266 180.285 152.469 180.648C152.682 181 152.789 181.405 152.789 181.864V181.896C152.789 182.355 152.682 182.765 152.469 183.128C152.266 183.48 151.983 183.763 151.621 183.976C151.269 184.179 150.863 184.28 150.405 184.28H145.796C145.338 184.28 144.932 184.179 144.58 183.976C144.218 183.763 143.935 183.48 143.732 183.128C143.519 182.765 143.412 182.355 143.412 181.896V181.864ZM147.991 181.864C147.991 181.405 148.097 181 148.311 180.648C148.513 180.285 148.796 180.003 149.159 179.8C149.511 179.587 149.916 179.48 150.375 179.48H159.399C159.857 179.48 160.263 179.587 160.615 179.8C160.977 180.003 161.26 180.285 161.463 180.648C161.676 181 161.783 181.405 161.783 181.864V181.896C161.783 182.355 161.676 182.765 161.463 183.128C161.26 183.48 160.977 183.763 160.615 183.976C160.263 184.179 159.857 184.28 159.399 184.28H150.375C149.916 184.28 149.511 184.179 149.159 183.976C148.796 183.763 148.513 183.48 148.311 183.128C148.097 182.765 147.991 182.355 147.991 181.896V181.864ZM166.569 181.864C166.569 181.405 166.675 181 166.889 180.648C167.091 180.285 167.374 180.003 167.737 179.8C168.089 179.587 168.494 179.48 168.953 179.48H177.977C178.435 179.48 178.841 179.587 179.193 179.8C179.555 180.003 179.838 180.285 180.041 180.648C180.254 181 180.361 181.405 180.361 181.864V181.896C180.361 182.355 180.254 182.765 180.041 183.128C179.838 183.48 179.555 183.763 179.193 183.976C178.841 184.179 178.435 184.28 177.977 184.28H168.953C168.494 184.28 168.089 184.179 167.737 183.976C167.374 183.763 167.091 183.48 166.889 183.128C166.675 182.765 166.569 182.355 166.569 181.896V181.864ZM175.553 181.864C175.553 181.405 175.66 181 175.873 180.648C176.076 180.285 176.358 180.003 176.721 179.8C177.073 179.587 177.478 179.48 177.937 179.48H182.545C183.004 179.48 183.409 179.587 183.761 179.8C184.124 180.003 184.406 180.285 184.609 180.648C184.822 181 184.929 181.405 184.929 181.864V181.896C184.929 182.355 184.822 182.765 184.609 183.128C184.406 183.48 184.124 183.763 183.761 183.976C183.409 184.179 183.004 184.28 182.545 184.28H177.937C177.478 184.28 177.073 184.179 176.721 183.976C176.358 183.763 176.076 183.48 175.873 183.128C175.66 182.765 175.553 182.355 175.553 181.896V181.864ZM180.131 181.864C180.131 181.405 180.238 181 180.451 180.648C180.654 180.285 180.937 180.003 181.299 179.8C181.651 179.587 182.057 179.48 182.515 179.48H187.123C187.582 179.48 187.987 179.587 188.339 179.8C188.702 180.003 188.985 180.285 189.187 180.648C189.401 181 189.507 181.405 189.507 181.864V181.896C189.507 182.355 189.401 182.765 189.187 183.128C188.985 183.48 188.702 183.763 188.339 183.976C187.987 184.179 187.582 184.28 187.123 184.28H182.515C182.057 184.28 181.651 184.179 181.299 183.976C180.937 183.763 180.654 183.48 180.451 183.128C180.238 182.765 180.131 182.355 180.131 181.896V181.864ZM184.709 181.864C184.709 181.405 184.816 181 185.029 180.648C185.232 180.285 185.515 180.003 185.877 179.8C186.229 179.587 186.635 179.48 187.093 179.48H196.117C196.576 179.48 196.981 179.587 197.333 179.8C197.696 180.003 197.979 180.285 198.181 180.648C198.395 181 198.501 181.405 198.501 181.864V181.896C198.501 182.355 198.395 182.765 198.181 183.128C197.979 183.48 197.696 183.763 197.333 183.976C196.981 184.179 196.576 184.28 196.117 184.28H187.093C186.635 184.28 186.229 184.179 185.877 183.976C185.515 183.763 185.232 183.48 185.029 183.128C184.816 182.765 184.709 182.355 184.709 181.896V181.864ZM203.287 181.864C203.287 181.405 203.394 181 203.607 180.648C203.81 180.285 204.093 180.003 204.455 179.8C204.807 179.587 205.213 179.48 205.671 179.48H210.28C210.738 179.48 211.144 179.587 211.496 179.8C211.858 180.003 212.141 180.285 212.344 180.648C212.557 181 212.664 181.405 212.664 181.864V181.896C212.664 182.355 212.557 182.765 212.344 183.128C212.141 183.48 211.858 183.763 211.496 183.976C211.144 184.179 210.738 184.28 210.28 184.28H205.671C205.213 184.28 204.807 184.179 204.455 183.976C204.093 183.763 203.81 183.48 203.607 183.128C203.394 182.765 203.287 182.355 203.287 181.896V181.864ZM207.866 181.864C207.866 181.405 207.972 181 208.186 180.648C208.388 180.285 208.671 180.003 209.034 179.8C209.386 179.587 209.791 179.48 210.25 179.48H219.274C219.732 179.48 220.138 179.587 220.49 179.8C220.852 180.003 221.135 180.285 221.338 180.648C221.551 181 221.658 181.405 221.658 181.864V181.896C221.658 182.355 221.551 182.765 221.338 183.128C221.135 183.48 220.852 183.763 220.49 183.976C220.138 184.179 219.732 184.28 219.274 184.28H210.25C209.791 184.28 209.386 184.179 209.034 183.976C208.671 183.763 208.388 183.48 208.186 183.128C207.972 182.765 207.866 182.355 207.866 181.896V181.864ZM216.85 181.864C216.85 181.405 216.957 181 217.17 180.648C217.373 180.285 217.655 180.003 218.018 179.8C218.37 179.587 218.775 179.48 219.234 179.48H223.842C224.301 179.48 224.706 179.587 225.058 179.8C225.421 180.003 225.703 180.285 225.906 180.648C226.119 181 226.226 181.405 226.226 181.864V181.896C226.226 182.355 226.119 182.765 225.906 183.128C225.703 183.48 225.421 183.763 225.058 183.976C224.706 184.179 224.301 184.28 223.842 184.28H219.234C218.775 184.28 218.37 184.179 218.018 183.976C217.655 183.763 217.373 183.48 217.17 183.128C216.957 182.765 216.85 182.355 216.85 181.896V181.864ZM221.428 181.864C221.428 181.405 221.535 181 221.748 180.648C221.951 180.285 222.233 180.003 222.596 179.8C222.948 179.587 223.353 179.48 223.812 179.48H232.836C233.295 179.48 233.7 179.587 234.052 179.8C234.415 180.003 234.697 180.285 234.9 180.648C235.113 181 235.22 181.405 235.22 181.864V181.896C235.22 182.355 235.113 182.765 234.9 183.128C234.697 183.48 234.415 183.763 234.052 183.976C233.7 184.179 233.295 184.28 232.836 184.28H223.812C223.353 184.28 222.948 184.179 222.596 183.976C222.233 183.763 221.951 183.48 221.748 183.128C221.535 182.765 221.428 182.355 221.428 181.896V181.864Z" fill="#FFF8F0"/>
</svg>
