<svg width="440" height="120" viewBox="0 0 440 120" fill="none" xmlns="http://www.w3.org/2000/svg">
<g clip-path="url(#clip0_923_6054)">
<g filter="url(#filter0_d_923_6054)">
<path d="M187.425 52.7503C183.865 52.7503 180.754 52.2422 178.093 51.226C175.472 50.1708 173.046 48.5097 170.816 46.2427L178.152 38.9146C179.678 40.3605 181.282 41.4746 182.965 42.2562C184.647 42.9989 186.447 43.3703 188.364 43.3703C189.968 43.3703 191.181 43.1357 192.002 42.6665C192.824 42.1584 193.235 41.4746 193.235 40.6146C193.235 39.7546 192.883 39.0514 192.179 38.5043C191.474 37.9178 190.535 37.4097 189.362 36.98C188.227 36.5108 186.955 36.0416 185.547 35.573C184.177 35.1038 182.808 34.5373 181.439 33.873C180.07 33.2081 178.798 32.407 177.624 31.4692C176.49 30.4919 175.57 29.3 174.866 27.893C174.162 26.447 173.809 24.6881 173.809 22.6168C173.809 19.92 174.455 17.5946 175.746 15.6405C177.037 13.686 178.856 12.2011 181.204 11.1849C183.552 10.1297 186.31 9.60217 189.479 9.60217C192.609 9.60217 195.505 10.1103 198.165 11.126C200.864 12.1033 203.095 13.5103 204.855 15.347L197.461 22.6751C196.17 21.4249 194.879 20.506 193.587 19.92C192.296 19.2946 190.888 18.9822 189.362 18.9822C188.149 18.9822 187.171 19.1773 186.427 19.5681C185.723 19.9589 185.371 20.5454 185.371 21.327C185.371 22.1476 185.723 22.8319 186.427 23.3789C187.131 23.887 188.051 24.3557 189.185 24.786C190.36 25.2157 191.631 25.6654 193 26.1341C194.409 26.6033 195.798 27.1697 197.167 27.8346C198.537 28.4595 199.789 29.2805 200.923 30.2968C202.097 31.2735 203.036 32.5049 203.74 33.9897C204.444 35.4751 204.797 37.273 204.797 39.3838C204.797 43.6438 203.271 46.9459 200.219 49.2914C197.206 51.5973 192.942 52.7503 187.425 52.7503ZM209.69 52.0465V10.3054H218.2L233.752 33.0519H230.055L245.548 10.3054H254.058V52.0465H242.438V29.5346L244.14 30.0032L235.63 42.1973H228.118L219.667 30.0032L221.31 29.5346V52.0465H209.69ZM260.985 52.0465V10.3054H272.722V52.0465H260.985ZM289.646 52.0465V10.3054H301.383V52.0465H289.646ZM277.145 20.2719V10.3054H313.943V20.2719H277.145ZM318.355 52.0465V10.3054H330.093V52.0465H318.355ZM343.591 52.0465V10.3054H355.328V52.0465H343.591ZM324.752 35.6314V25.8995H348.169V35.6314H324.752ZM362.256 52.0465V10.3054H373.994V52.0465H362.256ZM371.764 52.0465V42.3146H394.183V52.0465H371.764ZM371.764 35.5141V26.0168H392.012V35.5141H371.764ZM371.764 20.0373V10.3054H393.831V20.0373H371.764ZM407.604 52.0465V42.0805H417.345C419.536 42.0805 421.434 41.6892 423.039 40.9076C424.642 40.087 425.875 38.8557 426.736 37.2146C427.596 35.573 428.027 33.5405 428.027 31.1173C428.027 28.6941 427.577 26.6816 426.677 25.0789C425.816 23.4768 424.584 22.2843 422.98 21.5027C421.415 20.6822 419.536 20.2719 417.345 20.2719H407.016V10.3054H417.345C420.632 10.3054 423.645 10.7941 426.384 11.7708C429.161 12.7481 431.568 14.1551 433.602 15.9919C435.637 17.8292 437.202 20.0373 438.297 22.6168C439.432 25.1573 440 28.0103 440 31.1762C440 34.3416 439.432 37.2146 438.297 39.7941C437.202 42.3341 435.637 44.5233 433.602 46.36C431.568 48.1968 429.181 49.6038 426.442 50.5811C423.704 51.5578 420.711 52.0465 417.463 52.0465H407.604ZM399.739 52.0465V10.3054H411.477V52.0465H399.739Z" fill="#BFDCF8"/>
</g>
<g filter="url(#filter1_d_923_6054)">
<path d="M187.745 111.181C183.926 111.181 180.631 110.466 177.862 109.035C175.093 107.556 172.658 105.505 170.557 102.882L174.21 99.3054C175.881 101.642 177.814 103.383 180.011 104.528C182.255 105.672 184.905 106.245 187.96 106.245C191.112 106.245 193.666 105.529 195.624 104.098C197.581 102.668 198.56 100.688 198.56 98.1605C198.56 96.2048 198.107 94.607 197.199 93.367C196.292 92.0794 195.099 91.054 193.618 90.2908C192.186 89.48 190.586 88.7648 188.82 88.1443C187.053 87.5243 185.287 86.8805 183.52 86.213C181.801 85.4973 180.202 84.6151 178.722 83.5659C177.241 82.5167 176.048 81.1811 175.14 79.5594C174.281 77.9378 173.852 75.8632 173.852 73.3351C173.852 70.6643 174.496 68.3751 175.785 66.467C177.074 64.5594 178.841 63.1049 181.085 62.1032C183.329 61.0535 185.883 60.5292 188.748 60.5292C191.947 60.5292 194.788 61.1492 197.271 62.3892C199.802 63.6292 201.902 65.2984 203.574 67.3973L199.993 70.9746C198.465 69.1621 196.794 67.7789 194.979 66.8249C193.165 65.8708 191.04 65.394 188.605 65.394C185.74 65.394 183.448 66.0616 181.73 67.3973C180.011 68.7324 179.151 70.593 179.151 72.9773C179.151 74.8378 179.581 76.34 180.44 77.4848C181.348 78.6292 182.541 79.5832 184.021 80.3465C185.501 81.1097 187.101 81.8011 188.82 82.4211C190.586 82.9935 192.353 83.6373 194.12 84.353C195.887 85.0681 197.486 85.9746 198.919 87.0713C200.398 88.1686 201.592 89.5757 202.499 91.2924C203.407 92.9616 203.86 95.1081 203.86 97.7313C203.86 101.976 202.404 105.291 199.491 107.676C196.626 110.013 192.711 111.181 187.745 111.181ZM232.61 111.181C229.029 111.181 225.83 110.394 223.013 108.821C220.244 107.199 218.048 105.005 216.424 102.238C214.801 99.4243 213.989 96.2767 213.989 92.7946V61.2443H219.289V92.5086C219.289 95.2751 219.862 97.6838 221.008 99.7346C222.154 101.785 223.73 103.359 225.735 104.456C227.788 105.553 230.08 106.102 232.61 106.102C235.141 106.102 237.385 105.553 239.343 104.456C241.348 103.359 242.924 101.809 244.069 99.8059C245.263 97.7551 245.86 95.3465 245.86 92.58V61.2443H251.088V92.8665C251.088 96.3481 250.277 99.4719 248.653 102.238C247.077 105.005 244.881 107.199 242.064 108.821C239.295 110.394 236.143 111.181 232.61 111.181ZM263.033 110.466V61.2443H266.757L288.029 96.0859H285.378L306.65 61.2443H310.374V110.466H305.074V70.4021L306.291 70.6881L288.53 99.8059H284.806L267.044 70.6881L268.261 70.4021V110.466H263.033ZM322.903 110.466V61.2443H326.627L347.898 96.0859H345.248L366.519 61.2443H370.243V110.466H364.943V70.4021L366.161 70.6881L348.399 99.8059H344.675L326.913 70.6881L328.131 70.4021V110.466H322.903ZM382.772 110.466V61.2443H388V110.466H382.772ZM414.287 110.466V62.6038H419.586V110.466H414.287ZM396.954 66.0378V61.2443H436.918V66.0378H396.954Z" fill="#BFDCF8"/>
</g>
<g filter="url(#filter2_d_923_6054)">
<path fill-rule="evenodd" clip-rule="evenodd" d="M85.3095 88.2957L70.6911 74.1844L60.7139 91.2303L61.4871 92.8449L45.0127 83.2833L50.0402 74.4784L34.0744 58.4541L3.24609 111.351H52.1766L85.3095 88.2957Z" fill="#BFDCF8"/>
<path fill-rule="evenodd" clip-rule="evenodd" d="M81.1846 21.992L89.1099 5.55664L94.513 6.63615C100.141 19.8606 104.383 24.7104 116.092 23.6001C124.846 22.8082 130.089 24.0109 140.301 30.4001C129.841 39.0606 127.138 46.4493 128.545 62.3936L126.224 64.5136C122.655 61.6244 115.177 56.8931 105.264 57.7601C104.166 57.8563 103.098 57.8698 102.061 57.8136C89.7765 57.1482 81.9194 46.6563 81.9194 46.6563L79.8945 44.6514L57.6966 84.7082L52.4082 81.6639L81.1846 21.992ZM142.313 28.7914L145.561 31.1574C145.561 31.1574 144.368 30.1525 142.313 28.7914ZM99.3084 21.5558L93.1207 35.5125C93.1207 35.5125 93.842 36.1471 95.441 36.8552C97.5822 37.8033 101.298 38.8839 106.966 38.7514C116.866 38.5201 118.335 41.7585 118.335 41.7585C118.335 41.7585 120.226 36.9023 121.043 34.125C121.9 31.2109 124.6 27.2617 124.6 27.2617C124.6 27.2617 121.661 25.8741 115.86 26.5682C110.059 27.2617 105.496 25.9509 102.402 23.8693C102.034 23.6212 101.71 23.4001 101.424 23.2017C99.3084 21.7352 99.3084 21.5558 99.3084 21.5558ZM98.717 44.3385L100.236 41.1001C100.236 41.1001 100.722 41.3282 101.938 41.4374C102.722 41.5082 103.809 41.5293 105.264 41.4087C108.977 41.1001 109.778 42.2082 109.778 42.2082L108.772 45.6779C108.772 45.6779 107.457 44.5968 103.745 44.9839C102.276 45.1374 101.124 45.0293 100.295 44.8612C99.2478 44.6482 98.717 44.3385 98.717 44.3385ZM93.4578 44.6363L90.8279 49.9568C90.8279 49.9568 91.6991 50.4493 92.8111 50.9817C93.5492 51.3347 94.3928 51.7055 95.1591 51.9617C97.6358 52.7904 98.8295 52.8914 101.424 53.1958C104.034 53.5012 105.244 53.0444 107.844 53.4271C108.667 53.5477 110.938 54.0439 110.938 54.0439L113.181 49.2628C113.181 49.2628 107.805 47.3352 103.049 47.6439C100.085 47.8358 97.0909 46.6212 95.2549 45.6779C94.1445 45.1077 93.4578 44.6363 93.4578 44.6363Z" fill="#BFDCF8"/>
<path fill-rule="evenodd" clip-rule="evenodd" d="M74.9455 64.9314L80.6164 55.1384C88.0206 61.9027 92.2544 64.1541 100.023 64.16L127.352 111.351H68.1387L98.9995 88.9125L74.9455 64.9314Z" fill="#BFDCF8"/>
<path fill-rule="evenodd" clip-rule="evenodd" d="M105.529 64.16H100.023L127.352 111.351H133.032L105.529 64.16Z" fill="#89BBEA"/>
<path fill-rule="evenodd" clip-rule="evenodd" d="M81.9201 46.6562L59.8125 86.0595L57.6973 84.7081L79.8952 44.6514L81.9201 46.6562Z" fill="#89BBEA"/>
<path fill-rule="evenodd" clip-rule="evenodd" d="M143.163 32.6065L140.301 30.4C129.841 39.0606 127.138 46.4492 128.545 62.3935L126.225 64.5135C127.734 65.7352 128.313 66.6276 128.313 66.6276L131.871 63.7746C130.438 48.0946 132.138 40.3681 143.163 32.6065Z" fill="#89BBEA"/>
<path fill-rule="evenodd" clip-rule="evenodd" d="M45.0117 59.3795L63.5625 18.5109L67.1323 35.8606L53.2103 67.553L45.0117 59.3795Z" fill="#BFDCF8"/>
<path fill-rule="evenodd" clip-rule="evenodd" d="M67.1329 35.8606L53.2109 67.553L55.067 69.4038L70.3813 35.8606H67.1329Z" fill="#89BBEA"/>
<path fill-rule="evenodd" clip-rule="evenodd" d="M46.9062 83.2833L60.7129 91.2304L61.4862 92.8449L45.0117 83.2833H46.9062Z" fill="#EBF4FD"/>
<path fill-rule="evenodd" clip-rule="evenodd" d="M52.1764 74.1843L51.283 75.7265L50.04 74.4784L34.0742 58.4541L34.9281 56.9886L52.1764 74.1843Z" fill="#EBF4FD"/>
<path fill-rule="evenodd" clip-rule="evenodd" d="M67.1323 35.8606L63.5625 18.5109L65.6626 13.8844L70.3806 35.8606H67.1323Z" fill="#EBF4FD"/>
<path fill-rule="evenodd" clip-rule="evenodd" d="M85.3098 88.2958L70.6914 74.1844L72.2823 71.2542L89.9943 88.9125L85.3098 88.2958Z" fill="#EBF4FD"/>
<path fill-rule="evenodd" clip-rule="evenodd" d="M52.1758 111.351L85.3087 88.2958L89.9932 88.9125L57.4642 111.351H52.1758Z" fill="#89BBEA"/>
<path fill-rule="evenodd" clip-rule="evenodd" d="M80.6172 55.1384C88.0214 61.9027 92.2551 64.1541 100.023 64.16H105.529L104.541 62.4638C102.5 62.5271 100.668 62.5081 99.0002 62.3935C91.2795 61.8622 87.0495 59.2762 81.6892 53.2876L80.6172 55.1384Z" fill="#EBF4FD"/>
<path fill-rule="evenodd" clip-rule="evenodd" d="M51.2822 75.7265L46.9062 83.2833H45.0117L50.0393 74.4784L51.2822 75.7265Z" fill="#89BBEA"/>
<path fill-rule="evenodd" clip-rule="evenodd" d="M89.1113 5.55658L94.5144 6.6361C100.142 19.8606 104.385 24.7103 116.094 23.6C124.847 22.8082 130.091 24.0109 140.303 30.4L143.165 32.6065C143.85 32.1244 144.804 31.6417 145.562 31.1573L142.314 28.7914C137.211 25.4125 126.558 19.8373 115.862 21.9811C100.857 24.9882 95.1335 4.3228 95.1335 4.3228L89.995 3.24329L89.1113 5.55658Z" fill="#EBF4FD"/>
<path fill-rule="evenodd" clip-rule="evenodd" d="M90.8281 49.9568L93.458 44.6362C93.458 44.6362 94.1447 45.1076 95.2551 45.6779L92.8113 50.9816C91.6993 50.4492 90.8281 49.9568 90.8281 49.9568Z" fill="#89BBEA"/>
<path fill-rule="evenodd" clip-rule="evenodd" d="M98.7168 44.3385L100.236 41.1001C100.236 41.1001 100.722 41.3282 101.938 41.4374L100.295 44.8612C99.2476 44.6482 98.7168 44.3385 98.7168 44.3385Z" fill="#89BBEA"/>
<path fill-rule="evenodd" clip-rule="evenodd" d="M93.1211 35.5124L99.3088 21.5557C99.3088 21.5557 99.3088 21.7351 101.425 23.2016L95.4414 36.8551C93.8424 36.147 93.1211 35.5124 93.1211 35.5124Z" fill="#89BBEA"/>
</g>
</g>
<defs>
<filter id="filter0_d_923_6054" x="170.816" y="9.60217" width="269.184" height="51.1481" filterUnits="userSpaceOnUse" color-interpolation-filters="sRGB">
<feFlood flood-opacity="0" result="BackgroundImageFix"/>
<feColorMatrix in="SourceAlpha" type="matrix" values="0 0 0 0 0 0 0 0 0 0 0 0 0 0 0 0 0 0 127 0" result="hardAlpha"/>
<feOffset dy="8"/>
<feComposite in2="hardAlpha" operator="out"/>
<feColorMatrix type="matrix" values="0 0 0 0 0 0 0 0 0 0 0 0 0 0 0 0 0 0 0.25 0"/>
<feBlend mode="normal" in2="BackgroundImageFix" result="effect1_dropShadow_923_6054"/>
<feBlend mode="normal" in="SourceGraphic" in2="effect1_dropShadow_923_6054" result="shape"/>
</filter>
<filter id="filter1_d_923_6054" x="170.557" y="60.5292" width="266.361" height="58.6519" filterUnits="userSpaceOnUse" color-interpolation-filters="sRGB">
<feFlood flood-opacity="0" result="BackgroundImageFix"/>
<feColorMatrix in="SourceAlpha" type="matrix" values="0 0 0 0 0 0 0 0 0 0 0 0 0 0 0 0 0 0 127 0" result="hardAlpha"/>
<feOffset dy="8"/>
<feComposite in2="hardAlpha" operator="out"/>
<feColorMatrix type="matrix" values="0 0 0 0 0 0 0 0 0 0 0 0 0 0 0 0 0 0 0.25 0"/>
<feBlend mode="normal" in2="BackgroundImageFix" result="effect1_dropShadow_923_6054"/>
<feBlend mode="normal" in="SourceGraphic" in2="effect1_dropShadow_923_6054" result="shape"/>
</filter>
<filter id="filter2_d_923_6054" x="-2.75391" y="-2.75671" width="164.316" height="130.108" filterUnits="userSpaceOnUse" color-interpolation-filters="sRGB">
<feFlood flood-opacity="0" result="BackgroundImageFix"/>
<feColorMatrix in="SourceAlpha" type="matrix" values="0 0 0 0 0 0 0 0 0 0 0 0 0 0 0 0 0 0 127 0" result="hardAlpha"/>
<feOffset dx="5" dy="5"/>
<feGaussianBlur stdDeviation="5.5"/>
<feComposite in2="hardAlpha" operator="out"/>
<feColorMatrix type="matrix" values="0 0 0 0 0 0 0 0 0 0 0 0 0 0 0 0 0 0 0.1 0"/>
<feBlend mode="normal" in2="BackgroundImageFix" result="effect1_dropShadow_923_6054"/>
<feBlend mode="normal" in="SourceGraphic" in2="effect1_dropShadow_923_6054" result="shape"/>
</filter>
<clipPath id="clip0_923_6054">
<rect width="440" height="120" fill="white"/>
</clipPath>
</defs>
</svg>
