<svg width="281" height="116" viewBox="0 0 281 116" fill="none" xmlns="http://www.w3.org/2000/svg">
<path d="M153.973 35.576C155.925 36.12 157.461 37.112 158.581 38.552C159.701 39.96 160.261 41.752 160.261 43.928C160.261 46.84 159.157 49.08 156.949 50.648C154.773 52.216 151.589 53 147.397 53H131.365V19.4H146.437C150.277 19.4 153.237 20.168 155.317 21.704C157.429 23.24 158.485 25.368 158.485 28.088C158.485 29.848 158.069 31.368 157.237 32.648C156.437 33.928 155.349 34.904 153.973 35.576ZM136.165 23.288V34.04H146.005C148.469 34.04 150.357 33.592 151.669 32.696C153.013 31.768 153.685 30.424 153.685 28.664C153.685 26.904 153.013 25.576 151.669 24.68C150.357 23.752 148.469 23.288 146.005 23.288H136.165ZM147.205 49.112C149.925 49.112 151.973 48.664 153.349 47.768C154.725 46.872 155.413 45.464 155.413 43.544C155.413 39.8 152.677 37.928 147.205 37.928H136.165V49.112H147.205ZM165.101 17.384H169.709V53H165.101V17.384ZM187.483 53.288C184.955 53.288 182.683 52.728 180.667 51.608C178.651 50.488 177.067 48.952 175.915 47C174.795 45.016 174.235 42.776 174.235 40.28C174.235 37.784 174.795 35.56 175.915 33.608C177.067 31.624 178.651 30.088 180.667 29C182.683 27.88 184.955 27.32 187.483 27.32C190.011 27.32 192.267 27.88 194.251 29C196.267 30.088 197.835 31.624 198.955 33.608C200.107 35.56 200.683 37.784 200.683 40.28C200.683 42.776 200.107 45.016 198.955 47C197.835 48.952 196.267 50.488 194.251 51.608C192.267 52.728 190.011 53.288 187.483 53.288ZM187.483 49.256C189.115 49.256 190.571 48.888 191.851 48.152C193.163 47.384 194.187 46.328 194.923 44.984C195.659 43.608 196.027 42.04 196.027 40.28C196.027 38.52 195.659 36.968 194.923 35.624C194.187 34.248 193.163 33.192 191.851 32.456C190.571 31.72 189.115 31.352 187.483 31.352C185.851 31.352 184.379 31.72 183.067 32.456C181.787 33.192 180.763 34.248 179.995 35.624C179.259 36.968 178.891 38.52 178.891 40.28C178.891 42.04 179.259 43.608 179.995 44.984C180.763 46.328 181.787 47.384 183.067 48.152C184.379 48.888 185.851 49.256 187.483 49.256ZM216.032 53.288C213.504 53.288 211.232 52.728 209.216 51.608C207.2 50.488 205.616 48.952 204.464 47C203.344 45.016 202.784 42.776 202.784 40.28C202.784 37.784 203.344 35.56 204.464 33.608C205.616 31.624 207.2 30.088 209.216 29C211.232 27.88 213.504 27.32 216.032 27.32C218.56 27.32 220.816 27.88 222.8 29C224.816 30.088 226.384 31.624 227.504 33.608C228.656 35.56 229.232 37.784 229.232 40.28C229.232 42.776 228.656 45.016 227.504 47C226.384 48.952 224.816 50.488 222.8 51.608C220.816 52.728 218.56 53.288 216.032 53.288ZM216.032 49.256C217.664 49.256 219.12 48.888 220.4 48.152C221.712 47.384 222.736 46.328 223.472 44.984C224.208 43.608 224.576 42.04 224.576 40.28C224.576 38.52 224.208 36.968 223.472 35.624C222.736 34.248 221.712 33.192 220.4 32.456C219.12 31.72 217.664 31.352 216.032 31.352C214.4 31.352 212.928 31.72 211.616 32.456C210.336 33.192 209.312 34.248 208.544 35.624C207.808 36.968 207.44 38.52 207.44 40.28C207.44 42.04 207.808 43.608 208.544 44.984C209.312 46.328 210.336 47.384 211.616 48.152C212.928 48.888 214.4 49.256 216.032 49.256ZM265.509 27.32C268.709 27.32 271.237 28.248 273.093 30.104C274.981 31.96 275.925 34.712 275.925 38.36V53H271.317V38.888C271.317 36.424 270.741 34.568 269.589 33.32C268.469 32.072 266.853 31.448 264.741 31.448C262.405 31.448 260.549 32.184 259.173 33.656C257.797 35.096 257.109 37.176 257.109 39.896V53H252.501V38.888C252.501 36.424 251.925 34.568 250.773 33.32C249.653 32.072 248.037 31.448 245.925 31.448C243.589 31.448 241.733 32.184 240.357 33.656C238.981 35.096 238.293 37.176 238.293 39.896V53H233.685V27.56H238.101V31.352C239.029 30.04 240.245 29.048 241.749 28.376C243.253 27.672 244.965 27.32 246.885 27.32C248.869 27.32 250.629 27.72 252.165 28.52C253.701 29.32 254.885 30.488 255.717 32.024C256.677 30.552 258.005 29.4 259.701 28.568C261.429 27.736 263.365 27.32 265.509 27.32ZM160.261 63.4V97H155.461V82.024H136.165V97H131.365V63.4H136.165V77.848H155.461V63.4H160.261ZM178.622 97.288C176.094 97.288 173.822 96.728 171.806 95.608C169.79 94.488 168.206 92.952 167.054 91C165.934 89.016 165.374 86.776 165.374 84.28C165.374 81.784 165.934 79.56 167.054 77.608C168.206 75.624 169.79 74.088 171.806 73C173.822 71.88 176.094 71.32 178.622 71.32C181.15 71.32 183.406 71.88 185.39 73C187.406 74.088 188.974 75.624 190.094 77.608C191.246 79.56 191.822 81.784 191.822 84.28C191.822 86.776 191.246 89.016 190.094 91C188.974 92.952 187.406 94.488 185.39 95.608C183.406 96.728 181.15 97.288 178.622 97.288ZM178.622 93.256C180.254 93.256 181.71 92.888 182.99 92.152C184.302 91.384 185.326 90.328 186.062 88.984C186.798 87.608 187.166 86.04 187.166 84.28C187.166 82.52 186.798 80.968 186.062 79.624C185.326 78.248 184.302 77.192 182.99 76.456C181.71 75.72 180.254 75.352 178.622 75.352C176.99 75.352 175.518 75.72 174.206 76.456C172.926 77.192 171.902 78.248 171.134 79.624C170.398 80.968 170.03 82.52 170.03 84.28C170.03 86.04 170.398 87.608 171.134 88.984C171.902 90.328 172.926 91.384 174.206 92.152C175.518 92.888 176.99 93.256 178.622 93.256ZM203.571 97.288C201.491 97.288 199.491 97.016 197.571 96.472C195.651 95.896 194.147 95.176 193.059 94.312L194.979 90.664C196.099 91.464 197.459 92.104 199.059 92.584C200.659 93.064 202.275 93.304 203.907 93.304C207.939 93.304 209.955 92.152 209.955 89.848C209.955 89.08 209.683 88.472 209.139 88.024C208.595 87.576 207.907 87.256 207.075 87.064C206.275 86.84 205.123 86.6 203.619 86.344C201.571 86.024 199.891 85.656 198.579 85.24C197.299 84.824 196.195 84.12 195.267 83.128C194.339 82.136 193.875 80.744 193.875 78.952C193.875 76.648 194.835 74.808 196.755 73.432C198.675 72.024 201.251 71.32 204.483 71.32C206.179 71.32 207.875 71.528 209.571 71.944C211.267 72.36 212.659 72.92 213.747 73.624L211.779 77.272C209.699 75.928 207.251 75.256 204.435 75.256C202.483 75.256 200.995 75.576 199.971 76.216C198.947 76.856 198.435 77.704 198.435 78.76C198.435 79.592 198.723 80.248 199.299 80.728C199.875 81.208 200.579 81.56 201.411 81.784C202.275 82.008 203.475 82.264 205.011 82.552C207.059 82.904 208.707 83.288 209.955 83.704C211.235 84.088 212.323 84.76 213.219 85.72C214.115 86.68 214.563 88.024 214.563 89.752C214.563 92.056 213.571 93.896 211.587 95.272C209.635 96.616 206.963 97.288 203.571 97.288ZM232.706 95.512C232.034 96.088 231.202 96.536 230.21 96.856C229.218 97.144 228.194 97.288 227.138 97.288C224.578 97.288 222.594 96.6 221.186 95.224C219.778 93.848 219.074 91.88 219.074 89.32V75.352H214.754V71.56H219.074V65.992H223.682V71.56H230.978V75.352H223.682V89.128C223.682 90.504 224.018 91.56 224.69 92.296C225.394 93.032 226.386 93.4 227.666 93.4C229.074 93.4 230.274 93 231.266 92.2L232.706 95.512Z" fill="white"/>
<path fill-rule="evenodd" clip-rule="evenodd" d="M34.3485 15.9256C34.3485 16.2676 34.9695 19.2278 35.4055 20.9641C37.2641 28.365 40.6458 36.2437 44.908 43.1026C45.2369 43.6318 45.5263 44.0433 45.5512 44.017C45.5761 43.9904 45.7047 43.6218 45.837 43.1975C46.8408 39.9755 48.6949 35.6625 50.3823 32.6243C50.957 31.5893 50.9601 31.7962 50.3506 30.5382C47.9665 25.6177 42.5607 20.442 35.795 16.6022C34.5008 15.8678 34.3485 15.7964 34.3485 15.9256ZM79.6417 16.2247C72.003 20.384 66.0609 26.2472 63.8431 31.8142L63.6105 32.398L63.8945 32.9638C65.1144 35.3945 66.9376 39.8789 68.2375 43.6455L68.6781 44.9223L69.252 44.0456C74.4419 36.1189 78.6358 25.7509 80.2712 16.8046C80.4715 15.7081 80.5158 15.7487 79.6417 16.2247ZM56.6227 27.4949C52.8121 32.0325 49.6936 39.6054 47.9445 48.5698L47.7607 49.5128L48.3177 50.5129C48.6243 51.063 49.1807 52.1304 49.5544 52.8848C49.9282 53.6392 50.2348 54.205 50.2354 54.1421C50.2471 53.2371 51.4773 49.9146 52.7212 47.4302C53.2773 46.3194 53.3268 46.2554 53.0882 46.9552C51.7256 50.9527 51.7917 57.5067 53.2405 62.1031C54.1369 64.947 54.7936 67.49 55.4348 70.602L55.7646 72.2022L55.8 71.7736C55.8195 71.5378 55.8626 70.5862 55.8958 69.659C55.9658 67.7012 56.2895 60.0519 56.4933 55.5423C56.5704 53.8292 56.7522 49.7785 56.8968 46.5409C57.1665 40.4982 57.1934 40.0855 57.2754 40.7399C57.8118 45.0112 58.6145 62.0674 58.7011 71.0306L58.7068 71.6307L58.8142 71.1163C59.4049 68.2899 60.035 65.7672 60.7011 63.5611C60.952 62.7304 61.0477 62.0771 61.2938 59.5144C61.8367 53.8618 61.8573 49.4696 61.3544 46.6306C61.2141 45.8396 61.2335 45.8696 61.8679 47.4267C62.6614 49.3753 63.4279 51.8972 63.7899 53.752L63.9817 54.7339L64.7055 53.2663C65.1033 52.4593 65.6799 51.3488 65.9868 50.7987L66.5444 49.7985L66.4135 49.1413C64.8432 41.264 61.1526 32.1356 57.592 27.3234C57.1651 26.7468 57.266 26.7288 56.6227 27.4949ZM35.8508 47.3981C35.8513 47.5553 35.8625 47.6128 35.8756 47.5259C35.8885 47.439 35.8882 47.3104 35.8748 47.2401C35.861 47.1698 35.8505 47.241 35.8508 47.3981ZM78.4292 47.6839C78.4297 47.8411 78.4409 47.8985 78.454 47.8116C78.4669 47.7248 78.4666 47.5962 78.4532 47.5259C78.4395 47.4556 78.4289 47.5267 78.4292 47.6839ZM40.5004 47.9717C40.4229 48.997 40.3932 55.1451 40.4581 56.7425C41.0948 72.4648 44.6816 83.7241 50.9015 89.5251C52.9041 91.3928 54.9493 94.1264 55.7292 95.9776L55.9458 96.4919L55.9203 95.9776C54.8459 74.0714 49.5044 56.7097 41.2299 48.2289L40.5347 47.5162L40.5004 47.9717ZM73.1486 48.4398C66.4829 55.21 61.653 67.8418 59.4403 84.2899C58.9123 88.2157 58.3959 94.1701 58.4142 96.1204L58.4187 96.6062L58.5396 96.3205C59.3246 94.4627 61.4147 91.6651 63.403 89.8108C69.6229 84.0096 73.2089 72.7535 73.8467 57.0283C73.9141 55.3649 73.8773 49.0884 73.7953 48.2397L73.755 47.8237L73.1486 48.4398ZM35.8499 52.5133C35.8499 52.6547 35.861 52.7127 35.8748 52.6419C35.8885 52.5713 35.8885 52.4553 35.8748 52.3847C35.861 52.3141 35.8499 52.3718 35.8499 52.5133ZM78.4283 52.799C78.4283 52.9405 78.4395 52.9985 78.4532 52.9276C78.4669 52.857 78.4669 52.741 78.4532 52.6704C78.4395 52.5999 78.4283 52.6576 78.4283 52.799Z" fill="#F96605"/>
<path fill-rule="evenodd" clip-rule="evenodd" d="M32.4356 20.4223C32.2807 22.3137 32.5879 26.2535 33.1486 29.5666C33.4407 31.2915 34.2219 34.9984 34.3051 35.0521C35.3281 35.7136 36.8558 36.8435 37.8688 37.688C38.2654 38.0186 38.6029 38.2761 38.6186 38.2603C38.6344 38.2446 38.4418 37.8766 38.1906 37.4428C35.8619 33.4184 33.8059 27.278 32.6928 21.0224C32.5948 20.4723 32.5074 19.9836 32.4985 19.9365C32.4896 19.8893 32.4614 20.1079 32.4356 20.4223ZM82.2492 19.9759C82.2361 20.2042 81.8486 22.234 81.6131 23.3085C80.3463 29.0871 78.5138 34.1974 76.5009 37.5648C76.2951 37.9089 76.1268 38.1989 76.1268 38.2095C76.1268 38.2198 76.3648 38.0315 76.6555 37.7906C77.6053 37.0039 80.1592 35.1578 80.4189 35.0701C80.6113 35.0052 81.6631 29.6278 81.982 27.0805C82.2821 24.6853 82.449 21.1927 82.3098 20.2222C82.2807 20.0179 82.2532 19.907 82.2492 19.9759ZM24.9524 37.2965C24.843 42.7739 25.2742 51.2099 25.9517 56.8568C27.6157 70.7237 33.3564 81.7538 42.407 88.4737C43.8652 89.5562 45.9296 90.7895 47.1078 91.2813C47.439 91.4196 47.3658 91.3453 46.8323 91.001C35.4367 83.6495 28.6679 68.073 27.4005 46.2837C27.2954 44.4739 27.2342 39.0716 27.3025 37.6251C27.3442 36.7418 27.3391 36.5884 27.2662 36.5392C27.111 36.4346 25.0621 35.3104 25.0267 35.3104C25.0076 35.3104 24.9741 36.2043 24.9524 37.2965ZM88.2251 36.1531L87.2069 36.7098L87.2455 38.3104C87.2875 40.0458 87.2058 43.5586 87.0697 45.855C85.8312 66.8033 79.341 82.6499 68.8699 90.2917C67.9875 90.9356 67.1888 91.5482 67.2319 91.5482C67.5665 91.5482 70.5159 89.7854 71.8975 88.7595C79.9877 82.7528 85.4706 73.2552 87.6964 61.3921C88.5831 56.6668 89.1538 49.9671 89.3315 42.1973C89.3881 39.7277 89.3544 35.5959 89.2778 35.5965C89.2589 35.5965 88.7852 35.8471 88.2251 36.1531Z" fill="#F9C511"/>
<path fill-rule="evenodd" clip-rule="evenodd" d="M29.6626 11.0922C29.6626 11.4457 29.6906 12.6996 29.7243 13.8784C29.7583 15.0571 29.7926 18.0533 29.8009 20.5366C29.8155 24.9922 29.8309 25.4474 30.0381 27.5377C30.2133 29.3035 30.5527 31.3927 30.8851 32.7506L30.9651 33.0769L30.4136 32.8003C28.9022 32.043 26.9133 31.2298 25.0898 30.6234C23.4416 30.0753 20.7411 29.3529 20.6565 29.4375C20.6365 29.4575 20.6868 30.009 20.7686 30.6631C21.038 32.8249 21.2312 35.0613 21.3852 37.7966C21.4695 39.2942 21.4833 45.6264 21.4101 49.1413C21.1358 62.2917 25.3207 75.836 32.3679 84.6042C36.2314 89.4116 41.6 93.4788 46.2933 95.1551C52.6952 97.4412 56.6102 100.926 57.04 104.722C57.1477 105.674 57.2514 105.87 57.2626 105.141C57.3163 101.584 61.5779 97.7381 68.0112 95.4409C72.7045 93.7646 78.0731 89.6974 81.9366 84.89C88.9838 76.1217 93.1688 62.5775 92.8944 49.427C92.8213 45.9122 92.835 39.58 92.9193 38.0823C93.0733 35.347 93.2665 33.1107 93.536 30.9489C93.6177 30.2948 93.668 29.7432 93.648 29.7232C93.6283 29.7032 93.3105 29.7592 92.9421 29.8478C89.8851 30.5825 87.1832 31.5278 84.4305 32.8263L83.7849 33.1309L83.8198 32.9775C83.8389 32.8932 83.9018 32.6314 83.9592 32.3957C84.2361 31.2632 84.5559 29.2303 84.7237 27.5377C84.9308 25.4465 84.9463 24.9922 84.9608 20.5366C84.9691 18.0533 85.0034 15.0571 85.0374 13.8784C85.0711 12.6996 85.0991 11.4457 85.0991 11.0922L85.0997 10.4492H84.9174C84.5059 10.4492 81.9901 11.3079 80.4467 11.9752C73.2278 15.0963 66.5604 21.0278 62.1234 28.2756C61.8587 28.7082 61.7459 28.8488 61.7107 28.7899C60.4337 26.6644 59.2692 25.0602 58.043 23.738C57.2091 22.839 57.2729 22.8593 56.8111 23.3436C55.9403 24.2569 54.2852 26.3738 53.2979 27.8378C52.7827 28.6019 52.8127 28.5808 52.6507 28.2921C49.7982 23.2173 43.7669 17.2129 38.2803 13.9864C35.679 12.4564 30.8917 10.4492 29.8443 10.4492H29.662L29.6626 11.0922ZM35.6059 16.4682C42.4701 20.338 47.963 25.5708 50.3749 30.5382C50.9261 31.6736 50.9232 31.6616 50.7318 32.0148C48.4963 36.1409 47.1335 39.2671 45.9133 43.068C45.7295 43.6409 45.5621 44.1105 45.5415 44.111C45.4846 44.1125 44.223 42.0578 43.4543 40.7113C39.4139 33.6345 36.472 26.1367 34.8935 18.8937C34.6903 17.9619 34.2914 15.9015 34.2914 15.7841C34.2914 15.7504 34.8246 16.0276 35.6059 16.4682ZM80.2738 16.8883C78.8361 24.731 75.6962 33.0504 71.2357 40.8328C70.0384 42.922 68.6919 45.0415 68.6482 44.9057C67.6186 41.6986 65.5962 36.5941 64.1243 33.4864L63.5988 32.3768L63.8134 31.829C65.6365 27.1783 69.9315 22.4678 76.0982 18.3559C77.6033 17.3524 80.3812 15.7132 80.4538 15.7858C80.4641 15.7961 80.3832 16.2922 80.2738 16.8883ZM32.9228 22.1083C34.0745 27.9109 36.0388 33.6976 38.0057 37.0822C38.4643 37.8717 38.7404 38.3981 38.6747 38.3587C38.6372 38.3361 38.2549 38.0292 37.8251 37.6768C36.8446 36.8727 36.1385 36.3383 35.1201 35.6296C34.1762 34.9727 34.2928 35.1401 34.0407 34.0817C33.0003 29.713 32.4805 25.9189 32.4228 22.2714C32.3839 19.821 32.4225 19.3538 32.5839 20.308C32.6425 20.6538 32.7951 21.4639 32.9228 22.1083ZM82.3381 22.194C82.2841 25.9075 81.7729 29.6655 80.721 34.0817C80.4681 35.1427 80.5858 34.9775 79.6285 35.6165C78.6258 36.2857 77.6991 36.971 76.7269 37.7614C76.248 38.1509 76.0236 38.3049 76.0957 38.1952C78.5323 34.4834 81.1008 26.9336 82.1667 20.3514C82.3313 19.3355 82.3733 19.7873 82.3381 22.194ZM57.7506 27.5049C61.1835 32.2159 64.4155 40.159 66.2938 48.5015L66.581 49.7762L66.0337 50.759C65.7325 51.2994 65.1421 52.4361 64.7215 53.2848C64.3009 54.1335 63.956 54.8131 63.9551 54.7951C63.8891 53.4237 62.3825 48.4363 61.4292 46.4351L61.3164 46.1979L61.3495 46.4266C61.3678 46.5523 61.4207 46.9123 61.4673 47.2267C61.9256 50.3158 61.7467 56.5371 61.0412 62.0577C60.968 62.6306 60.862 63.1247 60.6977 63.658C60.1473 65.4434 59.4292 68.293 58.9563 70.5685L58.7117 71.745L58.6745 70.5734C58.6539 69.929 58.6114 68.3473 58.5796 67.0585C58.3045 55.7924 57.7889 45.3544 57.3034 41.2257L57.2297 40.597L57.1897 41.0257C57.1677 41.2614 56.9705 45.4535 56.7516 50.3415C56.5327 55.2294 56.327 59.8073 56.2947 60.5146C56.1855 62.8973 55.8978 69.963 55.8586 71.2169C55.8372 71.901 55.8115 72.452 55.8009 72.4417C55.7906 72.4314 55.652 71.7816 55.4931 70.998C54.8436 67.7952 54.1821 65.1911 53.3236 62.4578C51.7914 57.5781 51.6571 51.095 53.0067 47.1452C53.1873 46.6163 53.1868 46.5923 53.001 46.9123C52.1294 48.4143 50.7644 51.8772 50.3734 53.5786L50.214 54.2724L49.5159 52.8642C49.1318 52.0898 48.58 51.0316 48.2897 50.5129C47.6736 49.4122 47.695 49.6745 48.0702 47.8416C49.8679 39.0582 53.0382 31.5824 56.8036 27.2465C57.2454 26.7379 57.1783 26.7193 57.7506 27.5049ZM27.1759 36.4558C31.7358 39.0513 34.826 41.3329 35.9191 42.91L36.0691 43.1266L36.0056 44.2008C35.7845 47.9514 35.8448 53.8212 36.1514 58.3428C37.1627 73.2704 40.9142 84.7111 46.7723 90.7338C47.4952 91.4771 47.4872 91.4888 46.5591 91.0442C36.9358 86.4357 29.2974 75.1113 26.6638 61.5476C25.4916 55.5103 24.5706 41.63 24.9558 35.8108L24.9927 35.2536L25.5985 35.5782C25.9317 35.7565 26.6415 36.1514 27.1759 36.4558ZM89.3781 39.0253C89.4056 49.6897 88.4651 59.2418 86.7557 65.6569C83.6266 77.3991 76.3694 87.2001 67.7454 91.3299C66.8173 91.7746 66.8093 91.7628 67.5323 91.0196C73.3904 84.9969 77.1418 73.5561 78.1531 58.6286C78.4598 54.107 78.5201 48.2371 78.2989 44.4865L78.2354 43.4123L78.3855 43.1957C79.5762 41.4775 83.1785 38.8965 88.3288 36.0711L89.3004 35.5382L89.3358 35.9531C89.3553 36.1812 89.3744 37.5637 89.3781 39.0253ZM42.5187 49.6271C48.4994 56.7354 52.7821 68.5516 54.8342 83.6041C55.3834 87.6327 55.9584 94.1504 55.9509 96.2633L55.9498 96.5491L55.7055 95.9775C54.8907 94.0715 53.4762 92.1698 51.0078 89.6622C49.5419 88.1731 49.1901 87.7819 48.5111 86.884C44.0181 80.9442 41.3231 71.553 40.5504 59.1429C40.3372 55.7212 40.3104 49.1064 40.5041 47.7133L40.5395 47.4573L41.1925 48.142C41.5517 48.5189 42.1487 49.187 42.5187 49.6271ZM73.9039 50.6898C74.2339 62.1683 72.5331 73.4533 69.3506 80.8988C67.704 84.7505 66.2 86.9989 63.2967 89.948C60.8117 92.4724 59.3358 94.4682 58.5516 96.3639C58.3356 96.8866 58.3359 96.8891 58.4082 95.3403C58.9077 84.6177 60.8895 73.3924 63.7614 65.0182C66.2335 57.8098 69.314 52.3807 73.2686 48.2631L73.755 47.7568L73.7936 47.9774C73.815 48.0988 73.8647 49.3196 73.9039 50.6898Z" fill="#14192C"/>
<path fill-rule="evenodd" clip-rule="evenodd" d="M27.3313 36.725C27.2582 36.9027 27.2851 44.3325 27.3636 45.6836C28.6641 68.0435 35.3652 83.6767 46.7711 90.9604L47.1792 91.2211L46.6934 90.713C40.779 84.5297 37.0855 73.1015 36.0931 57.9142C35.7967 53.3797 35.7573 47.5367 35.9971 43.745L36.0368 43.1211L35.8685 42.8877C34.8051 41.4132 32.1161 39.3722 28.2592 37.1122C27.3253 36.5649 27.3865 36.5904 27.3313 36.725ZM86.8714 36.9058C86.73 36.993 86.1256 37.3548 85.5283 37.71C81.9806 39.8195 79.447 41.7712 78.436 43.1734L78.2677 43.4069L78.3074 44.0307C78.5472 47.8225 78.5077 53.6655 78.2114 58.1999C77.2132 73.4744 73.5164 84.8529 67.5259 91.0862C66.863 91.7763 66.873 91.7743 67.8969 91.0153C69.3891 89.9088 69.5306 89.8 70.2681 89.1864C79.9726 81.1145 85.8761 65.8906 87.0706 45.855C87.2583 42.7065 87.3203 36.7264 87.1652 36.7432C87.1449 36.7455 87.0129 36.8184 86.8714 36.9058Z" fill="#F9C511"/>
<path fill-rule="evenodd" clip-rule="evenodd" d="M57.188 40.485C57.1683 40.5359 57.1554 40.685 57.1588 40.8159C57.1657 41.052 57.166 41.0514 57.2169 40.7453C57.2683 40.4356 57.2546 40.3113 57.188 40.485ZM57.1114 41.9687C57.112 42.1259 57.1231 42.1833 57.1363 42.0964C57.1491 42.0096 57.1488 41.881 57.1354 41.8107C57.1217 41.7404 57.1111 41.8115 57.1114 41.9687ZM24.9315 41.9401C24.9315 42.0501 24.9435 42.0953 24.9578 42.0401C24.9721 41.9853 24.9721 41.8952 24.9578 41.8401C24.9435 41.7852 24.9315 41.8301 24.9315 41.9401ZM89.3421 42.2259C89.3421 42.3359 89.3541 42.381 89.3684 42.3259C89.3827 42.271 89.3827 42.181 89.3684 42.1259C89.3541 42.071 89.3421 42.1159 89.3421 42.2259ZM57.0543 43.226C57.0548 43.3832 57.066 43.4406 57.0791 43.3538C57.092 43.2669 57.0917 43.1383 57.0783 43.068C57.0645 42.9977 57.054 43.0689 57.0543 43.226ZM36.0191 43.4832C36.0191 43.5932 36.0311 43.6384 36.0454 43.5832C36.0597 43.5284 36.0597 43.4381 36.0454 43.3832C36.0311 43.3281 36.0191 43.3732 36.0191 43.4832ZM78.2546 43.769C78.2546 43.879 78.2666 43.9242 78.2809 43.869C78.2952 43.8141 78.2952 43.7238 78.2809 43.669C78.2666 43.6138 78.2546 43.659 78.2546 43.769ZM56.9971 44.4262C56.9977 44.5834 57.0088 44.6408 57.022 44.554C57.0348 44.4671 57.0345 44.3385 57.0211 44.2682C57.0074 44.1979 56.9968 44.2691 56.9971 44.4262ZM35.9642 44.512C35.9642 44.6534 35.9754 44.7114 35.9891 44.6406C36.0028 44.57 36.0028 44.454 35.9891 44.3834C35.9754 44.3128 35.9642 44.3705 35.9642 44.512ZM78.314 44.7977C78.314 44.9392 78.3252 44.9972 78.3389 44.9263C78.3526 44.8557 78.3526 44.7397 78.3389 44.6691C78.3252 44.5985 78.314 44.6563 78.314 44.7977ZM56.9399 45.6836C56.9405 45.8408 56.9517 45.8982 56.9648 45.8113C56.9777 45.7244 56.9774 45.5959 56.964 45.5256C56.9502 45.4553 56.9397 45.5264 56.9399 45.6836ZM57.6798 45.5979C57.6798 45.7079 57.6918 45.753 57.7061 45.6979C57.7204 45.643 57.7204 45.5527 57.7061 45.4978C57.6918 45.443 57.6798 45.4878 57.6798 45.5979ZM35.9088 45.8836C35.9088 46.0565 35.9194 46.1274 35.9325 46.0408C35.9456 45.9542 35.9456 45.813 35.9325 45.7264C35.9194 45.6401 35.9088 45.7107 35.9088 45.8836ZM78.3729 46.1694C78.3729 46.3423 78.3835 46.4131 78.3966 46.3265C78.4098 46.24 78.4098 46.0988 78.3966 46.0122C78.3835 45.9259 78.3729 45.9965 78.3729 46.1694ZM57.7369 46.4551C57.7369 46.5652 57.7489 46.6103 57.7632 46.5552C57.7775 46.5003 57.7775 46.41 57.7632 46.3551C57.7489 46.3003 57.7369 46.3451 57.7369 46.4551ZM56.8828 46.9409C56.8834 47.0981 56.8945 47.1555 56.9077 47.0687C56.9205 46.9818 56.9202 46.8532 56.9068 46.7829C56.8931 46.7126 56.8825 46.7838 56.8828 46.9409ZM57.7952 47.341C57.7961 47.4667 57.8078 47.5113 57.8212 47.4404C57.835 47.3693 57.8344 47.2664 57.8201 47.2118C57.8058 47.157 57.7947 47.2153 57.7952 47.341ZM40.9496 47.9411C41.1996 48.1926 41.4171 48.3983 41.4328 48.3983C41.4485 48.3983 41.2568 48.1926 41.0068 47.9411C40.7567 47.6896 40.5393 47.4839 40.5235 47.4839C40.5078 47.4839 40.6996 47.6896 40.9496 47.9411ZM35.8571 48.4269C35.8571 48.867 35.8662 49.0396 35.8771 48.8101C35.8879 48.5809 35.8876 48.2209 35.8768 48.01C35.8659 47.7994 35.8571 47.9868 35.8571 48.4269ZM73.2963 48.2411L72.8406 48.7127L73.3121 48.2569C73.7498 47.8334 73.8096 47.7696 73.7678 47.7696C73.7593 47.7696 73.5472 47.9817 73.2963 48.2411ZM40.477 47.9982C40.477 48.1083 40.489 48.1534 40.5033 48.0983C40.5175 48.0434 40.5175 47.9534 40.5033 47.8982C40.489 47.8434 40.477 47.8882 40.477 47.9982ZM56.8256 48.1983C56.8262 48.3555 56.8374 48.4129 56.8505 48.326C56.8634 48.2391 56.8631 48.1106 56.8496 48.0403C56.8359 47.97 56.8254 48.0411 56.8256 48.1983ZM78.4355 48.7127C78.4355 49.1527 78.4446 49.3253 78.4555 49.0959C78.4663 48.8667 78.4661 48.5066 78.4552 48.2957C78.4443 48.0851 78.4355 48.2726 78.4355 48.7127ZM57.8512 48.284C57.8512 48.394 57.8632 48.4392 57.8775 48.384C57.8918 48.3292 57.8918 48.2391 57.8775 48.184C57.8632 48.1291 57.8512 48.174 57.8512 48.284ZM73.7967 48.284C73.7967 48.394 73.8087 48.4392 73.823 48.384C73.8373 48.3292 73.8373 48.2391 73.823 48.184C73.8087 48.1291 73.7967 48.174 73.7967 48.284ZM40.4221 49.2556C40.4221 49.397 40.4332 49.4548 40.447 49.3842C40.4607 49.3136 40.4607 49.1976 40.447 49.127C40.4332 49.0564 40.4221 49.1141 40.4221 49.2556ZM57.9095 49.2842C57.9104 49.4099 57.9221 49.4545 57.9355 49.3836C57.9493 49.3125 57.9487 49.2096 57.9344 49.155C57.9201 49.1001 57.909 49.1584 57.9095 49.2842ZM56.7685 49.4556C56.7691 49.6128 56.7802 49.6702 56.7934 49.5834C56.8062 49.4965 56.8059 49.3679 56.7925 49.2976C56.7788 49.2273 56.7682 49.2985 56.7685 49.4556ZM73.8562 49.5414C73.8562 49.6828 73.8673 49.7405 73.881 49.67C73.8947 49.5994 73.8947 49.4833 73.881 49.4128C73.8673 49.3422 73.8562 49.3999 73.8562 49.5414ZM61.6836 50.0272C61.6842 50.1843 61.6953 50.2418 61.7084 50.1549C61.7213 50.068 61.721 49.9394 61.7076 49.8691C61.6939 49.7988 61.6833 49.87 61.6836 50.0272ZM57.9678 50.3415C57.9678 50.4829 57.979 50.541 57.9927 50.4701C58.0064 50.3995 58.0064 50.2838 57.9927 50.2129C57.979 50.1423 57.9678 50.2 57.9678 50.3415ZM35.8576 51.3702C35.8576 51.8889 35.8665 52.1012 35.8771 51.8417C35.8876 51.5826 35.8876 51.1582 35.8771 50.8987C35.8665 50.6395 35.8576 50.8516 35.8576 51.3702ZM56.7113 50.713C56.7119 50.8701 56.7231 50.9276 56.7362 50.8407C56.7491 50.7538 56.7488 50.6253 56.7353 50.555C56.7216 50.4847 56.7111 50.5558 56.7113 50.713ZM78.436 51.656C78.436 52.1747 78.4449 52.387 78.4555 52.1275C78.4661 51.8683 78.4661 51.444 78.4555 51.1845C78.4449 50.9253 78.436 51.1373 78.436 51.656ZM40.3718 51.7703C40.3718 52.1947 40.3809 52.3684 40.3918 52.1561C40.4029 51.944 40.4029 51.5968 40.3918 51.3845C40.3809 51.1725 40.3718 51.3459 40.3718 51.7703ZM58.025 51.4845C58.025 51.626 58.0361 51.684 58.0498 51.6131C58.0636 51.5425 58.0636 51.4268 58.0498 51.3559C58.0361 51.2854 58.025 51.3431 58.025 51.4845ZM73.9202 52.0561C73.9202 52.4804 73.9293 52.6542 73.9402 52.4418C73.9513 52.2298 73.9513 51.8826 73.9402 51.6703C73.9293 51.4582 73.9202 51.6317 73.9202 52.0561ZM56.6542 51.9703C56.6548 52.1275 56.6659 52.1849 56.679 52.0981C56.6919 52.0112 56.6916 51.8826 56.6782 51.8123C56.6645 51.742 56.6539 51.8132 56.6542 51.9703ZM58.083 52.6562C58.0836 52.8133 58.0947 52.8708 58.1079 52.7839C58.1207 52.697 58.1204 52.5684 58.107 52.4981C58.0933 52.4278 58.0827 52.499 58.083 52.6562ZM52.0846 52.8848C52.0849 53.1048 52.0951 53.1877 52.1074 53.0694C52.1197 52.9508 52.1197 52.7707 52.1069 52.6693C52.0943 52.5676 52.0843 52.6647 52.0846 52.8848ZM56.597 53.2277C56.5976 53.3848 56.6087 53.4423 56.6219 53.3554C56.6348 53.2685 56.6345 53.1399 56.621 53.0697C56.6073 52.9994 56.5968 53.0705 56.597 53.2277ZM40.3724 53.9135C40.3724 54.385 40.3812 54.5702 40.3921 54.3253C40.4027 54.0801 40.4027 53.6943 40.3918 53.468C40.3809 53.2414 40.3724 53.442 40.3724 53.9135ZM61.6862 53.7421C61.6864 53.9621 61.6967 54.045 61.709 53.9267C61.7213 53.8081 61.7213 53.628 61.7084 53.5266C61.6959 53.4249 61.6859 53.522 61.6862 53.7421ZM73.9207 54.1993C73.9207 54.6708 73.9296 54.8559 73.9405 54.6111C73.951 54.3659 73.951 53.9801 73.9402 53.7538C73.9293 53.5272 73.9207 53.7278 73.9207 54.1993ZM58.141 53.9421C58.141 54.115 58.1516 54.1858 58.1647 54.0993C58.1779 54.013 58.1779 53.8715 58.1647 53.7849C58.1516 53.6983 58.141 53.7692 58.141 53.9421ZM35.9099 54.0564C35.9099 54.2607 35.9202 54.3444 35.9331 54.2421C35.9456 54.1401 35.9456 53.9729 35.9331 53.8706C35.9202 53.7683 35.9099 53.8521 35.9099 54.0564ZM52.086 54.4279C52.0857 54.7108 52.0954 54.8337 52.1074 54.7011C52.1194 54.5685 52.1197 54.337 52.1077 54.1867C52.096 54.0364 52.0863 54.145 52.086 54.4279ZM78.374 54.3421C78.374 54.5465 78.3843 54.6302 78.3972 54.5279C78.4098 54.4259 78.4098 54.2587 78.3972 54.1564C78.3843 54.0541 78.374 54.1378 78.374 54.3421ZM56.5399 54.485C56.5405 54.6422 56.5516 54.6996 56.5647 54.6128C56.5776 54.5259 56.5773 54.3973 56.5639 54.327C56.5502 54.2567 56.5396 54.3279 56.5399 54.485ZM61.6256 55.1423C61.6256 55.2837 61.6367 55.3415 61.6504 55.2709C61.6642 55.2003 61.6642 55.0846 61.6504 55.0137C61.6367 54.9431 61.6256 55.0008 61.6256 55.1423ZM58.1973 55.2852C58.1979 55.4423 58.209 55.4998 58.2222 55.4129C58.235 55.326 58.2347 55.1974 58.2213 55.1271C58.2076 55.0568 58.197 55.128 58.1973 55.2852ZM35.9651 55.5138C35.9656 55.6709 35.9768 55.7284 35.9899 55.6415C36.0028 55.5546 36.0025 55.426 35.9891 55.3557C35.9754 55.2854 35.9648 55.3566 35.9651 55.5138ZM56.4827 55.7424C56.4833 55.8995 56.4944 55.957 56.5076 55.8701C56.5205 55.7832 56.5202 55.6546 56.5067 55.5844C56.493 55.5141 56.4824 55.5852 56.4827 55.7424ZM78.3149 55.7995C78.3155 55.9567 78.3266 56.0141 78.3397 55.9273C78.3526 55.8404 78.3523 55.7118 78.3389 55.6415C78.3252 55.5712 78.3146 55.6424 78.3149 55.7995ZM52.136 55.771C52.136 55.881 52.148 55.9261 52.1623 55.871C52.1766 55.8161 52.1766 55.7261 52.1623 55.6709C52.148 55.6161 52.136 55.6609 52.136 55.771ZM61.5661 56.1139C61.5661 56.2239 61.5781 56.2688 61.5924 56.2139C61.6067 56.159 61.6067 56.069 61.5924 56.0139C61.5781 55.959 61.5661 56.0038 61.5661 56.1139ZM40.4229 56.5425C40.4235 56.6997 40.4347 56.7571 40.4478 56.6702C40.4607 56.5834 40.4604 56.4548 40.447 56.3845C40.4332 56.3142 40.4227 56.3853 40.4229 56.5425ZM36.0202 56.6568C36.0211 56.7826 36.0328 56.8271 36.0462 56.7563C36.0599 56.6851 36.0594 56.5822 36.0451 56.5277C36.0308 56.4728 36.0197 56.5311 36.0202 56.6568ZM58.2553 56.7425C58.2553 56.9154 58.2659 56.9863 58.279 56.8997C58.2922 56.8131 58.2922 56.672 58.279 56.5854C58.2659 56.4991 58.2553 56.5697 58.2553 56.7425ZM73.857 56.8283C73.8576 56.9854 73.8687 57.0429 73.8819 56.956C73.8947 56.8691 73.8944 56.7405 73.881 56.6702C73.8673 56.5999 73.8567 56.6711 73.857 56.8283ZM78.2557 56.9426C78.2566 57.0683 78.2683 57.1129 78.2817 57.042C78.2955 56.9709 78.2949 56.868 78.2806 56.8134C78.2663 56.7585 78.2552 56.8168 78.2557 56.9426ZM56.4256 57.0569C56.4261 57.214 56.4373 57.2715 56.4504 57.1846C56.4633 57.0977 56.463 56.9692 56.4496 56.8989C56.4359 56.8286 56.4253 56.8997 56.4256 57.0569ZM61.509 56.9711C61.509 57.0812 61.521 57.126 61.5353 57.0712C61.5496 57.0163 61.5496 56.9263 61.5353 56.8711C61.521 56.8163 61.509 56.8611 61.509 56.9711ZM36.0762 57.657C36.0762 57.767 36.0882 57.8121 36.1025 57.757C36.1168 57.7021 36.1168 57.6121 36.1025 57.557C36.0882 57.5021 36.0762 57.547 36.0762 57.657ZM40.477 57.9427C40.477 58.0528 40.489 58.0979 40.5033 58.0428C40.5175 57.9879 40.5175 57.8979 40.5033 57.8427C40.489 57.7879 40.477 57.8327 40.477 57.9427ZM78.1974 57.9427C78.1974 58.0528 78.2094 58.0979 78.2237 58.0428C78.238 57.9879 78.238 57.8979 78.2237 57.8427C78.2094 57.7879 78.1974 57.8327 78.1974 57.9427ZM58.313 58.2571C58.3133 58.4457 58.3239 58.516 58.3368 58.4131C58.3493 58.3105 58.3493 58.1562 58.3362 58.0702C58.323 57.9845 58.3127 58.0685 58.313 58.2571ZM73.7967 58.2285C73.7967 58.3385 73.8087 58.3837 73.823 58.3285C73.8373 58.2736 73.8373 58.1836 73.823 58.1285C73.8087 58.0736 73.7967 58.1185 73.7967 58.2285ZM56.3676 58.3428C56.3676 58.4843 56.3787 58.5423 56.3924 58.4714C56.4061 58.4008 56.4061 58.2851 56.3924 58.2142C56.3787 58.1436 56.3676 58.2014 56.3676 58.3428ZM56.3121 59.6002C56.3121 59.773 56.3227 59.8439 56.3358 59.7573C56.349 59.6707 56.349 59.5296 56.3358 59.443C56.3227 59.3567 56.3121 59.4273 56.3121 59.6002ZM58.3708 59.8288C58.3708 60.0331 58.381 60.1165 58.3939 60.0145C58.4065 59.9125 58.4065 59.745 58.3939 59.643C58.381 59.541 58.3708 59.6244 58.3708 59.8288ZM56.2541 60.8861C56.2547 61.0433 56.2658 61.1007 56.279 61.0138C56.2918 60.9269 56.2916 60.7984 56.2781 60.7281C56.2644 60.6578 56.2538 60.7289 56.2541 60.8861ZM58.4288 61.5433C58.4288 61.7791 58.4391 61.8757 58.4513 61.7577C58.4636 61.6399 58.4636 61.447 58.4513 61.329C58.4391 61.2113 58.4288 61.3076 58.4288 61.5433ZM56.1978 62.2292C56.1978 62.402 56.2084 62.4729 56.2215 62.3863C56.2347 62.3 56.2347 62.1586 56.2215 62.072C56.2084 61.9854 56.1978 62.0563 56.1978 62.2292ZM58.4859 63.4294C58.4859 63.6651 58.4962 63.7617 58.5085 63.6437C58.5208 63.5259 58.5208 63.3331 58.5085 63.215C58.4962 63.0973 58.4859 63.1936 58.4859 63.4294ZM56.1407 63.6008C56.1407 63.7737 56.1512 63.8446 56.1644 63.758C56.1775 63.6714 56.1775 63.5302 56.1644 63.4436C56.1512 63.3573 56.1407 63.4279 56.1407 63.6008ZM56.0827 64.9439C56.0832 65.1011 56.0944 65.1585 56.1075 65.0716C56.1204 64.9848 56.1201 64.8562 56.1067 64.7859C56.093 64.7156 56.0824 64.7867 56.0827 64.9439ZM58.5436 65.4583C58.5436 65.7097 58.5536 65.8055 58.5659 65.6712C58.5779 65.5366 58.5776 65.3308 58.5654 65.2139C58.5531 65.0968 58.5434 65.2068 58.5436 65.4583ZM56.0264 66.287C56.0264 66.4599 56.0369 66.5307 56.0501 66.4441C56.0632 66.3578 56.0632 66.2164 56.0501 66.1298C56.0369 66.0435 56.0264 66.1141 56.0264 66.287ZM58.6014 67.63C58.6011 67.913 58.6108 68.0358 58.6228 67.9032C58.6348 67.7706 58.6351 67.5392 58.6231 67.3889C58.6114 67.2386 58.6016 67.3471 58.6014 67.63ZM55.9698 67.6872C55.9701 67.8758 55.9806 67.9461 55.9935 67.8432C56.0061 67.7406 56.0061 67.5863 55.9929 67.5003C55.9798 67.4146 55.9695 67.4986 55.9698 67.6872ZM55.9121 69.0874C55.9121 69.2603 55.9226 69.3312 55.9358 69.2446C55.9489 69.1583 55.9489 69.0168 55.9358 68.9303C55.9226 68.8437 55.9121 68.9145 55.9121 69.0874ZM58.6588 70.059C58.6588 70.3576 58.6685 70.4799 58.6802 70.3305C58.6919 70.1813 58.6919 69.937 58.6802 69.7875C58.6685 69.6384 58.6588 69.7604 58.6588 70.059ZM55.8555 70.602C55.8558 70.7906 55.8663 70.8609 55.8792 70.758C55.8918 70.6554 55.8918 70.5011 55.8786 70.4151C55.8655 70.3293 55.8552 70.4134 55.8555 70.602ZM55.7675 72.0165C55.7535 72.1502 55.762 72.3108 55.7863 72.3737C55.8149 72.448 55.8318 72.3625 55.834 72.1308C55.8383 71.7199 55.8043 71.6616 55.7675 72.0165ZM50.9798 89.6208C50.9798 89.6294 51.179 89.8288 51.4228 90.0637L51.8657 90.4909L51.4385 90.048C51.0416 89.6365 50.9798 89.5791 50.9798 89.6208ZM62.8675 90.3195C62.6335 90.5552 62.4546 90.7481 62.4703 90.7481C62.486 90.7481 62.6906 90.5552 62.9246 90.3195C63.1587 90.0837 63.3376 89.8908 63.3218 89.8908C63.3061 89.8908 63.1015 90.0837 62.8675 90.3195ZM46.522 90.5352C46.522 90.5438 46.7214 90.7433 46.9649 90.9782L47.4078 91.4054L46.9806 90.9625C46.5837 90.551 46.522 90.4935 46.522 90.5352ZM67.3348 91.2245C67.0968 91.4642 66.9567 91.6434 67.0076 91.6434C67.0568 91.6434 67.083 91.63 67.0665 91.6134C67.0499 91.5965 67.2099 91.408 67.4222 91.1942C67.6346 90.9802 67.7952 90.8053 67.7797 90.8053C67.764 90.8053 67.5637 90.9939 67.3348 91.2245ZM55.7366 92.6913C55.7366 92.8013 55.7486 92.8465 55.7629 92.7913C55.7772 92.7365 55.7772 92.6464 55.7629 92.5913C55.7486 92.5364 55.7366 92.5813 55.7366 92.6913ZM58.5371 92.9771C58.5371 93.0871 58.5491 93.1322 58.5634 93.0771C58.5776 93.0222 58.5776 92.9322 58.5634 92.877C58.5491 92.8222 58.5371 92.867 58.5371 92.9771ZM55.7949 93.5772C55.7958 93.7029 55.8075 93.7475 55.8209 93.6766C55.8346 93.6055 55.8341 93.5026 55.8198 93.448C55.8055 93.3931 55.7943 93.4514 55.7949 93.5772ZM58.4811 93.8629C58.4819 93.9887 58.4936 94.0332 58.5071 93.9624C58.5208 93.8912 58.5202 93.7883 58.5059 93.7338C58.4916 93.6789 58.4805 93.7372 58.4811 93.8629ZM58.4259 94.9488C58.4265 95.106 58.4376 95.1634 58.4508 95.0766C58.4636 94.9897 58.4633 94.8611 58.4499 94.7908C58.4362 94.7205 58.4256 94.7916 58.4259 94.9488ZM55.9104 95.7775C55.9104 95.919 55.9215 95.977 55.9352 95.9061C55.9489 95.8355 55.9489 95.7198 55.9352 95.6489C55.9215 95.5784 55.9104 95.6361 55.9104 95.7775ZM58.3525 96.3776C58.3525 96.5925 58.3696 96.7508 58.3908 96.7297C58.4316 96.6891 58.4199 96.0544 58.3776 96.0121C58.3639 95.9984 58.3525 96.1627 58.3525 96.3776Z" fill="#14192C"/>
<path fill-rule="evenodd" clip-rule="evenodd" d="M32.4196 20.1937C32.4205 20.3194 32.4322 20.364 32.4456 20.2931C32.4593 20.222 32.4588 20.1191 32.4445 20.0645C32.4302 20.0097 32.419 20.068 32.4196 20.1937ZM82.3135 20.1937C82.3144 20.3194 82.3261 20.364 82.3395 20.2931C82.3532 20.222 82.3527 20.1191 82.3384 20.0645C82.3241 20.0097 82.3129 20.068 82.3135 20.1937ZM32.4196 23.2799C32.4205 23.4056 32.4322 23.4502 32.4456 23.3794C32.4593 23.3082 32.4588 23.2053 32.4445 23.1507C32.4302 23.0959 32.419 23.1542 32.4196 23.2799ZM82.3135 23.2799C82.3144 23.4056 82.3261 23.4502 82.3395 23.3794C82.3532 23.3082 82.3527 23.2053 82.3384 23.1507C82.3241 23.0959 82.3129 23.1542 82.3135 23.2799ZM24.9401 36.9107C24.9401 37.2722 24.9492 37.4202 24.9607 37.2393C24.9718 37.0587 24.9718 36.763 24.9607 36.5821C24.9492 36.4015 24.9401 36.5492 24.9401 36.9107ZM89.3507 37.1965C89.3507 37.558 89.3598 37.706 89.3712 37.5251C89.3824 37.3445 89.3824 37.0487 89.3712 36.8679C89.3598 36.6873 89.3507 36.835 89.3507 37.1965ZM24.9401 41.1114C24.9404 41.4886 24.9495 41.6355 24.9607 41.4377C24.9718 41.24 24.9718 40.9314 24.9607 40.7519C24.9492 40.5725 24.9401 40.7342 24.9401 41.1114ZM89.3507 41.3972C89.351 41.7744 89.3601 41.9213 89.3712 41.7235C89.3824 41.5258 89.3824 41.2171 89.3712 41.0377C89.3598 40.8582 89.3507 41.02 89.3507 41.3972ZM24.9932 43.6833C24.9935 43.8719 25.0041 43.9422 25.017 43.8393C25.0295 43.7367 25.0295 43.5824 25.0164 43.4964C25.0032 43.4106 24.993 43.4947 24.9932 43.6833ZM89.2895 43.969C89.2898 44.1576 89.3004 44.2279 89.3132 44.125C89.3258 44.0225 89.3258 43.8681 89.3127 43.7821C89.2995 43.6964 89.2892 43.7804 89.2895 43.969ZM25.0481 45.3121C25.0481 45.4536 25.0593 45.5116 25.073 45.4407C25.0867 45.3701 25.0867 45.2544 25.073 45.1835C25.0593 45.1129 25.0481 45.1706 25.0481 45.3121ZM89.2301 45.5979C89.2301 45.7393 89.2412 45.7973 89.2549 45.7265C89.2687 45.6559 89.2687 45.5401 89.2549 45.4693C89.2412 45.3987 89.2301 45.4564 89.2301 45.5979ZM25.1041 46.598C25.105 46.7238 25.1167 46.7683 25.1301 46.6975C25.1438 46.6263 25.1433 46.5234 25.129 46.4689C25.1147 46.414 25.1035 46.4723 25.1041 46.598ZM89.1718 46.8838C89.1726 47.0095 89.1844 47.0541 89.1978 46.9832C89.2115 46.9121 89.2109 46.8092 89.1966 46.7546C89.1824 46.6998 89.1712 46.7581 89.1718 46.8838ZM25.1601 47.7125C25.1601 47.8225 25.1721 47.8677 25.1864 47.8125C25.2007 47.7576 25.2007 47.6676 25.1864 47.6125C25.1721 47.5576 25.1601 47.6025 25.1601 47.7125ZM89.1135 47.9983C89.1135 48.1083 89.1255 48.1534 89.1398 48.0983C89.1541 48.0434 89.1541 47.9534 89.1398 47.8982C89.1255 47.8434 89.1135 47.8882 89.1135 47.9983ZM40.3666 52.799C40.3666 52.9719 40.3772 53.0428 40.3903 52.9562C40.4035 52.8699 40.4035 52.7285 40.3903 52.6419C40.3772 52.5553 40.3666 52.6262 40.3666 52.799ZM73.915 53.0848C73.915 53.2577 73.9256 53.3286 73.9387 53.242C73.9519 53.1557 73.9519 53.0142 73.9387 52.9276C73.9256 52.841 73.915 52.9119 73.915 53.0848ZM38.4635 85.1186C38.7292 85.3858 38.9595 85.6044 38.9753 85.6044C38.991 85.6044 38.7864 85.3858 38.5206 85.1186C38.2549 84.8514 38.0245 84.6328 38.0088 84.6328C37.9931 84.6328 38.1977 84.8514 38.4635 85.1186ZM75.7827 85.4187L75.2981 85.9188L75.7982 85.4341C76.2625 84.9843 76.3243 84.9186 76.2828 84.9186C76.2742 84.9186 76.0491 85.1438 75.7827 85.4187Z" fill="#14192C"/>
</svg>
