<svg viewBox="0 0 1078 200" fill="none" xmlns="http://www.w3.org/2000/svg">
    <g clip-path="url(#clip0_1_26)">
        <path fill-rule="evenodd" clip-rule="evenodd"
            d="M196.578 126.025C200.159 112.688 200.94 98.7557 198.873 85.1028C196.806 71.4499 191.934 58.3724 184.565 46.6928C177.196 35.0132 167.488 24.9843 156.053 17.2368C144.618 9.48941 131.703 4.19112 118.12 1.67522C104.537 -0.840683 90.5797 -0.519744 77.1267 2.61785C63.6738 5.75544 51.0159 11.6418 39.9494 19.9066C28.8828 28.1715 19.647 38.636 12.8229 50.642C5.99878 62.6479 1.73402 75.9356 0.296875 89.669H17.2335C19.5541 71.3251 27.9415 54.2826 41.0629 41.2496C54.1843 28.2167 71.2869 19.941 89.653 17.7376C108.019 15.5342 126.595 19.5296 142.429 29.0887C158.263 38.6479 170.447 53.2225 177.044 70.4965L160.588 74.8982C156.908 66.0554 151.338 58.1243 144.267 51.6612C137.196 45.198 128.797 40.3593 119.658 37.4843L116.623 54.597C125.592 57.8879 133.386 63.757 139.025 71.4657C144.664 79.1743 147.896 88.3781 148.314 97.9185C148.732 107.459 146.317 116.91 141.374 125.082C136.43 133.254 129.179 139.781 120.533 143.843L125.035 160.631C138.378 155.108 149.527 145.342 156.755 132.845C163.983 120.348 166.888 105.817 165.019 91.5031L181.42 87.1296C183.151 98.0656 182.642 109.239 179.924 119.973L196.578 126.025Z"
            fill="#1BD96A" />
        <path
            d="M125.797 196.578C111.561 200.398 96.6581 201.029 82.1508 198.426C67.6435 195.822 53.8902 190.049 41.8733 181.518C29.8563 172.988 19.8721 161.91 12.6337 149.076C5.39538 136.242 1.08144 121.969 0 107.275H16.9366C17.3772 111.998 18.2176 116.675 19.4489 121.256C20.7334 126.061 22.4481 130.74 24.5722 135.237L39.6458 126.194C35.2357 115.982 33.4908 104.819 34.5746 93.7489C35.6584 82.6791 39.5355 72.0655 45.8425 62.9022C52.1496 53.7388 60.6804 46.3256 70.6357 41.3568C80.5911 36.3881 91.6452 34.0265 102.763 34.4932L99.7001 51.606C92.2843 51.6398 84.975 53.3721 78.3335 56.67C71.6919 59.9678 65.895 64.7434 61.3879 70.63C56.8808 76.5165 53.7835 83.3574 52.3339 90.627C50.8843 97.8967 51.1209 105.402 53.0257 112.566C53.4632 114.16 53.929 115.74 54.5358 117.151L73.8153 105.597L68.0428 90.2473L86.2496 71.5544L109.269 66.6026L115.889 74.8274L105.275 85.5635L96.0305 88.4697L89.4111 95.2697L92.6573 104.27C92.6573 104.27 99.2061 111.24 99.2202 111.24L108.493 108.785L115.084 101.548L129.48 96.9767L133.714 106.626L118.923 124.811L94.0264 132.669L82.8482 120.24L63.3852 131.936C68.3953 137.636 74.6712 142.083 81.7102 144.923C88.7492 147.762 96.3556 148.914 103.92 148.287L108.422 165.117C97.1879 166.584 85.7649 165.124 75.2606 160.88C64.7563 156.636 55.5269 149.752 48.4669 140.894L33.4498 149.895C42.0264 161.15 53.3399 170.025 66.315 175.678C79.2902 181.331 93.496 183.574 107.582 182.192C121.669 180.811 135.168 175.852 146.797 167.787C158.426 159.722 167.798 148.818 174.024 136.112L190.678 142.164C184.512 155.431 175.504 167.182 164.293 176.585C153.081 185.988 139.939 192.813 125.797 196.578Z"
            fill="#1BD96A" />
        <path
            d="M356.568 70.88C364.163 70.88 370.867 72.3633 376.682 75.33C382.615 78.2967 387.243 82.8653 390.566 89.036C393.889 95.088 395.55 102.92 395.55 112.532V167H373.3V115.38C373.3 106.955 371.461 100.665 367.782 96.512C364.103 92.3587 358.823 90.282 351.94 90.282C347.075 90.282 342.743 91.35 338.946 93.486C335.267 95.622 332.36 98.7667 330.224 102.92C328.207 107.073 327.198 112.354 327.198 118.762V167H304.948V115.38C304.948 106.955 303.109 100.665 299.43 96.512C295.751 92.3587 290.471 90.282 283.588 90.282C278.723 90.282 274.391 91.35 270.594 93.486C266.915 95.622 264.008 98.7667 261.872 102.92C259.855 107.073 258.846 112.354 258.846 118.762V167H236.596V71.948H257.778V97.224L254.04 89.748C257.244 83.5773 261.872 78.89 267.924 75.686C274.095 72.482 281.096 70.88 288.928 70.88C297.828 70.88 305.541 73.0753 312.068 77.466C318.713 81.8567 323.104 88.502 325.24 97.402L316.518 94.376C319.603 87.256 324.706 81.56 331.826 77.288C338.946 73.016 347.193 70.88 356.568 70.88ZM466.877 168.246C457.146 168.246 448.483 166.169 440.889 162.016C433.294 157.744 427.301 151.929 422.911 144.572C418.52 137.215 416.325 128.849 416.325 119.474C416.325 109.981 418.52 101.615 422.911 94.376C427.301 87.0187 433.294 81.2633 440.889 77.11C448.483 72.9567 457.146 70.88 466.877 70.88C476.726 70.88 485.448 72.9567 493.043 77.11C500.756 81.2633 506.749 86.9593 511.021 94.198C515.411 101.437 517.607 109.862 517.607 119.474C517.607 128.849 515.411 137.215 511.021 144.572C506.749 151.929 500.756 157.744 493.043 162.016C485.448 166.169 476.726 168.246 466.877 168.246ZM466.877 149.2C472.335 149.2 477.201 148.013 481.473 145.64C485.745 143.267 489.067 139.825 491.441 135.316C493.933 130.807 495.179 125.526 495.179 119.474C495.179 113.303 493.933 108.023 491.441 103.632C489.067 99.1227 485.745 95.6813 481.473 93.308C477.201 90.9347 472.395 89.748 467.055 89.748C461.596 89.748 456.731 90.9347 452.459 93.308C448.305 95.6813 444.983 99.1227 442.491 103.632C439.999 108.023 438.753 113.303 438.753 119.474C438.753 125.526 439.999 130.807 442.491 135.316C444.983 139.825 448.305 143.267 452.459 145.64C456.731 148.013 461.537 149.2 466.877 149.2ZM579.111 168.246C569.974 168.246 561.726 166.229 554.369 162.194C547.13 158.041 541.434 152.345 537.281 145.106C533.128 137.867 531.051 129.323 531.051 119.474C531.051 109.625 533.128 101.081 537.281 93.842C541.434 86.6033 547.13 80.9667 554.369 76.932C561.726 72.8973 569.974 70.88 579.111 70.88C587.062 70.88 594.182 72.66 600.471 76.22C606.76 79.6613 611.744 84.942 615.423 92.062C619.102 99.182 620.941 108.319 620.941 119.474C620.941 130.51 619.161 139.647 615.601 146.886C612.041 154.006 607.116 159.346 600.827 162.906C594.538 166.466 587.299 168.246 579.111 168.246ZM581.781 149.2C587.121 149.2 591.868 148.013 596.021 145.64C600.293 143.267 603.675 139.825 606.167 135.316C608.778 130.807 610.083 125.526 610.083 119.474C610.083 113.303 608.778 108.023 606.167 103.632C603.675 99.1227 600.293 95.6813 596.021 93.308C591.868 90.9347 587.121 89.748 581.781 89.748C576.441 89.748 571.635 90.9347 567.363 93.308C563.21 95.6813 559.828 99.1227 557.217 103.632C554.725 108.023 553.479 113.303 553.479 119.474C553.479 125.526 554.725 130.807 557.217 135.316C559.828 139.825 563.21 143.267 567.363 145.64C571.635 148.013 576.441 149.2 581.781 149.2ZM610.617 167V144.572L611.507 119.296L609.727 94.02V34.924H631.799V167H610.617ZM661.084 167V71.948H682.266V98.114L679.774 90.46C682.622 84.052 687.072 79.1867 693.124 75.864C699.295 72.5413 706.949 70.88 716.086 70.88V92.062C715.137 91.8247 714.247 91.706 713.416 91.706C712.586 91.5873 711.755 91.528 710.924 91.528C702.499 91.528 695.794 94.02 690.81 99.004C685.826 103.869 683.334 111.167 683.334 120.898V167H661.084ZM734.961 167V71.948H757.211V167H734.961ZM746.175 56.284C742.022 56.284 738.581 54.9787 735.851 52.368C733.241 49.7573 731.935 46.6127 731.935 42.934C731.935 39.1367 733.241 35.992 735.851 33.5C738.581 30.8893 742.022 29.584 746.175 29.584C750.329 29.584 753.711 30.83 756.321 33.322C759.051 35.6953 760.415 38.7213 760.415 42.4C760.415 46.316 759.11 49.6387 756.499 52.368C753.889 54.9787 750.447 56.284 746.175 56.284ZM840.348 70.88C847.943 70.88 854.707 72.3633 860.64 75.33C866.692 78.2967 871.439 82.8653 874.88 89.036C878.322 95.088 880.042 102.92 880.042 112.532V167H857.792V115.38C857.792 106.955 855.775 100.665 851.74 96.512C847.824 92.3587 842.306 90.282 835.186 90.282C829.965 90.282 825.337 91.35 821.302 93.486C817.268 95.622 814.123 98.826 811.868 103.098C809.732 107.251 808.664 112.532 808.664 118.94V167H786.414V71.948H807.596V97.58L803.858 89.748C807.181 83.696 811.987 79.068 818.276 75.864C824.684 72.5413 832.042 70.88 840.348 70.88ZM944.046 168.246C933.603 168.246 925.534 165.576 919.838 160.236C914.142 154.777 911.294 146.767 911.294 136.206V50.944H933.544V135.672C933.544 140.181 934.671 143.682 936.926 146.174C939.299 148.666 942.563 149.912 946.716 149.912C951.7 149.912 955.853 148.607 959.176 145.996L965.406 161.838C962.795 163.974 959.591 165.576 955.794 166.644C951.997 167.712 948.081 168.246 944.046 168.246ZM895.63 90.46V72.66H958.998V90.46H895.63ZM1037.64 70.88C1045.24 70.88 1052 72.3633 1057.94 75.33C1063.99 78.2967 1068.73 82.8653 1072.18 89.036C1075.62 95.088 1077.34 102.92 1077.34 112.532V167H1055.09V115.38C1055.09 106.955 1053.07 100.665 1049.04 96.512C1045.12 92.3587 1039.6 90.282 1032.48 90.282C1027.26 90.282 1022.63 91.35 1018.6 93.486C1014.56 95.622 1011.42 98.826 1009.16 103.098C1007.03 107.251 1005.96 112.532 1005.96 118.94V167H983.709V34.924H1005.96V97.58L1001.15 89.748C1004.48 83.696 1009.28 79.068 1015.57 75.864C1021.98 72.5413 1029.34 70.88 1037.64 70.88Z"
            fill="white" />
    </g>
    <defs>
        <clipPath id="clip0_1_26">
            <rect width="1078" height="200" fill="white" />
        </clipPath>
    </defs>
</svg>