<svg width="12" height="16" viewBox="0 0 12 16" fill="none" xmlns="http://www.w3.org/2000/svg">
<path fill-rule="evenodd" clip-rule="evenodd" d="M12 15C12 15.5523 11.5523 16 11 16C10.4477 16 10 15.5523 10 15V12C10 11.446 9.554 11 9 11H3C2.446 11 2 11.446 2 12V15C2 15.5523 1.55228 16 1 16C0.44772 16 0 15.5523 0 15V12C0 10.338 1.338 9 3 9H9C10.662 9 12 10.338 12 12V15ZM8 4C8 4.53043 7.78929 5.03914 7.41421 5.41421C7.03914 5.78929 6.53043 6 6 6C5.46957 6 4.96086 5.78929 4.58579 5.41421C4.21071 5.03914 4 4.53043 4 4C4 3.46957 4.21071 2.96086 4.58579 2.58579C4.96086 2.21071 5.46957 2 6 2C6.53043 2 7.03914 2.21071 7.41421 2.58579C7.78929 2.96086 8 3.46957 8 4ZM10 4C10 5.06087 9.57857 6.07828 8.82843 6.82843C8.07828 7.57857 7.06087 8 6 8C4.93913 8 3.92172 7.57857 3.17157 6.82843C2.42143 6.07828 2 5.06087 2 4C2 2.93913 2.42143 1.92172 3.17157 1.17157C3.92172 0.421427 4.93913 0 6 0C7.06087 0 8.07828 0.421427 8.82843 1.17157C9.57857 1.92172 10 2.93913 10 4Z" fill="#FFF8F0"/>
</svg>
