<svg width="12" height="12" viewBox="0 0 12 12" fill="none" xmlns="http://www.w3.org/2000/svg">
<path fill-rule="evenodd" clip-rule="evenodd" d="M8 5C8 5.79565 7.68393 6.55871 7.12132 7.12132C6.55871 7.68393 5.79565 8 5 8C4.20435 8 3.44129 7.68393 2.87868 7.12132C2.31607 6.55871 2 5.79565 2 5C2 4.20435 2.31607 3.44129 2.87868 2.87868C3.44129 2.31607 4.20435 2 5 2C5.79565 2 6.55871 2.31607 7.12132 2.87868C7.68393 3.44129 8 4.20435 8 5ZM5 -4.76837e-07C3.67392 -4.76837e-07 2.40215 0.526784 1.46447 1.46447C0.526784 2.40215 0 3.67392 0 5C0 6.32608 0.526784 7.59785 1.46447 8.53553C2.40215 9.47322 3.67392 10 5 10C5.97965 9.99843 6.93727 9.70911 7.7539 9.16797L10.293 11.7071C10.6835 12.0976 11.3165 12.0976 11.7071 11.7071C12.0976 11.3165 12.0976 10.6836 11.7071 10.293L9.168 7.75387C9.70914 6.93724 9.99846 5.97962 10 4.99997C10 4.34336 9.8707 3.69318 9.61943 3.08655C9.36815 2.47992 8.99986 1.92873 8.53556 1.46444C8.07127 1.00014 7.52008 0.631845 6.91345 0.380572C6.30682 0.129298 5.65661 -4.76837e-07 5 -4.76837e-07Z" fill="currentColor"/>
</svg>
