<svg width="16" height="16" viewBox="0 0 16 16" fill="none" xmlns="http://www.w3.org/2000/svg">
<g clip-path="url(#clip0_142_90)">
<path fill-rule="evenodd" clip-rule="evenodd" d="M8 4C7.446 4 7 4.446 7 5V9H11C11.554 9 12 8.554 12 8C12 7.446 11.554 7 11 7H9V5C9 4.446 8.554 4 8 4ZM16 8C16 10.1217 15.1571 12.1566 13.6569 13.6569C12.1566 15.1571 10.1217 16 8 16C5.87827 16 3.84344 15.1571 2.34315 13.6569C0.842855 12.1566 0 10.1217 0 8C0 5.87827 0.842855 3.84344 2.34315 2.34315C3.84344 0.842855 5.87827 0 8 0C10.1217 0 12.1566 0.842855 13.6569 2.34315C15.1571 3.84344 16 5.87827 16 8ZM14 8C14 9.5913 13.3679 11.1174 12.2426 12.2426C11.1174 13.3679 9.5913 14 8 14C6.4087 14 4.88258 13.3679 3.75736 12.2426C2.63214 11.1174 2 9.5913 2 8C2 6.4087 2.63214 4.88258 3.75736 3.75736C4.88258 2.63214 6.4087 2 8 2C9.5913 2 11.1174 2.63214 12.2426 3.75736C13.3679 4.88258 14 6.4087 14 8Z"/>
</g>
<defs>
<clipPath id="clip0_142_90">
<rect width="16" height="16"/>
</clipPath>
</defs>
</svg>
