<svg xmlns="http://www.w3.org/2000/svg" width="16" height="16" viewBox="0 0 16 16" fill="none">
  <g clip-path="url(#clip0_538_1080)">
    <path d="M15.1213 5.1213C16.2929 3.9497 16.2929 2.0502 15.1213 0.8787C13.9497 -0.2929 12.0502 -0.2929 10.8787 0.8787L9.086 2.6719L7.7071 1.293C7.31658 0.90248 6.6836 0.90248 6.293 1.293C5.90248 1.68352 5.90248 2.3165 6.293 2.7071L7.6719 4.086L0 11.7579V16.0001H4.2422L11.9141 8.3282L13.293 9.7071C13.6835 10.0976 14.3165 10.0976 14.7071 9.7071C15.0976 9.31658 15.0976 8.6836 14.7071 8.293L13.3282 6.9141L15.1213 5.1213ZM9.0859 5.49998L10.5 6.91408L3.4141 14L2 14V12.5859L9.0859 5.49998Z" fill="currentColor"/>
  </g>
  <defs>
    <clipPath id="clip0_538_1080">
      <rect width="16" height="16" fill="white"/>
    </clipPath>
  </defs>
</svg>