<svg xmlns="http://www.w3.org/2000/svg" width="16" height="16" viewBox="0 0 16 16" fill="none">
  <path d="M11 2C12.662 2 14 3.338 14 5V7H15C15.554 7 16 7.446 16 8C16 8.554 15.554 9 15 9H14V11C14 12.662 12.662 14 11 14C10.4477 14 10 13.5523 10 13C10 12.4477 10.4477 12 11 12C11.554 12 12 11.554 12 11V5C12 4.446 11.554 4 11 4C10.4477 4 10 3.55228 10 3C10 2.44772 10.4477 2 11 2ZM5 2C3.338 2 2 3.338 2 5V7H1C0.446 7 0 7.446 0 8C0 8.554 0.446 9 1 9H2V11C2 12.662 3.338 14 5 14C5.55228 14 6 13.5523 6 13C6 12.4477 5.55228 12 5 12C4.446 12 4 11.554 4 11V5C4 4.446 4.446 4 5 4C5.55228 4 6 3.55228 6 3C6 2.44772 5.55228 2 5 2Z" fill="currentColor"/>
</svg>