<svg width="16" height="14" viewBox="0 0 16 14" fill="none" xmlns="http://www.w3.org/2000/svg">
<path d="M3.63014 12.9376C2.47081 12.5255 1.42474 11.9935 0.442642 11.3164L0.0832668 11.0687L0.0626277 10.8996C0.0512765 10.8066 0.031924 10.4141 0.0196224 10.0274C-0.0664129 7.32275 0.634456 4.80932 2.15768 2.35996C2.41694 1.94307 2.43344 1.92396 2.59889 1.84913C2.89346 1.7159 3.6005 1.44529 3.92201 1.34271C4.55459 1.1409 5.6865 0.875625 5.74935 0.914462C5.76368 0.923321 5.86441 1.11056 5.97319 1.33056C6.08196 1.55055 6.17478 1.73535 6.17945 1.74122C6.18412 1.74709 6.39642 1.72659 6.65123 1.69566C7.30233 1.61664 8.70996 1.61689 9.3634 1.69615C9.6206 1.72735 9.83554 1.74082 9.84106 1.72609C9.84657 1.71135 9.9386 1.52351 10.0456 1.30867L10.24 0.918044L10.3804 0.927079C10.4576 0.932048 10.7106 0.979411 10.9426 1.03233C11.7376 1.21363 12.4851 1.45542 13.2407 1.77563L13.5544 1.90857L13.7916 2.27268C14.9919 4.11495 15.7342 6.21062 15.9463 8.35554C15.9923 8.82159 16.0022 10.2252 15.963 10.7242L15.9364 11.0617L15.6111 11.2867C14.8611 11.8055 13.9727 12.2956 13.1763 12.6299C12.7596 12.8048 11.9671 13.0904 11.9012 13.0894C11.8294 13.0883 11.0364 11.8171 11.0364 11.703C11.0364 11.6956 11.1454 11.6444 11.2786 11.5893C11.7257 11.4044 12.3489 11.0795 12.3489 11.0313C12.3489 11.019 12.2795 10.9561 12.1946 10.8914C12.0454 10.7776 12.0374 10.7753 11.9493 10.8209C11.6081 10.9973 10.8277 11.2664 10.2239 11.4159C9.42512 11.6137 8.94221 11.6676 7.98952 11.6655C7.07878 11.6635 6.72266 11.6262 5.92662 11.4494C5.50624 11.356 4.58728 11.0574 4.20959 10.8914C4.03779 10.8159 3.94602 10.7909 3.91272 10.8103C3.79393 10.8796 3.65377 11.0211 3.67304 11.0522C3.70564 11.105 4.23472 11.3816 4.58327 11.5282C4.75514 11.6005 4.91315 11.6759 4.93439 11.6958C4.96466 11.7241 4.925 11.8164 4.75133 12.1219C4.48141 12.5966 4.15686 13.0719 4.09649 13.0809C4.07203 13.0845 3.86217 13.02 3.63014 12.9376ZM5.89456 9.09507C6.30525 8.90289 6.62963 8.48694 6.74214 8.00825C6.84651 7.56417 6.75754 7.01766 6.52395 6.66804C5.99664 5.87883 4.9845 5.76812 4.37102 6.43254C4.16394 6.65681 4.05108 6.86622 3.97321 7.17071C3.75856 8.00997 4.1854 8.88035 4.9418 9.14581C5.23775 9.24968 5.6061 9.23006 5.89456 9.09507ZM11.2388 9.07768C11.9998 8.70157 12.3192 7.69948 11.9465 6.85699C11.5886 6.04797 10.6093 5.75022 9.91091 6.23812C9.25874 6.69375 9.04351 7.61521 9.41381 8.36636C9.69486 8.93644 10.1641 9.23002 10.7503 9.20247C10.9726 9.19202 11.0448 9.17358 11.2388 9.07768Z" fill="#FFF8F0"/>
</svg>
