<?xml version="1.0" encoding="utf-8"?>
<svg viewBox="269.05 133.509 12 12.368" xmlns="http://www.w3.org/2000/svg">
  <path d="M 280.05 143.877 L 270.05 143.877 C 269.498 143.877 269.05 144.325 269.05 144.877 C 269.05 145.429 269.498 145.877 270.05 145.877 L 280.05 145.877 C 280.603 145.877 281.05 145.429 281.05 144.877 C 281.05 144.325 280.603 143.877 280.05 143.877 Z"/>
  <path d="M 276.065 134.509 C 276.065 133.955 275.619 133.509 275.065 133.509 C 274.511 133.509 274.065 133.955 274.065 134.509 L 274.065 139.095 L 272.772 137.802 C 272.381 137.41 271.75 137.41 271.358 137.802 C 270.967 138.193 270.967 138.826 271.358 139.218 L 275.065 142.923 L 278.772 139.218 C 279.164 138.826 279.164 138.193 278.772 137.802 C 278.381 137.41 277.75 137.41 277.358 137.802 L 276.065 139.095 L 276.065 134.509 Z"/>
</svg>