<svg width="16" height="16" viewBox="0 0 16 16" fill="none" xmlns="http://www.w3.org/2000/svg">
<path opacity="0.5" d="M6.2422 1L8.2422 3H10.586L9.4141 4.1719L10.8282 5.586L13.7071 2.7071C13.9931 2.4211 14.0787 1.99093 13.9239 1.6173C13.7691 1.24363 13.4045 1.00011 13.0001 1.00011L6.2422 1ZM2 5.2422V14C2 14.5523 2.44772 15 3 15C3.55228 15 4 14.5523 4 14V11H7.7578L5.7578 9H4V7.2422L2 5.2422Z" fill="currentColor"/>
<path d="M13.708 11.2937L3.70808 1.29379C3.31756 0.903268 2.68439 0.903268 2.29387 1.29379C1.90335 1.68432 1.90335 2.31748 2.29387 2.70801L12.2938 12.7079C12.6843 13.0984 13.3175 13.0984 13.708 12.7079C14.0985 12.3174 14.0985 11.6842 13.708 11.2937Z" fill="currentColor"/>
</svg>
