<svg xmlns="http://www.w3.org/2000/svg" width="16" height="16" viewBox="0 0 16 16" fill="none">
  <g clip-path="url(#clip0_572_167)">
    <path d="M12 8C12 9.06087 11.5786 10.0783 10.8284 10.8284C10.0783 11.5786 9.06087 12 8 12C6.93913 12 5.92172 11.5786 5.17157 10.8284C4.42143 10.0783 4 9.06087 4 8C4 6.93913 4.42143 5.92172 5.17157 5.17157C5.92172 4.42143 6.93913 4 8 4C9.06087 4 10.0783 4.42143 10.8284 5.17157C11.5786 5.92172 12 6.93913 12 8ZM8 0C7.446 0 7 0.446 7 1V2.0918C6.11096 2.24445 5.26779 2.59559 4.5332 3.1191L3.75781 2.34371C3.36607 1.95197 2.73551 1.95197 2.34371 2.34371C1.95191 2.73545 1.95197 3.36601 2.34371 3.75781L3.1191 4.5332C2.59559 5.26779 2.24445 6.11096 2.0918 7H1C0.446 7 0 7.446 0 8C0 8.554 0.446 9 1 9H2.0918C2.24445 9.88904 2.59559 10.7322 3.1191 11.4668L2.34371 12.2422C1.95197 12.6339 1.95197 13.2645 2.34371 13.6563C2.73545 14.0481 3.36601 14.048 3.75781 13.6563L4.5332 12.8809C5.26779 13.4044 6.11096 13.7556 7 13.9082V15C7 15.554 7.446 16 8 16C8.554 16 9 15.554 9 15V13.9082C9.88904 13.7556 10.7322 13.4044 11.4668 12.8809L12.2422 13.6563C12.6339 14.048 13.2645 14.048 13.6563 13.6563C14.0481 13.2646 14.048 12.634 13.6563 12.2422L12.8809 11.4668C13.4044 10.7322 13.7556 9.88904 13.9082 9H15C15.554 9 16 8.554 16 8C16 7.446 15.554 7 15 7H13.9141C13.7631 6.1084 13.4126 5.26246 12.8887 4.5254L13.6563 3.75782C14.048 3.36608 14.048 2.73552 13.6563 2.34372C13.2645 1.95192 12.634 1.95198 12.2422 2.34372L11.4746 3.1113C10.7375 2.58739 9.8916 2.23685 9 2.0859V1C9 0.446 8.554 0 8 0Z" fill="currentColor"/>
  </g>
  <defs>
    <clipPath id="clip0_572_167">
      <rect width="16" height="16" fill="currentColor"/>
    </clipPath>
  </defs>
</svg>