<svg width="17" height="16" viewBox="0 0 17 16" fill="none" xmlns="http://www.w3.org/2000/svg">
<path fill-rule="evenodd" clip-rule="evenodd" d="M8.5 0C6.37827 0 4.34344 0.842855 2.84315 2.34315C1.34285 3.84344 0.5 5.87827 0.5 8C0.5 10.1217 1.34285 12.1566 2.84315 13.6569C4.34344 15.1571 6.37827 16 8.5 16C10.6217 16 12.6566 15.1571 14.1569 13.6569C15.6571 12.1566 16.5 10.1217 16.5 8C16.5 5.87827 15.6571 3.84344 14.1569 2.34315C12.6566 0.842855 10.6217 0 8.5 0ZM8.5 2C8.85439 2.00049 9.19729 2.50287 9.46792 3.4181C9.73855 4.33332 9.91944 5.60226 9.9785 7H7.0215C7.08057 5.60226 7.26144 4.33332 7.53208 3.4181C7.80271 2.50287 8.14561 2.00049 8.5 2ZM11.0742 2.58008C11.9451 2.99418 12.7034 3.61211 13.2847 4.3815C13.8661 5.1509 14.2535 6.04909 14.414 6.99998H11.9667C11.8773 5.35052 11.5654 3.80567 11.0742 2.58008ZM5.9316 2.58985C5.4398 3.81167 5.12649 5.35297 5.03512 7.00005H2.58982C2.75199 6.0507 3.14032 5.15434 3.72198 4.38672C4.30364 3.6191 5.06151 3.00278 5.9316 2.58985ZM2.5898 9.00005H5.0351C5.12647 10.6471 5.43978 12.1884 5.93158 13.4102C5.06149 12.9973 4.3036 12.381 3.72194 11.6134C3.14028 10.8458 2.75197 9.9494 2.5898 9.00005ZM7.0214 9.00005H9.9784C9.91934 10.3978 9.73846 11.6667 9.46782 12.582C9.19719 13.4972 8.85429 13.9996 8.4999 14C8.14551 13.9996 7.80261 13.4972 7.53198 12.582C7.26134 11.6667 7.08047 10.3978 7.0214 9.00005ZM11.9648 9.00005H14.4101C14.2479 9.9494 13.8596 10.8458 13.2779 11.6134C12.6963 12.381 11.9384 12.9973 11.0683 13.4102C11.5601 12.1884 11.8734 10.6471 11.9648 9.00005Z"/>
</svg>
