<svg width="16" height="16" viewBox="0 0 16 16" fill="none" xmlns="http://www.w3.org/2000/svg">
<path fill-rule="evenodd" clip-rule="evenodd" d="M8.00001 0.585939L0.293012 8.29294C-0.0975079 8.68346 -0.0975079 9.31644 0.293012 9.70704C0.683532 10.0976 1.31651 10.0976 1.70711 9.70704L2.00008 9.41407V13C2.00008 14.662 3.33808 16 5.00008 16H11.0001C12.6621 16 14.0001 14.662 14.0001 13V9.41407L14.2931 9.70704C14.6836 10.0976 15.3166 10.0976 15.7072 9.70704C16.0977 9.31652 16.0977 8.68354 15.7072 8.29294L8.00001 0.585939ZM8.00001 3.41404L12 7.41404V12.9999C12 13.5539 11.554 13.9999 11 13.9999H5.00001C4.44601 13.9999 4.00001 13.5539 4.00001 12.9999V7.41404L8.00001 3.41404Z" fill="#FFF8F0"/>
</svg>
