<svg width="16" height="16" viewBox="0 0 16 16" fill="currentColor" xmlns="http://www.w3.org/2000/svg">
<g clip-path="url(#clip0_142_83)">
<path fill-rule="evenodd" clip-rule="evenodd" d="M7 0C6.46957 0 5.96086 0.210714 5.58579 0.585786C5.21071 0.960859 5 1.46957 5 2H3C1.338 2 0 3.338 0 5V13C0 14.662 1.338 16 3 16H11C12.662 16 14 14.662 14 13V11C14.5304 11 15.0391 10.7893 15.4142 10.4142C15.7893 10.0391 16 9.53043 16 9C16 8.46957 15.7893 7.96086 15.4142 7.58579C15.0391 7.21071 14.5304 7 14 7V5C14 3.338 12.662 2 11 2H9C9 1.46957 8.78929 0.960859 8.41421 0.585786C8.03914 0.210714 7.53043 0 7 0ZM3 4H11C11.554 4 12 4.446 12 5V13C12 13.554 11.554 14 11 14H9C9 13.4696 8.78929 12.9609 8.41421 12.5858C8.03914 12.2107 7.53043 12 7 12C6.46957 12 5.96086 12.2107 5.58579 12.5858C5.21071 12.9609 5 13.4696 5 14H3C2.446 14 2 13.554 2 13V11C2.53043 11 3.03914 10.7893 3.41421 10.4142C3.78929 10.0391 4 9.53043 4 9C4 8.46957 3.78929 7.96086 3.41421 7.58579C3.03914 7.21071 2.53043 7 2 7V5C2 4.446 2.446 4 3 4Z"/>
</g>
<defs>
<clipPath id="clip0_142_83">
<rect width="16" height="16"/>
</clipPath>
</defs>
</svg>
