<svg width="16" height="16" viewBox="0 0 16 16" fill="none" xmlns="http://www.w3.org/2000/svg">
<path d="M5.5 0.0001268C4.17392 0.0001268 2.90215 0.526911 1.96447 1.46459C1.02678 2.40227 0.5 3.67404 0.5 5.00013C0.5 6.32621 1.02678 7.59798 1.96447 8.53566C2.90215 9.47334 4.17392 10.0001 5.5 10.0001C6.47793 9.99896 7.43404 9.71104 8.25 9.17201L9.78516 10.7072L8.91212 11.5841C8.13188 12.3666 8.13268 13.6328 8.91407 14.4142L9.49999 15.0001C10.2814 15.7815 11.5476 15.7823 12.3301 15.0021L13.207 14.129L13.7891 14.7111C13.8821 14.8051 13.9928 14.8797 14.1148 14.9307C14.2369 14.9816 14.3678 15.0078 14.5 15.0078C14.6322 15.0078 14.7632 14.9816 14.8852 14.9307C15.0072 14.8797 15.118 14.8051 15.211 14.7111C15.305 14.6181 15.3796 14.5074 15.4305 14.3853C15.4815 14.2633 15.5077 14.1324 15.5077 14.0001C15.5077 13.8679 15.4815 13.737 15.4305 13.6149C15.3796 13.4929 15.305 13.3822 15.211 13.2892L9.67175 7.75C10.2108 6.93404 10.4987 5.97793 10.4999 5C10.4999 4.34339 10.3705 3.69321 10.1193 3.08658C9.868 2.47995 9.4997 1.92876 9.03541 1.46447C8.57111 1.00017 8.01992 0.631876 7.41329 0.380602C6.80666 0.129329 6.15661 0.0001268 5.5 0.0001268ZM5.5 2.00013C6.29565 2.00013 7.05871 2.3162 7.62132 2.87881C8.18393 3.44142 8.5 4.20448 8.5 5.00013C8.5 5.79578 8.18393 6.55884 7.62132 7.12145C7.05871 7.68406 6.29565 8.00013 5.5 8.00013C4.70435 8.00013 3.94129 7.68406 3.37868 7.12145C2.81607 6.55884 2.5 5.79578 2.5 5.00013C2.5 4.20448 2.81607 3.44142 3.37868 2.87881C3.94129 2.3162 4.70435 2.00013 5.5 2.00013Z" fill="currentColor"/>
</svg>
