<svg width="16" height="16" viewBox="0 0 16 16" fill="none" xmlns="http://www.w3.org/2000/svg">
<path d="M4 5.25C4.69036 5.25 5.25 4.69036 5.25 4C5.25 3.30964 4.69036 2.75 4 2.75C3.30964 2.75 2.75 3.30964 2.75 4C2.75 4.69036 3.30964 5.25 4 5.25Z" fill="white"/>
<path d="M4 9.25C4.69036 9.25 5.25 8.69036 5.25 8C5.25 7.30964 4.69036 6.75 4 6.75C3.30964 6.75 2.75 7.30964 2.75 8C2.75 8.69036 3.30964 9.25 4 9.25Z" fill="white"/>
<path d="M4 13.25C4.69036 13.25 5.25 12.6904 5.25 12C5.25 11.3096 4.69036 10.75 4 10.75C3.30964 10.75 2.75 11.3096 2.75 12C2.75 12.6904 3.30964 13.25 4 13.25Z" fill="white"/>
<path d="M12 3H8C7.44772 3 7 3.44772 7 4C7 4.55228 7.44772 5 8 5H12C12.5523 5 13 4.55228 13 4C13 3.44772 12.5523 3 12 3Z" fill="white"/>
<path d="M12 7H8C7.44772 7 7 7.44772 7 8C7 8.55228 7.44772 9 8 9H12C12.5523 9 13 8.55228 13 8C13 7.44772 12.5523 7 12 7Z" fill="white"/>
<path d="M12 11H8C7.44772 11 7 11.4477 7 12C7 12.5523 7.44772 13 8 13H12C12.5523 13 13 12.5523 13 12C13 11.4477 12.5523 11 12 11Z" fill="white"/>
</svg>
