<svg width="126" height="154" viewBox="0 0 126 154" fill="none" xmlns="http://www.w3.org/2000/svg">
<path d="M25.55 13.0875C13.4375 19.2 3.425 24.3 3.3125 24.45C3.0125 24.75 76.2875 61.5 77.15 61.5C78.0125 61.5 121.962 38.85 121.887 38.4375C121.812 37.95 48.95 1.875 48.1625 1.9125C47.825 1.95 37.6625 6.975 25.55 13.0875Z" fill="#3A83F2"/>
<path d="M1.625 42.525V58.8375L39.3875 77.5875C60.125 87.9375 77.3375 96.375 77.5625 96.375C77.825 96.375 88.2875 91.1625 100.85 84.7875L123.688 73.1625L123.8 56.625C123.838 47.5125 123.763 40.125 123.575 40.2C122.413 40.6875 78.6125 63.1875 78.35 63.4125C78.125 63.6 77.75 63.75 77.4875 63.75C77.225 63.75 60.125 55.3125 39.5 45C18.875 34.6875 1.925 26.25 1.8125 26.25C1.7 26.25 1.625 33.6 1.625 42.525Z" fill="#1B48C4"/>
<path d="M35.375 87.7125V97.4625L53.6375 106.65C63.6875 111.713 72.125 115.875 72.3875 115.875C72.65 115.875 76.775 113.925 81.5 111.562L90.125 107.25V99.9375C90.125 95.925 90.0125 92.625 89.9 92.625C89.7875 92.625 87.05 93.975 83.7875 95.625C80.525 97.275 77.75 98.625 77.6 98.625C77.45 98.625 67.9625 93.975 56.4875 88.3125C45.0125 82.65 35.5625 78 35.525 78C35.45 78 35.375 82.3875 35.375 87.7125Z" fill="#0A199E"/>
<path d="M93.425 90.7875L92 91.5V108.375L82.55 113.138C77.3375 115.8 72.725 117.938 72.3125 117.938C71.9 117.938 63.3875 113.813 53.375 108.75C43.4 103.688 34.8125 99.4125 34.3625 99.2625C33.575 98.9625 33.5 98.7 33.425 94.725L33.3125 90.4875L20.8625 96.525C14 99.825 8.375 102.6 8.375 102.713C8.4125 103.013 61.475 129.15 62.3 129.3C63.2 129.45 117.65 102.375 117.275 102C116.975 101.738 95 89.9625 94.85 90C94.85 90.0375 94.175 90.375 93.425 90.7875Z" fill="#3A83F2"/>
<path d="M90.725 117.787C75.4625 125.4 62.825 131.625 62.675 131.625C62.2625 131.625 55.5875 128.4 29.225 115.35C16.8875 109.237 6.725 104.25 6.65 104.25C6.5375 104.25 6.5375 108.9 6.575 114.6L6.6875 124.912L34.4 138.6C49.625 146.1 62.3 152.25 62.5625 152.25C62.825 152.25 75.6125 146.1 90.95 138.6L118.813 124.95L118.925 114.412C118.963 108.6 118.888 103.875 118.738 103.912C118.55 103.912 105.95 110.175 90.725 117.787Z" fill="#1B48C4"/>
<path d="M25.55 13.0875C13.4375 19.2 3.425 24.3 3.3125 24.45C3.0125 24.75 76.2875 61.5 77.15 61.5C78.0125 61.5 121.962 38.85 121.887 38.4375C121.812 37.95 48.95 1.875 48.1625 1.9125C47.825 1.95 37.6625 6.975 25.55 13.0875Z" stroke="#121213" stroke-width="3"/>
<path d="M1.625 42.525V58.8375L39.3875 77.5875C60.125 87.9375 77.3375 96.375 77.5625 96.375C77.825 96.375 88.2875 91.1625 100.85 84.7875L123.688 73.1625L123.8 56.625C123.838 47.5125 123.763 40.125 123.575 40.2C122.413 40.6875 78.6125 63.1875 78.35 63.4125C78.125 63.6 77.75 63.75 77.4875 63.75C77.225 63.75 60.125 55.3125 39.5 45C18.875 34.6875 1.925 26.25 1.8125 26.25C1.7 26.25 1.625 33.6 1.625 42.525Z" stroke="#121213" stroke-width="3"/>
<path d="M35.375 87.7125V97.4625L53.6375 106.65C63.6875 111.713 72.125 115.875 72.3875 115.875C72.65 115.875 76.775 113.925 81.5 111.562L90.125 107.25V99.9375C90.125 95.925 90.0125 92.625 89.9 92.625C89.7875 92.625 87.05 93.975 83.7875 95.625C80.525 97.275 77.75 98.625 77.6 98.625C77.45 98.625 67.9625 93.975 56.4875 88.3125C45.0125 82.65 35.5625 78 35.525 78C35.45 78 35.375 82.3875 35.375 87.7125Z" stroke="#121213" stroke-width="3"/>
<path d="M93.425 90.7875L92 91.5V108.375L82.55 113.138C77.3375 115.8 72.725 117.938 72.3125 117.938C71.9 117.938 63.3875 113.813 53.375 108.75C43.4 103.688 34.8125 99.4125 34.3625 99.2625C33.575 98.9625 33.5 98.7 33.425 94.725L33.3125 90.4875L20.8625 96.525C14 99.825 8.375 102.6 8.375 102.713C8.4125 103.013 61.475 129.15 62.3 129.3C63.2 129.45 117.65 102.375 117.275 102C116.975 101.738 95 89.9625 94.85 90C94.85 90.0375 94.175 90.375 93.425 90.7875Z" stroke="#121213" stroke-width="3"/>
<path d="M90.725 117.787C75.4625 125.4 62.825 131.625 62.675 131.625C62.2625 131.625 55.5875 128.4 29.225 115.35C16.8875 109.237 6.725 104.25 6.65 104.25C6.5375 104.25 6.5375 108.9 6.575 114.6L6.6875 124.912L34.4 138.6C49.625 146.1 62.3 152.25 62.5625 152.25C62.825 152.25 75.6125 146.1 90.95 138.6L118.813 124.95L118.925 114.412C118.963 108.6 118.888 103.875 118.738 103.912C118.55 103.912 105.95 110.175 90.725 117.787Z" stroke="#121213" stroke-width="3"/>
</svg>
