<svg width="16" height="16" viewBox="0 0 16 16" fill="none" xmlns="http://www.w3.org/2000/svg">
<g clip-path="url(#clip0_737_1215)">
<path fill-rule="evenodd" clip-rule="evenodd" d="M10.7564 3.8293L7.80094 6.7848C6.98644 6.39792 6.04114 6.39792 5.22664 6.7848L9.22064 10.7788C9.60928 9.96159 9.60826 9.0126 9.21788 8.1962L12.1706 5.2435L10.7564 3.8293ZM10.0493 0.293805C9.65759 -0.097935 9.02683 -0.097935 8.63513 0.293805C8.24339 0.685545 8.24339 1.3163 8.63513 1.708L9.34224 2.41512L7.21814 4.53921C5.66154 4.31684 4.09104 4.83967 2.97824 5.95071L2.27113 6.65782L5.09953 9.48623L2.29283 12.2929C1.90109 12.6847 1.90109 13.3154 2.29283 13.7071C2.68457 14.0989 3.31533 14.0989 3.70703 13.7071L6.51373 10.9004L9.34213 13.7288L10.0492 13.0217C11.162 11.9089 11.686 10.337 11.4634 8.77911L13.5847 6.65781L14.2918 7.36492C14.6836 7.75666 15.3143 7.75666 15.706 7.36492C16.0978 6.97319 16.0978 6.34242 15.706 5.95072L10.0493 0.293805Z" fill="currentColor"/>
</g>
<defs>
<clipPath id="clip0_737_1215">
<rect width="16" height="16" fill="currentColor"/>
</clipPath>
</defs>
</svg>
