<svg width="16" height="16" viewBox="0 0 16 16" fill="none" xmlns="http://www.w3.org/2000/svg">
<path d="M5 2C3.338 2 2 3.338 2 5V11C2 12.662 3.338 14 5 14H11C12.662 14 14 12.662 14 11V10H12V11C12 11.554 11.554 12 11 12H5C4.446 12 4 11.554 4 11V5C4 4.446 4.446 4 5 4H6V2H5ZM8 2V4H10.5859L7.2929 7.293C7.1054 7.48053 7.00006 7.73486 7.00006 8.00005C7.00006 8.26524 7.1054 8.51957 7.2929 8.7071C7.48043 8.8946 7.73476 8.99994 7.99995 8.99994C8.26514 8.99994 8.51947 8.8946 8.707 8.7071L12 5.4141V8H14V5C14 3.338 12.662 2 11 2H8Z" fill="currentColor"/>
</svg>
