<svg width="20" height="20" viewBox="0 0 20 20" fill="none" xmlns="http://www.w3.org/2000/svg">
<g id="refresh 1">
<path id="Vector" d="M14.8614 5.13857C12.1765 2.45369 7.82353 2.45369 5.13866 5.13857C2.45378 7.82344 2.45378 12.1764 5.13866 14.8613C7.82353 17.5462 12.1765 17.5462 14.8614 14.8613C15.3496 14.3732 15.3496 13.5817 14.8614 13.0936C14.3733 12.6054 13.5818 12.6054 13.0937 13.0936C11.3852 14.8021 8.61503 14.8021 6.90653 13.0936C5.19803 11.3851 5.19803 8.61494 6.90653 6.90644C8.61503 5.19794 11.3852 5.19794 13.0937 6.90644L10.8839 9.11619H15.8212C16.5115 9.11619 17.0712 8.55653 17.0711 7.86621V2.92896L14.8614 5.13857Z" fill="white"/>
</g>
</svg>
