<svg width="16" height="16" viewBox="0 0 16 16" fill="none" xmlns="http://www.w3.org/2000/svg">
<path fill-rule="evenodd" clip-rule="evenodd" d="M4.5 8C2.57885 8 1 9.57885 1 11.5C1 13.4211 2.57885 15 4.5 15C6.07429 15 7.41741 13.94 7.85156 12.5H14C14.2652 12.5 14.5196 12.3946 14.7071 12.2071C14.8946 12.0196 15 11.7652 15 11.5C15 11.2348 14.8946 10.9804 14.7071 10.7929C14.5196 10.6054 14.2652 10.5 14 10.5H7.85156C7.41741 9.06003 6.07429 8 4.5 8ZM4.5 10C5.34027 10 6 10.6597 6 11.5C6 12.3403 5.34027 13 4.5 13C3.65973 13 3 12.3403 3 11.5C3 10.6597 3.65973 10 4.5 10Z" fill="white"/>
<path fill-rule="evenodd" clip-rule="evenodd" d="M11.5 1C9.92571 1 8.58259 2.06003 8.14844 3.5H2C1.73478 3.5 1.48043 3.60536 1.29289 3.79289C1.10536 3.98043 1 4.23478 1 4.5C1 4.76522 1.10536 5.01957 1.29289 5.20711C1.48043 5.39464 1.73478 5.5 2 5.5H8.14844C8.58259 6.93997 9.92571 8 11.5 8C13.4211 8 15 6.42115 15 4.5C15 2.57885 13.4211 1 11.5 1ZM11.5 3C12.3403 3 13 3.65973 13 4.5C13 5.34027 12.3403 6 11.5 6C10.6597 6 10 5.34027 10 4.5C10 3.65973 10.6597 3 11.5 3Z" fill="white"/>
</svg>
