<svg width="192" height="192" viewBox="0 0 192 192" fill="none" xmlns="http://www.w3.org/2000/svg">
<g id="smithed 1">
<path id="Vector" d="M56.5499 31.0875C44.4374 37.2 34.4249 42.3 34.3124 42.45C34.0124 42.75 107.287 79.5 108.15 79.5C109.012 79.5 152.962 56.85 152.887 56.4375C152.812 55.95 79.9499 19.875 79.1624 19.9125C78.8249 19.95 68.6624 24.975 56.5499 31.0875Z" fill="#3A83F2" stroke="#121213" />
<path id="Vector_2" d="M32.625 60.525V76.8375L70.3875 95.5875C91.125 105.938 108.338 114.375 108.562 114.375C108.825 114.375 119.288 109.162 131.85 102.787L154.688 91.1625L154.8 74.625C154.838 65.5125 154.763 58.125 154.575 58.2C153.413 58.6875 109.613 81.1875 109.35 81.4125C109.125 81.6 108.75 81.75 108.488 81.75C108.225 81.75 91.125 73.3125 70.5 63C49.875 52.6875 32.925 44.25 32.8125 44.25C32.7 44.25 32.625 51.6 32.625 60.525Z" fill="#1B48C4" stroke="#121213"/>
<path id="Vector_3" d="M66.375 105.712V115.462L84.6375 124.65C94.6875 129.712 103.125 133.875 103.387 133.875C103.65 133.875 107.775 131.925 112.5 129.562L121.125 125.25V117.937C121.125 113.925 121.012 110.625 120.9 110.625C120.787 110.625 118.05 111.975 114.787 113.625C111.525 115.275 108.75 116.625 108.6 116.625C108.45 116.625 98.9625 111.975 87.4875 106.312C76.0125 100.65 66.5625 96 66.525 96C66.45 96 66.375 100.388 66.375 105.712Z" fill="#0A199E" stroke="#121213"/>
<path id="Vector_4" d="M124.425 108.788L123 109.5V117.938V126.375L113.55 131.138C108.338 133.8 103.725 135.938 103.313 135.938C102.9 135.938 94.3875 131.813 84.375 126.75C74.4 121.688 65.8125 117.413 65.3625 117.263C64.575 116.963 64.5 116.7 64.425 112.725L64.3125 108.488L51.8625 114.525C45 117.825 39.375 120.6 39.375 120.713C39.4125 121.013 92.475 147.15 93.3 147.3C94.2 147.45 148.65 120.375 148.275 120C147.975 119.738 126 107.963 125.85 108C125.85 108.038 125.175 108.375 124.425 108.788Z" fill="#3A83F2" stroke="#121213"/>
<path id="Vector_5" d="M121.725 135.787C106.463 143.4 93.825 149.625 93.675 149.625C93.2625 149.625 86.5875 146.4 60.225 133.35C47.8875 127.237 37.725 122.25 37.65 122.25C37.5375 122.25 37.5375 126.9 37.575 132.6L37.6875 142.912L65.4 156.6C80.625 164.1 93.3 170.25 93.5625 170.25C93.825 170.25 106.613 164.1 121.95 156.6L149.813 142.95L149.925 132.412C149.963 126.6 149.888 121.875 149.738 121.912C149.55 121.912 136.95 128.175 121.725 135.787Z" fill="#1B48C4" stroke="#121213" />
</g>
</svg>
