<?xml version="1.0" encoding="UTF-8" standalone="no"?>
<!DOCTYPE svg PUBLIC "-//W3C//DTD SVG 1.1//EN" "http://www.w3.org/Graphics/SVG/1.1/DTD/svg11.dtd">
<svg width="100%" height="100%" viewBox="0 0 1081 361" version="1.1" xmlns="http://www.w3.org/2000/svg" xmlns:xlink="http://www.w3.org/1999/xlink" xml:space="preserve" xmlns:serif="http://www.serif.com/" style="fill-rule:evenodd;clip-rule:evenodd;stroke-linejoin:round;stroke-miterlimit:2;">
    <g transform="matrix(1,0,0,1,-2,-586)">
        <g id="Artboard3" transform="matrix(2.10939,0,0,0.703128,-1145.44,587.672)">
            <rect x="544.224" y="-1.124" width="511.997" height="511.997" style="fill:none;"/>
            <g transform="matrix(0.755256,0,0,2.26577,636.204,-668.401)">
                <g transform="matrix(89.9918,0,0,89.9918,90.5701,407.55)">
                    <path d="M0.32,0.01C0.274,0.01 0.232,0.005 0.195,-0.006C0.158,-0.017 0.126,-0.033 0.097,-0.054C0.068,-0.075 0.043,-0.1 0.02,-0.129L0.123,-0.246C0.156,-0.202 0.19,-0.172 0.223,-0.156C0.257,-0.141 0.292,-0.133 0.328,-0.133C0.346,-0.133 0.362,-0.135 0.377,-0.14C0.391,-0.145 0.403,-0.152 0.411,-0.161C0.419,-0.17 0.423,-0.181 0.423,-0.194C0.423,-0.204 0.421,-0.213 0.416,-0.221C0.411,-0.229 0.404,-0.236 0.395,-0.242C0.386,-0.248 0.376,-0.254 0.364,-0.259C0.352,-0.264 0.339,-0.268 0.326,-0.271C0.313,-0.275 0.299,-0.278 0.285,-0.281C0.246,-0.289 0.213,-0.3 0.184,-0.313C0.156,-0.326 0.132,-0.341 0.113,-0.36C0.094,-0.378 0.079,-0.399 0.07,-0.422C0.061,-0.446 0.056,-0.473 0.056,-0.502C0.056,-0.533 0.063,-0.562 0.078,-0.589C0.092,-0.615 0.111,-0.638 0.136,-0.657C0.16,-0.676 0.188,-0.69 0.22,-0.7C0.252,-0.711 0.285,-0.716 0.32,-0.716C0.366,-0.716 0.405,-0.711 0.438,-0.701C0.471,-0.692 0.5,-0.678 0.523,-0.66C0.547,-0.642 0.567,-0.62 0.584,-0.595L0.479,-0.494C0.465,-0.511 0.45,-0.526 0.433,-0.537C0.417,-0.549 0.4,-0.557 0.382,-0.563C0.363,-0.569 0.345,-0.572 0.325,-0.572C0.305,-0.572 0.288,-0.569 0.274,-0.565C0.26,-0.56 0.248,-0.553 0.24,-0.544C0.232,-0.535 0.228,-0.524 0.228,-0.511C0.228,-0.5 0.231,-0.49 0.238,-0.482C0.245,-0.474 0.254,-0.467 0.265,-0.46C0.276,-0.454 0.29,-0.449 0.304,-0.445C0.319,-0.44 0.334,-0.437 0.35,-0.434C0.386,-0.426 0.42,-0.417 0.449,-0.405C0.479,-0.393 0.505,-0.378 0.527,-0.361C0.548,-0.344 0.565,-0.323 0.576,-0.299C0.588,-0.275 0.594,-0.248 0.594,-0.217C0.594,-0.169 0.582,-0.128 0.558,-0.094C0.535,-0.06 0.503,-0.034 0.461,-0.017C0.42,0.001 0.373,0.01 0.32,0.01Z" style="fill:currentColor;fill-rule:nonzero;"/>
                </g>
                <g transform="matrix(89.9918,0,0,89.9918,147.603,407.55)">
                    <path d="M0.088,-0L0.088,-0.7L0.24,-0.7L0.495,-0.285L0.386,-0.286L0.644,-0.7L0.79,-0.7L0.79,-0L0.625,-0L0.625,-0.218C0.625,-0.278 0.626,-0.332 0.629,-0.38C0.632,-0.428 0.637,-0.476 0.645,-0.523L0.664,-0.471L0.47,-0.17L0.404,-0.17L0.214,-0.469L0.233,-0.523C0.24,-0.478 0.246,-0.433 0.249,-0.386C0.252,-0.339 0.253,-0.283 0.253,-0.218L0.253,-0L0.088,-0Z" style="fill:currentColor;fill-rule:nonzero;"/>
                </g>
                <g transform="matrix(89.9918,0,0,89.9918,226.596,407.55)">
                    <path d="M0.074,-0L0.074,-0.143L0.192,-0.143L0.192,-0.557L0.074,-0.557L0.074,-0.7L0.481,-0.7L0.481,-0.557L0.362,-0.557L0.362,-0.143L0.481,-0.143L0.481,-0L0.074,-0Z" style="fill:currentColor;fill-rule:nonzero;"/>
                </g>
                <g transform="matrix(89.9918,0,0,89.9918,276.535,407.55)">
                    <path d="M0.24,-0L0.24,-0.55L0.032,-0.55L0.032,-0.7L0.623,-0.7L0.623,-0.55L0.41,-0.55L0.41,-0L0.24,-0Z" style="fill:currentColor;fill-rule:nonzero;"/>
                </g>
                <g transform="matrix(89.9918,0,0,89.9918,335.5,407.55)">
                    <path d="M0.522,-0L0.522,-0.7L0.692,-0.7L0.692,-0L0.522,-0ZM0.088,-0L0.088,-0.7L0.258,-0.7L0.258,-0L0.088,-0ZM0.154,-0.273L0.155,-0.425L0.612,-0.425L0.612,-0.273L0.154,-0.273Z" style="fill:currentColor;fill-rule:nonzero;"/>
                </g>
                <g transform="matrix(89.9918,0,0,89.9918,405.637,407.55)">
                    <path d="M0.088,-0L0.088,-0.7L0.576,-0.7L0.576,-0.555L0.253,-0.555L0.253,-0.145L0.586,-0.145L0.586,-0L0.088,-0ZM0.168,-0.287L0.168,-0.425L0.531,-0.425L0.531,-0.287L0.168,-0.287Z" style="fill:currentColor;fill-rule:nonzero;"/>
                </g>
                <g transform="matrix(89.9918,0,0,89.9918,463.682,407.55)">
                    <path d="M0.088,-0L0.088,-0.7L0.381,-0.7C0.433,-0.7 0.48,-0.691 0.522,-0.674C0.565,-0.657 0.601,-0.633 0.632,-0.602C0.663,-0.571 0.687,-0.534 0.704,-0.491C0.72,-0.449 0.729,-0.402 0.729,-0.35C0.729,-0.299 0.72,-0.252 0.704,-0.209C0.687,-0.166 0.663,-0.129 0.632,-0.098C0.602,-0.067 0.565,-0.043 0.522,-0.026C0.48,-0.009 0.433,-0 0.381,-0L0.088,-0ZM0.258,-0.116L0.235,-0.15L0.376,-0.15C0.404,-0.15 0.429,-0.155 0.451,-0.164C0.473,-0.174 0.492,-0.187 0.508,-0.205C0.523,-0.222 0.536,-0.243 0.544,-0.268C0.552,-0.293 0.557,-0.32 0.557,-0.35C0.557,-0.38 0.552,-0.407 0.544,-0.432C0.536,-0.456 0.523,-0.477 0.507,-0.495C0.492,-0.512 0.473,-0.526 0.451,-0.536C0.429,-0.545 0.404,-0.55 0.376,-0.55L0.232,-0.55L0.258,-0.582L0.258,-0.116Z" style="fill:currentColor;fill-rule:nonzero;"/>
                </g>
                <g transform="matrix(89.9918,0,0,89.9918,533.166,407.55)">
                </g>
                <g transform="matrix(90,0,0,90,90.5701,485.888)">
                    <path d="M0.32,0.01C0.274,0.01 0.232,0.005 0.195,-0.006C0.158,-0.017 0.126,-0.033 0.097,-0.054C0.068,-0.075 0.043,-0.1 0.02,-0.129L0.123,-0.246C0.156,-0.202 0.19,-0.172 0.223,-0.156C0.257,-0.141 0.292,-0.133 0.328,-0.133C0.346,-0.133 0.362,-0.135 0.377,-0.14C0.391,-0.145 0.403,-0.152 0.411,-0.161C0.419,-0.17 0.423,-0.181 0.423,-0.194C0.423,-0.204 0.421,-0.213 0.416,-0.221C0.411,-0.229 0.404,-0.236 0.395,-0.242C0.386,-0.248 0.376,-0.254 0.364,-0.259C0.352,-0.264 0.339,-0.268 0.326,-0.271C0.313,-0.275 0.299,-0.278 0.285,-0.281C0.246,-0.289 0.213,-0.3 0.184,-0.313C0.156,-0.326 0.132,-0.341 0.113,-0.36C0.094,-0.378 0.079,-0.399 0.07,-0.422C0.061,-0.446 0.056,-0.473 0.056,-0.502C0.056,-0.533 0.063,-0.562 0.078,-0.589C0.092,-0.615 0.111,-0.638 0.136,-0.657C0.16,-0.676 0.188,-0.69 0.22,-0.7C0.252,-0.711 0.285,-0.716 0.32,-0.716C0.366,-0.716 0.405,-0.711 0.438,-0.701C0.471,-0.692 0.5,-0.678 0.523,-0.66C0.547,-0.642 0.567,-0.62 0.584,-0.595L0.479,-0.494C0.465,-0.511 0.45,-0.526 0.433,-0.537C0.417,-0.549 0.4,-0.557 0.382,-0.563C0.363,-0.569 0.345,-0.572 0.325,-0.572C0.305,-0.572 0.288,-0.569 0.274,-0.565C0.26,-0.56 0.248,-0.553 0.24,-0.544C0.232,-0.535 0.228,-0.524 0.228,-0.511C0.228,-0.5 0.231,-0.49 0.238,-0.482C0.245,-0.474 0.254,-0.467 0.265,-0.46C0.276,-0.454 0.29,-0.449 0.304,-0.445C0.319,-0.44 0.334,-0.437 0.35,-0.434C0.386,-0.426 0.42,-0.417 0.449,-0.405C0.479,-0.393 0.505,-0.378 0.527,-0.361C0.548,-0.344 0.565,-0.323 0.576,-0.299C0.588,-0.275 0.594,-0.248 0.594,-0.217C0.594,-0.169 0.582,-0.128 0.558,-0.094C0.535,-0.06 0.503,-0.034 0.461,-0.017C0.42,0.001 0.373,0.01 0.32,0.01Z" style="fill:currentColor;fill-rule:nonzero;"/>
                </g>
                <g transform="matrix(90,0,0,90,157.563,485.888)">
                    <path d="M0.383,0.006C0.325,0.006 0.273,-0.006 0.228,-0.03C0.183,-0.053 0.148,-0.086 0.122,-0.127C0.096,-0.169 0.083,-0.216 0.083,-0.269L0.083,-0.7L0.255,-0.7L0.255,-0.278C0.255,-0.252 0.26,-0.23 0.272,-0.209C0.283,-0.189 0.299,-0.173 0.318,-0.162C0.337,-0.15 0.359,-0.144 0.383,-0.144C0.408,-0.144 0.431,-0.15 0.45,-0.162C0.47,-0.173 0.486,-0.189 0.498,-0.209C0.51,-0.23 0.516,-0.252 0.516,-0.278L0.516,-0.7L0.682,-0.7L0.682,-0.269C0.682,-0.216 0.669,-0.169 0.643,-0.127C0.618,-0.086 0.582,-0.053 0.537,-0.03C0.492,-0.006 0.44,0.006 0.383,0.006Z" style="fill:currentColor;fill-rule:nonzero;"/>
                </g>
                <g transform="matrix(90,0,0,90,236.39,485.888)">
                    <path d="M0.088,-0L0.088,-0.7L0.24,-0.7L0.495,-0.285L0.386,-0.286L0.644,-0.7L0.79,-0.7L0.79,-0L0.625,-0L0.625,-0.218C0.625,-0.278 0.626,-0.332 0.629,-0.38C0.632,-0.428 0.637,-0.476 0.645,-0.523L0.664,-0.471L0.47,-0.17L0.404,-0.17L0.214,-0.469L0.233,-0.523C0.24,-0.478 0.246,-0.433 0.249,-0.386C0.252,-0.339 0.253,-0.283 0.253,-0.218L0.253,-0L0.088,-0Z" style="fill:currentColor;fill-rule:nonzero;"/>
                </g>
                <g transform="matrix(90,0,0,90,325.344,485.888)">
                    <path d="M0.088,-0L0.088,-0.7L0.24,-0.7L0.495,-0.285L0.386,-0.286L0.644,-0.7L0.79,-0.7L0.79,-0L0.625,-0L0.625,-0.218C0.625,-0.278 0.626,-0.332 0.629,-0.38C0.632,-0.428 0.637,-0.476 0.645,-0.523L0.664,-0.471L0.47,-0.17L0.404,-0.17L0.214,-0.469L0.233,-0.523C0.24,-0.478 0.246,-0.433 0.249,-0.386C0.252,-0.339 0.253,-0.283 0.253,-0.218L0.253,-0L0.088,-0Z" style="fill:currentColor;fill-rule:nonzero;"/>
                </g>
                <g transform="matrix(90,0,0,90,414.298,485.888)">
                    <path d="M0.074,-0L0.074,-0.143L0.192,-0.143L0.192,-0.557L0.074,-0.557L0.074,-0.7L0.481,-0.7L0.481,-0.557L0.362,-0.557L0.362,-0.143L0.481,-0.143L0.481,-0L0.074,-0Z" style="fill:currentColor;fill-rule:nonzero;"/>
                </g>
                <g transform="matrix(90,0,0,90,474.196,485.888)">
                    <path d="M0.24,-0L0.24,-0.55L0.032,-0.55L0.032,-0.7L0.623,-0.7L0.623,-0.55L0.41,-0.55L0.41,-0L0.24,-0Z" style="fill:currentColor;fill-rule:nonzero;"/>
                </g>
                <g transform="matrix(90,0,0,90,533.166,485.888)">
                </g>
            </g>
            <g id="Smithed-Summit-Logo" serif:id="Smithed Summit Logo" transform="matrix(0.422515,0,0,1.26755,284.455,58.4046)">
                <g transform="matrix(0.950217,0,0,1.05604,533.675,-17.8042)">
                    <path d="M250.441,29.407L418.607,152.013L457.899,297.746L409.321,297.761L362.976,161.943L259.451,110.671L184.811,174.196L250.441,29.407Z" style="fill:currentColor;"/>
                </g>
                <g transform="matrix(0.950217,0,0,1.05604,349.533,-4.64766)">
                    <path d="M379.983,173.992L455.125,115.112L546.103,157.137L591.697,285.287L321.063,285.402L351.095,176.879L379.983,173.992ZM410.229,174.484L410.229,193.704C410.229,197.855 413.226,201.555 417.617,202.826L484.053,222.052L530.858,208.53C535.25,207.262 538.248,203.562 538.248,199.412L538.248,180.191L484.096,195.636L410.229,174.484ZM418.8,167.052L484.05,185.945L529.677,172.744L471.067,155.8C466.725,154.545 462.053,154.545 457.712,155.801L418.8,167.052ZM428.269,241.436L428.269,253.227L484.078,269.357L520.208,258.919L520.208,247.091L484.078,257.325L428.269,241.436ZM447.968,221.505L447.968,236.467L484.078,246.905L502.143,241.695L502.143,226.733L484.078,231.758L447.968,221.505Z" style="fill:currentColor;"/>
                </g>
            </g>
        </g>
    </g>
</svg>