<?xml version="1.0" encoding="UTF-8" standalone="no"?>
<!DOCTYPE svg PUBLIC "-//W3C//DTD SVG 1.1//EN" "http://www.w3.org/Graphics/SVG/1.1/DTD/svg11.dtd">
<svg width="100%" height="100%" viewBox="0 0 513 512" version="1.1" xmlns="http://www.w3.org/2000/svg" xmlns:xlink="http://www.w3.org/1999/xlink" xml:space="preserve" xmlns:serif="http://www.serif.com/" style="fill-rule:evenodd;clip-rule:evenodd;stroke-linejoin:round;stroke-miterlimit:2;">
    <g transform="matrix(1,0,0,1,-565,0)">
        <g id="Artboard2" transform="matrix(1,0,0,1,20.875,1.12442)">
            <rect x="544.224" y="-1.124" width="511.997" height="511.997" style="fill:none;"/>
            <g id="Smithed-Summit-Logo" serif:id="Smithed Summit Logo">
            </g>
            <g id="Smithed-Summit-Logo1" serif:id="Smithed Summit Logo">
            </g>
            <g id="Smithed-Summit-Logo2" serif:id="Smithed Summit Logo" transform="matrix(1.27321,0,0,1.27321,-233.236,57.5278)">
                <g transform="matrix(0.950217,0,0,1.05604,533.675,-17.8042)">
                    <path d="M250.441,29.407L418.607,152.013L457.899,297.746L409.321,297.761L362.976,161.943L259.451,110.671L184.811,174.196L250.441,29.407Z" fill="currentColor"/>
                </g>
                <g transform="matrix(0.950217,0,0,1.05604,349.533,-4.64766)">
                    <path d="M379.983,173.992L455.125,115.112L546.103,157.137L591.697,285.287L321.063,285.402L351.095,176.879L379.983,173.992ZM410.229,174.484L410.229,193.704C410.229,197.855 413.226,201.555 417.617,202.826L484.053,222.052L530.858,208.53C535.25,207.262 538.248,203.562 538.248,199.412L538.248,180.191L484.096,195.636L410.229,174.484ZM418.8,167.052L484.05,185.945L529.677,172.744L471.067,155.8C466.725,154.545 462.053,154.545 457.712,155.801L418.8,167.052ZM428.269,241.436L428.269,253.227L484.078,269.357L520.208,258.919L520.208,247.091L484.078,257.325L428.269,241.436ZM447.968,221.505L447.968,236.467L484.078,246.905L502.143,241.695L502.143,226.733L484.078,231.758L447.968,221.505Z" fill="currentColor"/>
                </g>
            </g>
        </g>
    </g>
</svg>