<svg width="16" height="16" viewBox="0 0 16 16" fill="currentColor" xmlns="http://www.w3.org/2000/svg">
<path d="M13 3H3C2.44772 3 2 3.44772 2 4C2 4.55228 2.44772 5 3 5H13C13.5523 5 14 4.55228 14 4C14 3.44772 13.5523 3 13 3Z" fill="currentColor"/>
<path d="M13 7H3C2.44772 7 2 7.44772 2 8C2 8.55228 2.44772 9 3 9H13C13.5523 9 14 8.55228 14 8C14 7.44772 13.5523 7 13 7Z" fill="currentColor"/>
<path d="M10 11H3C2.44772 11 2 11.4477 2 12C2 12.5523 2.44772 13 3 13H10C10.5523 13 11 12.5523 11 12C11 11.4477 10.5523 11 10 11Z" fill="currentColor"/>
</svg>
