<svg width="16" height="16" viewBox="0 0 16 16" fill="none" xmlns="http://www.w3.org/2000/svg">
<path fill-rule="evenodd" clip-rule="evenodd" d="M6 0C4.892 0 4 0.892 4 2H2C1.446 2 1 2.446 1 3C1 3.554 1.446 4 2 4V13C2 14.662 3.338 16 5 16H11C12.662 16 14 14.662 14 13V4C14.554 4 15 3.554 15 3C15 2.446 14.554 2 14 2H12C12 0.892 11.108 0 10 0H6ZM4 4H12V13C12 13.554 11.554 14 11 14H5C4.446 14 4 13.554 4 13V4ZM6.334 6C5.78 6 5.334 6.446 5.334 7V11C5.334 11.554 5.78 12 6.334 12C6.888 12 7.334 11.554 7.334 11V7C7.334 6.446 6.888 6 6.334 6ZM9.666 6C9.112 6 8.666 6.446 8.666 7V11C8.666 11.554 9.112 12 9.666 12C10.22 12 10.666 11.554 10.666 11V7C10.666 6.446 10.22 6 9.666 6Z" fill="currentColor"/>
</svg>
