<svg width="16" height="16" viewBox="0 0 16 16" fill="currentColor" xmlns="http://www.w3.org/2000/svg">
<path d="M6.76608 2.28199L1.23408 11.863C1.10914 12.0796 1.0434 12.3253 1.04346 12.5753C1.04352 12.8254 1.10938 13.071 1.23442 13.2876C1.35947 13.5041 1.53929 13.684 1.75584 13.809C1.97238 13.9341 2.21802 13.9999 2.46808 14H13.5281C13.7781 13.9999 14.0238 13.9341 14.2403 13.809C14.4569 13.684 14.6367 13.5041 14.7617 13.2876C14.8868 13.071 14.9526 12.8254 14.9527 12.5753C14.9528 12.3253 14.887 12.0796 14.7621 11.863L9.23008 2.28199C9.105 2.0654 8.92512 1.88555 8.70851 1.76051C8.4919 1.63547 8.24619 1.56964 7.99608 1.56964C7.74597 1.56964 7.50027 1.63547 7.28366 1.76051C7.06705 1.88555 6.88716 2.0654 6.76208 2.28199H6.76608ZM8.00008 4.07199C8.55238 4.07199 9.00008 4.51969 9.00008 5.07199V9.07199C9.00008 9.62429 8.55238 10.072 8.00008 10.072C7.44778 10.072 7.00008 9.62429 7.00008 9.07199V5.07199C7.00008 4.51969 7.44778 4.07199 8.00008 4.07199ZM8.00008 11.072C8.55238 11.072 9.00008 11.5197 9.00008 12.072C9.00008 12.6243 8.55238 13.072 8.00008 13.072C7.44778 13.072 7.00008 12.6243 7.00008 12.072C7.00008 11.5197 7.44778 11.072 8.00008 11.072Z"/>
</svg>
