<svg width="16" height="12" viewBox="0 0 16 12" fill="none" xmlns="http://www.w3.org/2000/svg">
<path id="Vector" d="M6.3636 8.37903V3.62104L10.5455 6.0001L6.3636 8.37903ZM15.6656 2.1239C15.4816 1.43104 14.9394 0.885382 14.2511 0.7002C13.0033 0.363655 7.99997 0.363655 7.99997 0.363655C7.99997 0.363655 2.99665 0.363655 1.74893 0.7002C1.06057 0.885382 0.518386 1.43104 0.334363 2.1239C0 3.37974 0 6.00003 0 6.00003C0 6.00003 0 8.62019 0.334363 9.8761C0.518386 10.569 1.0605 11.1146 1.74893 11.2999C2.99665 11.6363 7.99997 11.6363 7.99997 11.6363C7.99997 11.6363 13.0033 11.6363 14.2511 11.2999C14.9394 11.1146 15.4816 10.569 15.6656 9.8761C16 8.62019 16 5.99996 16 5.99996C16 5.99996 16 3.37974 15.6656 2.1239Z" fill="currentColor"/>
</svg>
